<?xml version="1.0" encoding="utf-8"?>
<!-- Generator: Adobe Illustrator 23.1.1, SVG Export Plug-In . SVG Version: 6.00 Build 0)  -->
<svg version="1.2" baseProfile="tiny" id="g-endowment-values-300-img" xmlns="http://www.w3.org/2000/svg" xmlns:xlink="http://www.w3.org/1999/xlink"
	 x="0px" y="0px" viewBox="0 0 300 1020" xml:space="preserve">
<g>
	
		<rect style="opacity:0.2;" x="81.353" y="196.25" transform="matrix(-1.836970e-16 1 -1 -1.836970e-16 449.5444 177.2494)" fill="#CCCCCC" width="109.588" height="234.294"/>
	
		<line fill="none" stroke="#DDDDDD" stroke-miterlimit="10" stroke-dasharray="3" x1="119.345" y1="113.962" x2="119.345" y2="916.693"/>
	
		<line fill="none" stroke="#DDDDDD" stroke-miterlimit="10" stroke-dasharray="3" x1="152.769" y1="113.962" x2="152.769" y2="916.693"/>
	
		<line fill="none" stroke="#DDDDDD" stroke-miterlimit="10" stroke-dasharray="3" x1="186.2" y1="113.962" x2="186.2" y2="916.693"/>
	
		<line fill="none" stroke="#DDDDDD" stroke-miterlimit="10" stroke-dasharray="3" x1="219.625" y1="113.962" x2="219.625" y2="916.693"/>
	<line fill="none" stroke="#8ACF9F" stroke-miterlimit="10" x1="27.667" y1="381.667" x2="28.959" y2="902.337"/>
	
		<line fill="none" stroke="#DDDDDD" stroke-miterlimit="10" stroke-dasharray="3" x1="19.064" y1="113.962" x2="19.064" y2="916.693"/>
	<rect style="opacity:0.6;" x="1.496" y="782.183" fill="#FFFFFF" width="38.043" height="16.036"/>
	<rect style="opacity:0.6;" x="4.568" y="707.73" fill="#FFFFFF" width="54.338" height="38.104"/>
	
		<line fill="none" stroke="#DDDDDD" stroke-miterlimit="10" stroke-dasharray="3" x1="52.489" y1="113.962" x2="52.489" y2="916.693"/>
	
		<line fill="none" stroke="#DDDDDD" stroke-miterlimit="10" stroke-dasharray="3" x1="85.914" y1="113.962" x2="85.914" y2="916.693"/>
	<g>
		
			<rect x="125.872" y="831.68" transform="matrix(-1.836970e-16 1 -1 -1.836970e-16 1095.8334 811.2864)" fill="#F7B2E5" width="32.804" height="243.76"/>
		
			<rect x="205.446" y="910.902" transform="matrix(-1.836970e-16 1 -1 -1.836970e-16 1175.408 731.7118)" fill="#FFD08C" width="32.804" height="85.316"/>
		
			<rect x="138.266" y="929.184" transform="matrix(-1.836970e-16 1 -1 -1.836970e-16 1108.2281 798.8915)" fill="#5CC1C4" width="32.804" height="48.752"/>
		
			<rect x="87.063" y="926.746" transform="matrix(-1.836970e-16 1 -1 -1.836970e-16 1057.0251 850.0946)" fill="#FF9FAE" width="32.804" height="53.627"/>
		
			<rect x="12.567" y="949.904" transform="matrix(-1.836970e-16 1 -1 -1.836970e-16 982.5289 924.5909)" fill="#8ACF9F" width="32.804" height="7.313"/>
		
			<rect x="38.211" y="931.621" transform="matrix(-1.836970e-16 1 -1 -1.836970e-16 1008.1724 898.9474)" fill="#94B5EB" width="32.804" height="43.877"/>
	</g>
	
		<line fill="none" stroke="#DDDDDD" stroke-miterlimit="10" stroke-dasharray="3" x1="253.05" y1="113.962" x2="253.05" y2="916.693"/>
	
		<rect x="76.746" y="267.326" transform="matrix(-1.836970e-16 1 -1 -1.836970e-16 434.1207 247.8253)" fill="#F7B2E5" width="32.804" height="147.294"/>
	
		<rect x="128.455" y="318.914" transform="matrix(-1.836970e-16 1 -1 -1.836970e-16 485.83 196.1161)" fill="#FFD08C" width="32.804" height="44.119"/>
	
		<rect x="88.752" y="323.326" transform="matrix(-1.836970e-16 1 -1 -1.836970e-16 446.1266 235.8194)" fill="#5CC1C4" width="32.804" height="35.295"/>
	
		<rect x="54.169" y="324.061" transform="matrix(-1.836970e-16 1 -1 -1.836970e-16 411.5435 270.4025)" fill="#FF9FAE" width="32.804" height="33.824"/>
	
		<rect x="26.133" y="329.943" transform="matrix(-1.836970e-16 1 -1 -1.836970e-16 383.5078 298.4382)" fill="#94B5EB" width="32.804" height="22.059"/>
	
		<rect x="12.199" y="338.032" transform="matrix(-1.836970e-16 1 -1 -1.836970e-16 369.5739 312.3722)" fill="#8ACF9F" width="32.804" height="5.882"/>
	<rect style="opacity:0.6;" x="9.64" y="904.995" fill="#FFFFFF" width="216.111" height="14.863"/>
	<line fill="none" stroke="#F7B2E5" stroke-miterlimit="10" x1="20.329" y1="368.191" x2="19.654" y2="912.426"/>
	<line fill="#83B3FF" stroke="#94B5EB" stroke-miterlimit="10" x1="44.455" y1="368.191" x2="56.877" y2="910.183"/>
	<line fill="none" stroke="#FF9FAE" stroke-miterlimit="10" x1="69.667" y1="368.392" x2="104.425" y2="909.858"/>
	<line fill="none" stroke="#5CC1C4" stroke-miterlimit="10" x1="107.274" y1="368.191" x2="153.752" y2="908.84"/>
	<line fill="none" stroke="#FFD08C" stroke-miterlimit="10" x1="139.369" y1="368.191" x2="218.898" y2="910.183"/>
	<rect style="opacity:0.6;" x="29.937" y="633.667" fill="#FFFFFF" width="49.171" height="33.961"/>
	<rect style="opacity:0.6;" x="59.831" y="556.79" fill="#FFFFFF" width="48.476" height="38.104"/>
	<rect style="opacity:0.6;" x="92.176" y="495.829" fill="#FFFFFF" width="54.338" height="38.104"/>
	<rect style="opacity:0.6;" x="125.329" y="444.675" fill="#FFFFFF" width="45.685" height="38.104"/>
	<polyline fill="none" stroke="#F8766D" stroke-width="2" stroke-linejoin="round" stroke-miterlimit="10" points="134.73,147.206 
		151.382,202.594 184,257.982 182.75,313.371 150.384,368.759 164.28,424.147 192.652,479.535 189.632,534.923 201.746,590.312 
		224.594,645.7 233.868,701.088 220.54,756.476 241.832,811.865 261.277,867.271 263.095,922.66 	"/>
</g>
<style>
#g-endowment-values-300-img rect, #g-endowment-values-300-img circle, #g-endowment-values-300-img path, #g-endowment-values-300-img line, #g-endowment-values-300-img polyline { vector-effect: non-scaling-stroke; }
</style>
</svg>

