<?xml version="1.0" encoding="utf-8"?>
<!-- Generator: Adobe Illustrator 23.1.1, SVG Export Plug-In . SVG Version: 6.00 Build 0)  -->
<svg version="1.2" baseProfile="tiny" id="g-endowment-values-1200-img" xmlns="http://www.w3.org/2000/svg" xmlns:xlink="http://www.w3.org/1999/xlink"
	 x="0px" y="0px" viewBox="0 0 1150 750" xml:space="preserve">
<g>
	<rect style="opacity:0.2;" x="230.974" y="124.01" fill="#CCCCCC" width="109.588" height="544.99"/>
	<g>
		<g>
			
				<line fill="none" stroke="#888888" stroke-width="0.5" stroke-linejoin="round" stroke-miterlimit="10" x1="119.567" y1="111.843" x2="119.567" y2="115.906"/>
			
				<line fill="none" stroke="#888888" stroke-width="0.5" stroke-linejoin="round" stroke-miterlimit="10" x1="174.783" y1="111.812" x2="174.783" y2="115.875"/>
			
				<line fill="none" stroke="#888888" stroke-width="0.5" stroke-linejoin="round" stroke-miterlimit="10" x1="230.262" y1="111.781" x2="230.262" y2="115.844"/>
			
				<line fill="none" stroke="#888888" stroke-width="0.5" stroke-linejoin="round" stroke-miterlimit="10" x1="285.851" y1="111.749" x2="285.851" y2="115.812"/>
		</g>
		<g>
			
				<line fill="none" stroke="#888888" stroke-width="0.5" stroke-linejoin="round" stroke-miterlimit="10" x1="562.185" y1="111.843" x2="562.185" y2="115.906"/>
			
				<line fill="none" stroke="#888888" stroke-width="0.5" stroke-linejoin="round" stroke-miterlimit="10" x1="617.401" y1="111.812" x2="617.401" y2="115.875"/>
			
				<line fill="none" stroke="#888888" stroke-width="0.5" stroke-linejoin="round" stroke-miterlimit="10" x1="672.88" y1="111.781" x2="672.88" y2="115.844"/>
			
				<line fill="none" stroke="#888888" stroke-width="0.5" stroke-linejoin="round" stroke-miterlimit="10" x1="728.469" y1="111.749" x2="728.469" y2="115.812"/>
		</g>
		<g>
			
				<line fill="none" stroke="#888888" stroke-width="0.5" stroke-linejoin="round" stroke-miterlimit="10" x1="783.527" y1="111.697" x2="783.527" y2="115.76"/>
			
				<line fill="none" stroke="#888888" stroke-width="0.5" stroke-linejoin="round" stroke-miterlimit="10" x1="838.743" y1="111.666" x2="838.743" y2="115.729"/>
		</g>
		<g>
			
				<line fill="none" stroke="#888888" stroke-width="0.5" stroke-linejoin="round" stroke-miterlimit="10" x1="895" y1="111.666" x2="895" y2="115.729"/>
		</g>
		<g>
			
				<line fill="none" stroke="#888888" stroke-width="0.5" stroke-linejoin="round" stroke-miterlimit="10" x1="341.005" y1="111.677" x2="341.005" y2="115.74"/>
			
				<line fill="none" stroke="#888888" stroke-width="0.5" stroke-linejoin="round" stroke-miterlimit="10" x1="396.221" y1="111.645" x2="396.221" y2="115.708"/>
			
				<line fill="none" stroke="#888888" stroke-width="0.5" stroke-linejoin="round" stroke-miterlimit="10" x1="451.7" y1="111.614" x2="451.7" y2="115.677"/>
			
				<line fill="none" stroke="#888888" stroke-width="0.5" stroke-linejoin="round" stroke-miterlimit="10" x1="507.289" y1="111.583" x2="507.289" y2="115.646"/>
		</g>
	</g>
	<g>
		<g>
			<line fill="none" stroke="#DDDDDD" stroke-miterlimit="10" x1="948.13" y1="235.666" x2="946.63" y2="235.666"/>
			
				<line fill="none" stroke="#DDDDDD" stroke-miterlimit="10" stroke-dasharray="3.0076,3.0076" x1="943.623" y1="235.666" x2="84.94" y2="235.666"/>
			<line fill="none" stroke="#DDDDDD" stroke-miterlimit="10" x1="83.436" y1="235.666" x2="81.936" y2="235.666"/>
		</g>
		<g>
			<line fill="none" stroke="#DDDDDD" stroke-miterlimit="10" x1="948.13" y1="380.153" x2="946.63" y2="380.153"/>
			
				<line fill="none" stroke="#DDDDDD" stroke-miterlimit="10" stroke-dasharray="3.0076,3.0076" x1="943.623" y1="380.153" x2="84.94" y2="380.153"/>
			<line fill="none" stroke="#DDDDDD" stroke-miterlimit="10" x1="83.436" y1="380.153" x2="81.936" y2="380.153"/>
		</g>
		<g>
			<line fill="none" stroke="#DDDDDD" stroke-miterlimit="10" x1="948.13" y1="525.072" x2="946.63" y2="525.072"/>
			
				<line fill="none" stroke="#DDDDDD" stroke-miterlimit="10" stroke-dasharray="3.0076,3.0076" x1="943.623" y1="525.072" x2="84.94" y2="525.072"/>
			<line fill="none" stroke="#DDDDDD" stroke-miterlimit="10" x1="83.436" y1="525.072" x2="81.936" y2="525.072"/>
		</g>
		<line fill="none" stroke="#666666" stroke-miterlimit="10" x1="948.13" y1="669.775" x2="81.936" y2="669.775"/>
	</g>
	<rect x="349.333" y="129" fill="none" width="254" height="39"/>
	<line fill="none" stroke="#FFCB57" stroke-miterlimit="10" x1="358.287" y1="407" x2="853.619" y2="247"/>
	<rect x="296.943" y="350.5" fill="#F7B2E5" width="32.804" height="318.333"/>
	<rect x="296.943" y="445.58" fill="#5CC1C4" width="32.804" height="76.28"/>
	<rect x="296.943" y="521.91" fill="#FF9FAE" width="32.804" height="73.101"/>
	<rect x="296.943" y="595.214" fill="#94B5EB" width="32.804" height="47.675"/>
	<g>
		<rect x="895.53" y="142.959" fill="#F7B2E5" width="32.804" height="526.817"/>
		<rect x="895.53" y="142.197" fill="#FFD08C" width="32.804" height="184.386"/>
		<rect x="895.53" y="326.898" fill="#5CC1C4" width="32.804" height="105.363"/>
		<rect x="895.53" y="432.29" fill="#FF9FAE" width="32.804" height="115.9"/>
		<rect x="895.53" y="643.34" fill="#8ACF9F" width="32.804" height="15.804"/>
		<rect x="895.53" y="548.407" fill="#94B5EB" width="32.804" height="94.827"/>
	</g>
	<rect x="296.943" y="642.809" fill="#8ACF9F" width="32.804" height="12.713"/>
	<line fill="none" stroke="#5CC1C4" stroke-miterlimit="10" x1="358.287" y1="488" x2="856.55" y2="381"/>
	<line fill="none" stroke="#FF9FAE" stroke-miterlimit="10" x1="359.264" y1="558" x2="855.573" y2="486"/>
	<line fill="none" stroke="#94B5EB" stroke-miterlimit="10" x1="356.333" y1="613" x2="856.55" y2="580"/>
	<line fill="none" stroke="#8ACF9F" stroke-miterlimit="10" x1="359.266" y1="651.002" x2="854.599" y2="648.004"/>
	<line fill="none" stroke="#F7B2E5" stroke-miterlimit="10" x1="361.218" y1="665" x2="854.819" y2="665"/>
	<rect style="opacity:0.6;" x="581.648" y="301.597" fill="#FFFFFF" width="91.37" height="40.438"/>
	<rect style="opacity:0.6;" x="575.456" y="422.331" fill="#FFFFFF" width="107.586" height="19.352"/>
	<rect style="opacity:0.6;" x="573.541" y="511.318" fill="#FFFFFF" width="103.751" height="19.352"/>
	<rect style="opacity:0.6;" x="578" y="585.858" fill="#FFFFFF" width="92.292" height="19.352"/>
	<rect style="opacity:0.6;" x="571.309" y="638.151" fill="#FFFFFF" width="100.982" height="19.352"/>
	<rect x="296.943" y="350.237" fill="#FFD08C" width="32.804" height="95.349"/>
	<polyline fill="none" stroke="#F8766D" stroke-width="2" stroke-linejoin="round" stroke-miterlimit="10" points="119.577,419.8 
		174.966,383.81 230.354,313.317 285.742,316.017 341.13,385.968 396.519,355.936 451.907,294.617 507.295,301.143 562.683,274.962 
		618.071,225.584 673.46,205.541 728.848,234.346 784.236,188.328 839.643,146.304 895.031,142.375 	"/>
</g>
<style>
#g-endowment-values-1200-img rect, #g-endowment-values-1200-img circle, #g-endowment-values-1200-img path, #g-endowment-values-1200-img line, #g-endowment-values-1200-img polyline { vector-effect: non-scaling-stroke; }
</style>
</svg>

