<?xml version="1.0" encoding="utf-8"?>
<!-- Generator: Adobe Illustrator 23.1.1, SVG Export Plug-In . SVG Version: 6.00 Build 0)  -->
<svg version="1.2" baseProfile="tiny" id="g-endowment-values-300-300-img" xmlns="http://www.w3.org/2000/svg" xmlns:xlink="http://www.w3.org/1999/xlink"
	 x="0px" y="0px" viewBox="0 0 300 1020" xml:space="preserve">
<g>
	
		<rect style="opacity:0.2;" x="81.353" y="183.25" transform="matrix(-1.836970e-16 1 -1 -1.836970e-16 436.5444 164.2494)" fill="#CCCCCC" width="109.588" height="234.294"/>
	
		<line fill="none" stroke="#DDDDDD" stroke-miterlimit="10" stroke-dasharray="3" x1="119.345" y1="100.962" x2="119.345" y2="903.693"/>
	
		<line fill="none" stroke="#DDDDDD" stroke-miterlimit="10" stroke-dasharray="3" x1="152.769" y1="100.962" x2="152.769" y2="903.693"/>
	
		<line fill="none" stroke="#DDDDDD" stroke-miterlimit="10" stroke-dasharray="3" x1="186.2" y1="100.962" x2="186.2" y2="903.693"/>
	
		<line fill="none" stroke="#DDDDDD" stroke-miterlimit="10" stroke-dasharray="3" x1="219.625" y1="100.962" x2="219.625" y2="903.693"/>
	<line fill="none" stroke="#8ACF9F" stroke-miterlimit="10" x1="27.667" y1="368.667" x2="28.959" y2="889.337"/>
	
		<line fill="none" stroke="#DDDDDD" stroke-miterlimit="10" stroke-dasharray="3" x1="19.064" y1="100.962" x2="19.064" y2="903.693"/>
	<rect style="opacity:0.6;" x="1.496" y="769.183" fill="#FFFFFF" width="38.043" height="16.036"/>
	<rect style="opacity:0.6;" x="4.568" y="694.73" fill="#FFFFFF" width="54.338" height="38.104"/>
	
		<line fill="none" stroke="#DDDDDD" stroke-miterlimit="10" stroke-dasharray="3" x1="52.489" y1="100.962" x2="52.489" y2="903.693"/>
	
		<line fill="none" stroke="#DDDDDD" stroke-miterlimit="10" stroke-dasharray="3" x1="85.914" y1="100.962" x2="85.914" y2="903.693"/>
	<g>
		
			<rect x="125.872" y="818.68" transform="matrix(-1.836970e-16 1 -1 -1.836970e-16 1082.8334 798.2864)" fill="#F7B2E5" width="32.804" height="243.76"/>
		
			<rect x="205.446" y="897.902" transform="matrix(-1.836970e-16 1 -1 -1.836970e-16 1162.408 718.7118)" fill="#FFD08C" width="32.804" height="85.316"/>
		
			<rect x="138.266" y="916.184" transform="matrix(-1.836970e-16 1 -1 -1.836970e-16 1095.2281 785.8915)" fill="#5CC1C4" width="32.804" height="48.752"/>
		
			<rect x="87.063" y="913.746" transform="matrix(-1.836970e-16 1 -1 -1.836970e-16 1044.0251 837.0946)" fill="#FF9FAE" width="32.804" height="53.627"/>
		
			<rect x="12.567" y="936.904" transform="matrix(-1.836970e-16 1 -1 -1.836970e-16 969.5289 911.5909)" fill="#8ACF9F" width="32.804" height="7.313"/>
		
			<rect x="38.211" y="918.621" transform="matrix(-1.836970e-16 1 -1 -1.836970e-16 995.1724 885.9474)" fill="#94B5EB" width="32.804" height="43.877"/>
	</g>
	
		<line fill="none" stroke="#DDDDDD" stroke-miterlimit="10" stroke-dasharray="3" x1="253.05" y1="100.962" x2="253.05" y2="903.693"/>
	
		<rect x="76.746" y="254.326" transform="matrix(-1.836970e-16 1 -1 -1.836970e-16 421.1207 234.8253)" fill="#F7B2E5" width="32.804" height="147.294"/>
	
		<rect x="128.455" y="305.914" transform="matrix(-1.836970e-16 1 -1 -1.836970e-16 472.83 183.1161)" fill="#FFD08C" width="32.804" height="44.119"/>
	
		<rect x="88.752" y="310.326" transform="matrix(-1.836970e-16 1 -1 -1.836970e-16 433.1266 222.8194)" fill="#5CC1C4" width="32.804" height="35.295"/>
	
		<rect x="54.169" y="311.061" transform="matrix(-1.836970e-16 1 -1 -1.836970e-16 398.5435 257.4025)" fill="#FF9FAE" width="32.804" height="33.824"/>
	
		<rect x="26.133" y="316.943" transform="matrix(-1.836970e-16 1 -1 -1.836970e-16 370.5078 285.4382)" fill="#94B5EB" width="32.804" height="22.059"/>
	
		<rect x="12.199" y="325.032" transform="matrix(-1.836970e-16 1 -1 -1.836970e-16 356.5739 299.3722)" fill="#8ACF9F" width="32.804" height="5.882"/>
	<rect style="opacity:0.6;" x="9.64" y="891.995" fill="#FFFFFF" width="216.111" height="14.863"/>
	<line fill="none" stroke="#F7B2E5" stroke-miterlimit="10" x1="20.329" y1="355.191" x2="19.654" y2="899.426"/>
	<line fill="#83B3FF" stroke="#94B5EB" stroke-miterlimit="10" x1="44.455" y1="355.191" x2="56.877" y2="897.183"/>
	<line fill="none" stroke="#FF9FAE" stroke-miterlimit="10" x1="69.667" y1="355.392" x2="104.425" y2="896.858"/>
	<line fill="none" stroke="#5CC1C4" stroke-miterlimit="10" x1="107.274" y1="355.191" x2="153.752" y2="895.84"/>
	<line fill="none" stroke="#FFD08C" stroke-miterlimit="10" x1="139.369" y1="355.191" x2="218.898" y2="897.183"/>
	<rect style="opacity:0.6;" x="29.937" y="620.667" fill="#FFFFFF" width="49.171" height="33.961"/>
	<rect style="opacity:0.6;" x="59.831" y="543.79" fill="#FFFFFF" width="48.476" height="38.104"/>
	<rect style="opacity:0.6;" x="92.176" y="482.829" fill="#FFFFFF" width="54.338" height="38.104"/>
	<rect style="opacity:0.6;" x="125.329" y="431.675" fill="#FFFFFF" width="45.685" height="38.104"/>
	<polyline fill="none" stroke="#F8766D" stroke-width="2" stroke-linejoin="round" stroke-miterlimit="10" points="134.73,134.206 
		151.382,189.594 184,244.982 182.75,300.371 150.384,355.759 164.28,411.147 192.652,466.535 189.632,521.923 201.746,577.312 
		224.594,632.7 233.868,688.088 220.54,743.476 241.832,798.865 261.277,854.271 263.095,909.66 	"/>
</g>
<style>
#g-endowment-values-300-300-img rect, #g-endowment-values-300-300-img circle, #g-endowment-values-300-300-img path, #g-endowment-values-300-300-img line, #g-endowment-values-300-300-img polyline { vector-effect: non-scaling-stroke; }
</style>
</svg>

