<?xml version="1.0" encoding="utf-8"?>
<!-- Generator: Adobe Illustrator 23.1.1, SVG Export Plug-In . SVG Version: 6.00 Build 0)  -->
<svg version="1.2" baseProfile="tiny" id="g-endowment-values-1200-700-img" xmlns="http://www.w3.org/2000/svg" xmlns:xlink="http://www.w3.org/1999/xlink"
	 x="0px" y="0px" viewBox="0 0 700 750" xml:space="preserve">
<g>
	<g>
		<g>
			<line fill="none" stroke="#DDDDDD" stroke-miterlimit="10" x1="675.336" y1="234.869" x2="673.836" y2="234.869"/>
			
				<line fill="none" stroke="#DDDDDD" stroke-miterlimit="10" stroke-dasharray="3.0123,3.0123" x1="670.824" y1="234.869" x2="75.894" y2="234.869"/>
			<line fill="none" stroke="#DDDDDD" stroke-miterlimit="10" x1="74.388" y1="234.869" x2="72.888" y2="234.869"/>
		</g>
		<g>
			<line fill="none" stroke="#DDDDDD" stroke-miterlimit="10" x1="675.336" y1="379.355" x2="673.836" y2="379.355"/>
			
				<line fill="none" stroke="#DDDDDD" stroke-miterlimit="10" stroke-dasharray="3.0123,3.0123" x1="670.824" y1="379.355" x2="75.894" y2="379.355"/>
			<line fill="none" stroke="#DDDDDD" stroke-miterlimit="10" x1="74.388" y1="379.355" x2="72.888" y2="379.355"/>
		</g>
		<g>
			<line fill="none" stroke="#DDDDDD" stroke-miterlimit="10" x1="675.336" y1="524.275" x2="673.836" y2="524.275"/>
			
				<line fill="none" stroke="#DDDDDD" stroke-miterlimit="10" stroke-dasharray="3.0123,3.0123" x1="670.824" y1="524.275" x2="75.894" y2="524.275"/>
			<line fill="none" stroke="#DDDDDD" stroke-miterlimit="10" x1="74.388" y1="524.275" x2="72.888" y2="524.275"/>
		</g>
		<line fill="none" stroke="#666666" stroke-miterlimit="10" x1="675.336" y1="668.978" x2="72.888" y2="668.978"/>
	</g>
	<rect style="opacity:0.2;" x="176.546" y="124.988" fill="#CCCCCC" width="76.22" height="544.99"/>
	<g>
		<g>
			
				<line fill="none" stroke="#888888" stroke-width="0.5" stroke-linejoin="round" stroke-miterlimit="10" x1="99.061" y1="112.821" x2="99.061" y2="116.884"/>
			
				<line fill="none" stroke="#888888" stroke-width="0.5" stroke-linejoin="round" stroke-miterlimit="10" x1="137.464" y1="112.79" x2="137.464" y2="116.853"/>
			
				<line fill="none" stroke="#888888" stroke-width="0.5" stroke-linejoin="round" stroke-miterlimit="10" x1="176.05" y1="112.759" x2="176.05" y2="116.822"/>
			
				<line fill="none" stroke="#888888" stroke-width="0.5" stroke-linejoin="round" stroke-miterlimit="10" x1="214.713" y1="112.727" x2="214.713" y2="116.79"/>
		</g>
		<g>
			
				<line fill="none" stroke="#888888" stroke-width="0.5" stroke-linejoin="round" stroke-miterlimit="10" x1="406.907" y1="112.821" x2="406.907" y2="116.884"/>
			
				<line fill="none" stroke="#888888" stroke-width="0.5" stroke-linejoin="round" stroke-miterlimit="10" x1="445.31" y1="112.79" x2="445.31" y2="116.853"/>
			
				<line fill="none" stroke="#888888" stroke-width="0.5" stroke-linejoin="round" stroke-miterlimit="10" x1="483.897" y1="112.759" x2="483.897" y2="116.822"/>
			
				<line fill="none" stroke="#888888" stroke-width="0.5" stroke-linejoin="round" stroke-miterlimit="10" x1="522.559" y1="112.727" x2="522.559" y2="116.79"/>
		</g>
		<g>
			
				<line fill="none" stroke="#888888" stroke-width="0.5" stroke-linejoin="round" stroke-miterlimit="10" x1="560.852" y1="112.675" x2="560.852" y2="116.738"/>
			
				<line fill="none" stroke="#888888" stroke-width="0.5" stroke-linejoin="round" stroke-miterlimit="10" x1="599.256" y1="112.644" x2="599.256" y2="116.707"/>
		</g>
		<g>
			
				<line fill="none" stroke="#888888" stroke-width="0.5" stroke-linejoin="round" stroke-miterlimit="10" x1="638.383" y1="112.644" x2="638.383" y2="116.707"/>
		</g>
		<g>
			
				<line fill="none" stroke="#888888" stroke-width="0.5" stroke-linejoin="round" stroke-miterlimit="10" x1="253.073" y1="112.655" x2="253.073" y2="116.718"/>
			
				<line fill="none" stroke="#888888" stroke-width="0.5" stroke-linejoin="round" stroke-miterlimit="10" x1="291.477" y1="112.623" x2="291.477" y2="116.686"/>
			
				<line fill="none" stroke="#888888" stroke-width="0.5" stroke-linejoin="round" stroke-miterlimit="10" x1="330.063" y1="112.592" x2="330.063" y2="116.655"/>
			
				<line fill="none" stroke="#888888" stroke-width="0.5" stroke-linejoin="round" stroke-miterlimit="10" x1="368.726" y1="112.561" x2="368.726" y2="116.624"/>
		</g>
	</g>
	<rect x="258.866" y="129.978" fill="none" width="176.66" height="39"/>
	<line fill="none" stroke="#FFCB57" stroke-miterlimit="10" x1="265.089" y1="407.978" x2="608.406" y2="247.978"/>
	<rect x="222.427" y="351.478" fill="#F7B2E5" width="22.815" height="317.5"/>
	<rect x="222.427" y="446.558" fill="#5CC1C4" width="22.815" height="76.28"/>
	<rect x="222.427" y="522.888" fill="#FF9FAE" width="22.815" height="73.101"/>
	<rect x="222.427" y="596.192" fill="#94B5EB" width="22.815" height="47.675"/>
	<g>
		<rect x="638.752" y="142.496" fill="#F7B2E5" width="22.815" height="526.817"/>
		<rect x="638.752" y="141.734" fill="#FFD08C" width="22.815" height="184.386"/>
		<rect x="638.752" y="326.435" fill="#5CC1C4" width="22.815" height="105.363"/>
		<rect x="638.752" y="431.827" fill="#FF9FAE" width="22.815" height="115.9"/>
		<rect x="638.752" y="642.877" fill="#8ACF9F" width="22.815" height="15.804"/>
		<rect x="638.752" y="547.944" fill="#94B5EB" width="22.815" height="94.827"/>
	</g>
	<rect x="222.427" y="643.787" fill="#8ACF9F" width="22.815" height="12.713"/>
	<line fill="none" stroke="#5CC1C4" stroke-miterlimit="10" x1="265.089" y1="488.978" x2="610.437" y2="381.978"/>
	<line fill="none" stroke="#FF9FAE" stroke-miterlimit="10" x1="265.766" y1="558.978" x2="609.76" y2="486.978"/>
	<line fill="none" stroke="#94B5EB" stroke-miterlimit="10" x1="263.734" y1="613.978" x2="610.437" y2="580.978"/>
	<line fill="none" stroke="#8ACF9F" stroke-miterlimit="10" x1="265.774" y1="651.98" x2="610.284" y2="648.982"/>
	<line fill="none" stroke="#F7B2E5" stroke-miterlimit="10" x1="267.132" y1="665.978" x2="610.437" y2="665.978"/>
	<rect style="opacity:0.6;" x="412.323" y="305.173" fill="#FFFFFF" width="63.549" height="40.438"/>
	<rect style="opacity:0.6;" x="416.137" y="423.309" fill="#FFFFFF" width="74.827" height="19.352"/>
	<rect style="opacity:0.6;" x="402.146" y="512.296" fill="#FFFFFF" width="84.818" height="19.352"/>
	<rect style="opacity:0.6;" x="406.707" y="586.836" fill="#FFFFFF" width="85.208" height="21.654"/>
	<rect style="opacity:0.6;" x="413.253" y="639.129" fill="#FFFFFF" width="70.234" height="19.352"/>
	<rect x="222.427" y="351.215" fill="#FFD08C" width="22.815" height="95.349"/>
	<polyline fill="none" stroke="#F8766D" stroke-width="2" stroke-linejoin="round" stroke-miterlimit="10" points="99.068,420.778 
		137.591,384.788 176.114,314.295 214.637,316.995 253.16,386.946 291.684,356.914 330.207,295.595 368.73,302.121 407.253,275.94 
		445.776,226.562 484.299,206.519 522.823,235.324 561.346,189.306 599.882,147.282 638.405,143.353 	"/>
</g>
<style>
#g-endowment-values-1200-700-img rect, #g-endowment-values-1200-700-img circle, #g-endowment-values-1200-700-img path, #g-endowment-values-1200-700-img line, #g-endowment-values-1200-700-img polyline { vector-effect: non-scaling-stroke; }
</style>
</svg>

