<?xml version="1.0" encoding="utf-8"?>
<!-- Generator: Adobe Illustrator 23.1.1, SVG Export Plug-In . SVG Version: 6.00 Build 0)  -->
<svg version="1.2" baseProfile="tiny" id="g-endowment-values-1200-1150-img" xmlns="http://www.w3.org/2000/svg" xmlns:xlink="http://www.w3.org/1999/xlink"
	 x="0px" y="0px" viewBox="0 0 1150 770" xml:space="preserve">
<g>
	<rect style="opacity:0.2;" x="228.974" y="137.01" fill="#CCCCCC" width="109.588" height="544.99"/>
	<g>
		<g>
			
				<line fill="none" stroke="#888888" stroke-width="0.5" stroke-linejoin="round" stroke-miterlimit="10" x1="117.567" y1="124.843" x2="117.567" y2="128.906"/>
			
				<line fill="none" stroke="#888888" stroke-width="0.5" stroke-linejoin="round" stroke-miterlimit="10" x1="172.783" y1="124.812" x2="172.783" y2="128.875"/>
			
				<line fill="none" stroke="#888888" stroke-width="0.5" stroke-linejoin="round" stroke-miterlimit="10" x1="228.262" y1="124.781" x2="228.262" y2="128.844"/>
			
				<line fill="none" stroke="#888888" stroke-width="0.5" stroke-linejoin="round" stroke-miterlimit="10" x1="283.851" y1="124.749" x2="283.851" y2="128.812"/>
		</g>
		<g>
			
				<line fill="none" stroke="#888888" stroke-width="0.5" stroke-linejoin="round" stroke-miterlimit="10" x1="560.185" y1="124.843" x2="560.185" y2="128.906"/>
			
				<line fill="none" stroke="#888888" stroke-width="0.5" stroke-linejoin="round" stroke-miterlimit="10" x1="615.401" y1="124.812" x2="615.401" y2="128.875"/>
			
				<line fill="none" stroke="#888888" stroke-width="0.5" stroke-linejoin="round" stroke-miterlimit="10" x1="670.88" y1="124.781" x2="670.88" y2="128.844"/>
			
				<line fill="none" stroke="#888888" stroke-width="0.5" stroke-linejoin="round" stroke-miterlimit="10" x1="726.469" y1="124.749" x2="726.469" y2="128.812"/>
		</g>
		<g>
			
				<line fill="none" stroke="#888888" stroke-width="0.5" stroke-linejoin="round" stroke-miterlimit="10" x1="781.527" y1="124.697" x2="781.527" y2="128.76"/>
			
				<line fill="none" stroke="#888888" stroke-width="0.5" stroke-linejoin="round" stroke-miterlimit="10" x1="836.743" y1="124.666" x2="836.743" y2="128.729"/>
		</g>
		<g>
			
				<line fill="none" stroke="#888888" stroke-width="0.5" stroke-linejoin="round" stroke-miterlimit="10" x1="893" y1="124.666" x2="893" y2="128.729"/>
		</g>
		<g>
			
				<line fill="none" stroke="#888888" stroke-width="0.5" stroke-linejoin="round" stroke-miterlimit="10" x1="339.005" y1="124.677" x2="339.005" y2="128.74"/>
			
				<line fill="none" stroke="#888888" stroke-width="0.5" stroke-linejoin="round" stroke-miterlimit="10" x1="394.221" y1="124.645" x2="394.221" y2="128.708"/>
			
				<line fill="none" stroke="#888888" stroke-width="0.5" stroke-linejoin="round" stroke-miterlimit="10" x1="449.7" y1="124.614" x2="449.7" y2="128.677"/>
			
				<line fill="none" stroke="#888888" stroke-width="0.5" stroke-linejoin="round" stroke-miterlimit="10" x1="505.289" y1="124.583" x2="505.289" y2="128.646"/>
		</g>
	</g>
	<g>
		<g>
			<line fill="none" stroke="#DDDDDD" stroke-miterlimit="10" x1="946.13" y1="248.666" x2="944.63" y2="248.666"/>
			
				<line fill="none" stroke="#DDDDDD" stroke-miterlimit="10" stroke-dasharray="3.0076,3.0076" x1="941.623" y1="248.666" x2="82.94" y2="248.666"/>
			<line fill="none" stroke="#DDDDDD" stroke-miterlimit="10" x1="81.436" y1="248.666" x2="79.936" y2="248.666"/>
		</g>
		<g>
			<line fill="none" stroke="#DDDDDD" stroke-miterlimit="10" x1="946.13" y1="393.153" x2="944.63" y2="393.153"/>
			
				<line fill="none" stroke="#DDDDDD" stroke-miterlimit="10" stroke-dasharray="3.0076,3.0076" x1="941.623" y1="393.153" x2="82.94" y2="393.153"/>
			<line fill="none" stroke="#DDDDDD" stroke-miterlimit="10" x1="81.436" y1="393.153" x2="79.936" y2="393.153"/>
		</g>
		<g>
			<line fill="none" stroke="#DDDDDD" stroke-miterlimit="10" x1="946.13" y1="538.072" x2="944.63" y2="538.072"/>
			
				<line fill="none" stroke="#DDDDDD" stroke-miterlimit="10" stroke-dasharray="3.0076,3.0076" x1="941.623" y1="538.072" x2="82.94" y2="538.072"/>
			<line fill="none" stroke="#DDDDDD" stroke-miterlimit="10" x1="81.436" y1="538.072" x2="79.936" y2="538.072"/>
		</g>
		<line fill="none" stroke="#666666" stroke-miterlimit="10" x1="946.13" y1="682.775" x2="79.936" y2="682.775"/>
	</g>
	<rect x="347.333" y="142" fill="none" width="254" height="39"/>
	<line fill="none" stroke="#FFCB57" stroke-miterlimit="10" x1="356.287" y1="420" x2="851.619" y2="260"/>
	<rect x="294.943" y="363.5" fill="#F7B2E5" width="32.804" height="318.333"/>
	<rect x="294.943" y="458.58" fill="#5CC1C4" width="32.804" height="76.28"/>
	<rect x="294.943" y="534.91" fill="#FF9FAE" width="32.804" height="73.101"/>
	<rect x="294.943" y="608.214" fill="#94B5EB" width="32.804" height="47.675"/>
	<g>
		<rect x="893.53" y="155.959" fill="#F7B2E5" width="32.804" height="526.817"/>
		<rect x="893.53" y="155.197" fill="#FFD08C" width="32.804" height="184.386"/>
		<rect x="893.53" y="339.898" fill="#5CC1C4" width="32.804" height="105.363"/>
		<rect x="893.53" y="445.29" fill="#FF9FAE" width="32.804" height="115.9"/>
		<rect x="893.53" y="656.34" fill="#8ACF9F" width="32.804" height="15.804"/>
		<rect x="893.53" y="561.407" fill="#94B5EB" width="32.804" height="94.827"/>
	</g>
	<rect x="294.943" y="655.809" fill="#8ACF9F" width="32.804" height="12.713"/>
	<line fill="none" stroke="#5CC1C4" stroke-miterlimit="10" x1="356.287" y1="501" x2="854.55" y2="394"/>
	<line fill="none" stroke="#FF9FAE" stroke-miterlimit="10" x1="357.264" y1="571" x2="853.573" y2="499"/>
	<line fill="none" stroke="#94B5EB" stroke-miterlimit="10" x1="354.333" y1="626" x2="854.55" y2="593"/>
	<line fill="none" stroke="#8ACF9F" stroke-miterlimit="10" x1="357.266" y1="664.002" x2="852.599" y2="661.004"/>
	<line fill="none" stroke="#F7B2E5" stroke-miterlimit="10" x1="359.218" y1="678" x2="852.819" y2="678"/>
	<rect style="opacity:0.6;" x="579.648" y="314.597" fill="#FFFFFF" width="91.37" height="40.438"/>
	<rect style="opacity:0.6;" x="573.456" y="435.331" fill="#FFFFFF" width="107.586" height="19.352"/>
	<rect style="opacity:0.6;" x="571.541" y="524.318" fill="#FFFFFF" width="103.751" height="19.352"/>
	<rect style="opacity:0.6;" x="576" y="598.858" fill="#FFFFFF" width="92.292" height="19.352"/>
	<rect style="opacity:0.6;" x="569.309" y="651.151" fill="#FFFFFF" width="100.982" height="19.352"/>
	<rect x="294.943" y="363.237" fill="#FFD08C" width="32.804" height="95.349"/>
	<polyline fill="none" stroke="#F8766D" stroke-width="2" stroke-linejoin="round" stroke-miterlimit="10" points="117.577,432.8 
		172.966,396.81 228.354,326.317 283.742,329.017 339.13,398.968 394.519,368.936 449.907,307.617 505.295,314.143 560.683,287.962 
		616.071,238.584 671.46,218.541 726.848,247.346 782.236,201.328 837.643,159.304 893.031,155.375 	"/>
</g>
<style>
#g-endowment-values-1200-1150-img rect, #g-endowment-values-1200-1150-img circle, #g-endowment-values-1200-1150-img path, #g-endowment-values-1200-1150-img line, #g-endowment-values-1200-1150-img polyline { vector-effect: non-scaling-stroke; }
</style>
</svg>

