<?xml version="1.0" encoding="utf-8"?>
<!-- Generator: Adobe Illustrator 23.1.1, SVG Export Plug-In . SVG Version: 6.00 Build 0)  -->
<svg version="1.2" baseProfile="tiny" id="g-ivies-endowments-1200-img" xmlns="http://www.w3.org/2000/svg" xmlns:xlink="http://www.w3.org/1999/xlink"
	 x="0px" y="0px" viewBox="0 0 1100 540" xml:space="preserve">
<g>
	<rect style="opacity:0.2;" x="255.751" y="149.672" fill="#CCCCCC" width="122.746" height="345.992"/>
	
		<line fill="none" stroke="#DDDDDD" stroke-miterlimit="10" stroke-dasharray="3" x1="87.429" y1="411.289" x2="1025.773" y2="411.289"/>
	
		<line fill="none" stroke="#DDDDDD" stroke-miterlimit="10" stroke-dasharray="3" x1="87.429" y1="326.056" x2="1025.773" y2="326.056"/>
	
		<line fill="none" stroke="#DDDDDD" stroke-miterlimit="10" stroke-dasharray="3" x1="87.429" y1="240.828" x2="1025.773" y2="240.828"/>
	
		<line fill="none" stroke="#DDDDDD" stroke-miterlimit="10" stroke-dasharray="3" x1="124.774" y1="155.595" x2="1025.773" y2="155.595"/>
	
		<line fill="none" stroke="#FFFFFF" stroke-width="1.07" stroke-linejoin="round" stroke-miterlimit="10" x1="989.098" y1="497.459" x2="989.098" y2="131.015"/>
	<polyline fill="none" stroke="#A8A8A8" stroke-width="0.5" stroke-linejoin="round" stroke-miterlimit="10" points="
		133.175,279.405 194.319,250.066 255.464,198.961 316.588,181.79 377.733,274.617 438.857,261.643 500.002,223.672 
		561.146,234.472 622.271,217.903 683.415,186.031 744.56,175.919 805.684,192.537 866.829,180.344 927.953,162.125 
		989.098,147.672 	"/>
	<polyline fill="none" stroke="#A8A8A8" stroke-width="0.5" stroke-linejoin="round" stroke-miterlimit="10" points="
		133.175,401.003 194.319,385.337 255.464,368.273 316.588,362.484 377.733,395.099 438.857,379.039 500.002,356.153 
		561.146,357.065 622.271,345.828 683.415,322.291 744.56,307.75 805.684,312.456 866.829,298.401 927.953,280.744 989.098,279.182 
			"/>
	<polyline fill="none" stroke="#A8A8A8" stroke-width="0.5" stroke-linejoin="round" stroke-miterlimit="10" points="
		133.175,366.754 194.319,342.844 255.464,304.49 316.588,301.598 377.733,357.366 438.857,354.59 500.002,331.389 561.146,331.641 
		622.271,319.409 683.415,292.86 744.56,278.566 805.684,279.958 866.829,264.893 927.953,246.354 989.098,238.31 	"/>
	<polyline fill="none" stroke="#A8A8A8" stroke-width="0.5" stroke-linejoin="round" stroke-miterlimit="10" points="
		133.175,459.275 194.319,451.23 255.464,441.59 316.588,443.574 377.733,452.448 438.857,448.203 500.002,440.42 561.146,435.714 
		622.271,426.849 683.415,414.846 744.56,410.149 805.684,405.191 866.829,392.425 927.953,379.092 989.098,371.659 	"/>
	<polyline fill="none" stroke="#A8A8A8" stroke-width="0.5" stroke-linejoin="round" stroke-miterlimit="10" points="
		133.175,480.803 194.319,478.051 255.464,472.962 316.588,472.287 377.733,478.226 438.857,477.673 500.002,474.689 
		561.146,474.995 622.271,473.762 683.415,470.953 744.56,470.322 805.684,471.259 866.829,468.857 927.953,465.8 989.098,462.622 	
		"/>
	<polyline fill="none" stroke="#A8A8A8" stroke-width="0.5" stroke-linejoin="round" stroke-miterlimit="10" points="
		133.175,473.384 194.319,470.162 255.464,464.471 316.588,465.32 377.733,472.443 438.857,470.963 500.002,467.426 
		561.146,466.805 622.271,464.694 683.415,458.435 744.56,456.771 805.684,458.382 866.829,454.272 927.953,449.692 
		989.098,447.669 	"/>
	<polyline fill="none" stroke="#A8A8A8" stroke-width="0.5" stroke-linejoin="round" stroke-miterlimit="10" points="
		133.175,464.325 194.319,459.687 255.464,450.284 316.588,450.619 377.733,462.715 438.857,459.197 500.002,453.394 
		561.146,454.355 622.271,451.584 683.415,446.315 744.56,445.059 805.684,447.446 866.829,440.978 927.953,437.951 
		989.098,437.072 	"/>
	<polyline fill="none" stroke="#F8766D" stroke-width="2" stroke-linejoin="round" stroke-miterlimit="10" points="133.175,452.278 
		194.319,445.908 255.464,433.434 316.588,433.914 377.733,446.291 438.857,440.978 500.002,430.125 561.146,431.279 
		622.271,426.646 683.415,417.907 744.56,414.366 805.684,419.46 866.829,411.319 927.953,403.881 989.098,403.182 	"/>
	<g>
		<g>
			
				<line fill="none" stroke="#888888" stroke-width="0.5" stroke-linejoin="round" stroke-miterlimit="10" x1="133.373" y1="122.74" x2="133.373" y2="125.172"/>
			
				<line fill="none" stroke="#888888" stroke-width="0.5" stroke-linejoin="round" stroke-miterlimit="10" x1="194.349" y1="122.721" x2="194.349" y2="125.153"/>
			
				<line fill="none" stroke="#888888" stroke-width="0.5" stroke-linejoin="round" stroke-miterlimit="10" x1="255.616" y1="122.703" x2="255.616" y2="125.134"/>
			
				<line fill="none" stroke="#888888" stroke-width="0.5" stroke-linejoin="round" stroke-miterlimit="10" x1="317.004" y1="122.684" x2="317.004" y2="125.115"/>
		</g>
		<g>
			
				<line fill="none" stroke="#888888" stroke-width="0.5" stroke-linejoin="round" stroke-miterlimit="10" x1="622.167" y1="122.74" x2="622.167" y2="125.172"/>
			
				<line fill="none" stroke="#888888" stroke-width="0.5" stroke-linejoin="round" stroke-miterlimit="10" x1="683.143" y1="122.721" x2="683.143" y2="125.153"/>
			
				<line fill="none" stroke="#888888" stroke-width="0.5" stroke-linejoin="round" stroke-miterlimit="10" x1="744.41" y1="122.703" x2="744.41" y2="125.134"/>
			
				<line fill="none" stroke="#888888" stroke-width="0.5" stroke-linejoin="round" stroke-miterlimit="10" x1="805.798" y1="122.684" x2="805.798" y2="125.115"/>
		</g>
		<g>
			
				<line fill="none" stroke="#888888" stroke-width="0.5" stroke-linejoin="round" stroke-miterlimit="10" x1="866.599" y1="122.653" x2="866.599" y2="125.084"/>
			
				<line fill="none" stroke="#888888" stroke-width="0.5" stroke-linejoin="round" stroke-miterlimit="10" x1="927.576" y1="122.634" x2="927.576" y2="125.066"/>
		</g>
		<g>
			
				<line fill="none" stroke="#888888" stroke-width="0.5" stroke-linejoin="round" stroke-miterlimit="10" x1="989.702" y1="122.634" x2="989.702" y2="125.066"/>
		</g>
		<g>
			
				<line fill="none" stroke="#888888" stroke-width="0.5" stroke-linejoin="round" stroke-miterlimit="10" x1="377.912" y1="122.64" x2="377.912" y2="125.072"/>
			
				<line fill="none" stroke="#888888" stroke-width="0.5" stroke-linejoin="round" stroke-miterlimit="10" x1="438.888" y1="122.622" x2="438.888" y2="125.053"/>
			
				<line fill="none" stroke="#888888" stroke-width="0.5" stroke-linejoin="round" stroke-miterlimit="10" x1="500.155" y1="122.603" x2="500.155" y2="125.034"/>
			
				<line fill="none" stroke="#888888" stroke-width="0.5" stroke-linejoin="round" stroke-miterlimit="10" x1="561.543" y1="122.584" x2="561.543" y2="125.016"/>
		</g>
	</g>
	<polygon fill="none" points="84.247,403.027 87.429,403.027 87.429,403.027 84.247,403.027 	"/>
</g>
<style>
#g-ivies-endowments-1200-img rect, #g-ivies-endowments-1200-img circle, #g-ivies-endowments-1200-img path, #g-ivies-endowments-1200-img line, #g-ivies-endowments-1200-img polyline { vector-effect: non-scaling-stroke; }
</style>
</svg>

