<?xml version="1.0" encoding="utf-8"?>
<!-- Generator: Adobe Illustrator 23.1.1, SVG Export Plug-In . SVG Version: 6.00 Build 0)  -->
<svg version="1.2" baseProfile="tiny" id="g-ivies-endowments-300-img" xmlns="http://www.w3.org/2000/svg" xmlns:xlink="http://www.w3.org/1999/xlink"
	 x="0px" y="0px" viewBox="0 0 300 590" xml:space="preserve">
<g>
	
		<line fill="none" stroke="#DDDDDD" stroke-miterlimit="10" stroke-dasharray="3" x1="37.027" y1="432.285" x2="290.75" y2="432.285"/>
	
		<line fill="none" stroke="#DDDDDD" stroke-miterlimit="10" stroke-dasharray="3" x1="37.027" y1="327.719" x2="290.75" y2="327.719"/>
	
		<line fill="none" stroke="#DDDDDD" stroke-miterlimit="10" stroke-dasharray="3" x1="37.027" y1="223.159" x2="290.509" y2="223.159"/>
	
		<line fill="none" stroke="#DDDDDD" stroke-miterlimit="10" stroke-dasharray="3" x1="37.027" y1="118.593" x2="290.509" y2="118.593"/>
	<path fill="none" stroke="#FFFFFF" stroke-width="1.07" stroke-linejoin="round" stroke-miterlimit="10" d="M128.63,88.439"/>
	<path fill="none" stroke="#FFFFFF" stroke-width="1.07" stroke-linejoin="round" stroke-miterlimit="10" d="M128.63,538"/>
	<path fill="none" stroke="#FFFFFF" stroke-width="1.07" stroke-linejoin="round" stroke-miterlimit="10" d="M146.691,88.439"/>
	<path fill="none" stroke="#FFFFFF" stroke-width="1.07" stroke-linejoin="round" stroke-miterlimit="10" d="M146.691,538"/>
	<path fill="none" stroke="#FFFFFF" stroke-width="1.07" stroke-linejoin="round" stroke-miterlimit="10" d="M164.753,88.439"/>
	<path fill="none" stroke="#FFFFFF" stroke-width="1.07" stroke-linejoin="round" stroke-miterlimit="10" d="M164.753,538"/>
	<path fill="none" stroke="#FFFFFF" stroke-width="1.07" stroke-linejoin="round" stroke-miterlimit="10" d="M182.809,88.439"/>
	<path fill="none" stroke="#FFFFFF" stroke-width="1.07" stroke-linejoin="round" stroke-miterlimit="10" d="M182.809,538"/>
	<path fill="none" stroke="#FFFFFF" stroke-width="1.07" stroke-linejoin="round" stroke-miterlimit="10" d="M200.87,88.439"/>
	<path fill="none" stroke="#FFFFFF" stroke-width="1.07" stroke-linejoin="round" stroke-miterlimit="10" d="M200.87,538"/>
	<path fill="none" stroke="#FFFFFF" stroke-width="1.07" stroke-linejoin="round" stroke-miterlimit="10" d="M218.932,88.439"/>
	<path fill="none" stroke="#FFFFFF" stroke-width="1.07" stroke-linejoin="round" stroke-miterlimit="10" d="M218.932,538"/>
	<path fill="none" stroke="#FFFFFF" stroke-width="1.07" stroke-linejoin="round" stroke-miterlimit="10" d="M236.988,88.439"/>
	<path fill="none" stroke="#FFFFFF" stroke-width="1.07" stroke-linejoin="round" stroke-miterlimit="10" d="M236.988,538"/>
	<path fill="none" stroke="#FFFFFF" stroke-width="1.07" stroke-linejoin="round" stroke-miterlimit="10" d="M255.049,88.439"/>
	<path fill="none" stroke="#FFFFFF" stroke-width="1.07" stroke-linejoin="round" stroke-miterlimit="10" d="M255.049,538"/>
	<path fill="none" stroke="#FFFFFF" stroke-width="1.07" stroke-linejoin="round" stroke-miterlimit="10" d="M273.105,88.439"/>
	<path fill="none" stroke="#FFFFFF" stroke-width="1.07" stroke-linejoin="round" stroke-miterlimit="10" d="M273.105,538"/>
	<rect style="opacity:0.2;" x="74.542" y="88.794" fill="#CCCCCC" width="36.258" height="449.206"/>
	<polyline fill="none" stroke="#A8A8A8" stroke-width="0.5" stroke-linejoin="round" stroke-miterlimit="10" points="
		38.333,270.487 56.395,234.493 74.457,171.796 92.512,150.73 110.574,264.612 128.63,248.695 146.691,202.112 164.753,215.362 
		182.809,195.034 200.87,155.933 218.932,143.528 236.988,163.915 255.049,148.957 273.105,126.605 291.167,108.873 	"/>
	<polyline fill="none" stroke="#A8A8A8" stroke-width="0.5" stroke-linejoin="round" stroke-miterlimit="10" points="
		38.333,419.666 56.395,400.446 74.457,379.511 92.512,372.41 110.574,412.422 128.63,392.72 146.691,364.642 164.753,365.761 
		182.809,351.975 200.87,323.1 218.932,305.261 236.988,311.035 255.049,293.791 273.105,272.13 291.167,270.213 	"/>
	<polyline fill="none" stroke="#A8A8A8" stroke-width="0.5" stroke-linejoin="round" stroke-miterlimit="10" points="
		38.333,377.648 56.395,348.315 74.457,301.261 92.512,297.713 110.574,366.13 128.63,362.725 146.691,334.261 164.753,334.571 
		182.809,319.565 200.87,286.993 218.932,269.457 236.988,271.165 255.049,252.683 273.105,229.939 291.167,220.07 	"/>
	<polyline fill="none" stroke="#A8A8A8" stroke-width="0.5" stroke-linejoin="round" stroke-miterlimit="10" points="
		38.333,491.155 56.395,481.285 74.457,469.458 92.512,471.893 110.574,482.78 128.63,477.571 146.691,468.023 164.753,462.25 
		182.809,451.375 200.87,436.648 218.932,430.886 236.988,424.803 255.049,409.142 273.105,392.785 291.167,383.666 	"/>
	<polyline fill="none" stroke="#A8A8A8" stroke-width="0.5" stroke-linejoin="round" stroke-miterlimit="10" points="
		38.333,517.565 56.395,514.19 74.457,507.946 92.512,507.119 110.574,514.405 128.63,513.726 146.691,510.065 164.753,510.44 
		182.809,508.928 200.87,505.482 218.932,504.708 236.988,505.857 255.049,502.911 273.105,499.161 291.167,495.262 	"/>
	<polyline fill="none" stroke="#A8A8A8" stroke-width="0.5" stroke-linejoin="round" stroke-miterlimit="10" points="
		38.333,508.464 56.395,504.512 74.457,497.53 92.512,498.571 110.574,507.309 128.63,505.494 146.691,501.155 164.753,500.393 
		182.809,497.803 200.87,490.125 218.932,488.083 236.988,490.059 255.049,485.018 273.105,479.399 291.167,476.916 	"/>
	<polyline fill="none" stroke="#A8A8A8" stroke-width="0.5" stroke-linejoin="round" stroke-miterlimit="10" points="
		38.333,497.351 56.395,491.661 74.457,480.125 92.512,480.535 110.574,495.375 128.63,491.059 146.691,483.94 164.753,485.119 
		182.809,481.72 200.87,475.256 218.932,473.714 236.988,476.643 255.049,468.708 273.105,464.994 291.167,463.916 	"/>
	<polyline fill="none" stroke="#F8766D" stroke-width="2" stroke-linejoin="round" stroke-miterlimit="10" points="38.333,482.571 
		56.395,474.756 74.457,459.452 92.512,460.041 110.574,475.226 128.63,468.708 146.691,455.392 164.753,456.809 182.809,451.125 
		200.87,440.404 218.932,436.059 236.988,442.309 255.049,432.321 273.105,423.196 291.167,422.339 	"/>
	<g>
		<g>
			
				<line fill="none" stroke="#888888" stroke-width="0.5" stroke-linejoin="round" stroke-miterlimit="10" x1="38" y1="81.583" x2="38" y2="85.646"/>
			
				<line fill="none" stroke="#888888" stroke-width="0.5" stroke-linejoin="round" stroke-miterlimit="10" x1="56.063" y1="81.552" x2="56.063" y2="85.615"/>
			
				<line fill="none" stroke="#888888" stroke-width="0.5" stroke-linejoin="round" stroke-miterlimit="10" x1="74.211" y1="81.521" x2="74.211" y2="85.584"/>
			
				<line fill="none" stroke="#888888" stroke-width="0.5" stroke-linejoin="round" stroke-miterlimit="10" x1="92.396" y1="81.489" x2="92.396" y2="85.552"/>
		</g>
		<g>
			
				<line fill="none" stroke="#888888" stroke-width="0.5" stroke-linejoin="round" stroke-miterlimit="10" x1="182.793" y1="81.583" x2="182.793" y2="85.646"/>
			
				<line fill="none" stroke="#888888" stroke-width="0.5" stroke-linejoin="round" stroke-miterlimit="10" x1="200.856" y1="81.552" x2="200.856" y2="85.615"/>
			
				<line fill="none" stroke="#888888" stroke-width="0.5" stroke-linejoin="round" stroke-miterlimit="10" x1="219.005" y1="81.521" x2="219.005" y2="85.584"/>
			
				<line fill="none" stroke="#888888" stroke-width="0.5" stroke-linejoin="round" stroke-miterlimit="10" x1="237.189" y1="81.489" x2="237.189" y2="85.552"/>
		</g>
		<g>
			
				<line fill="none" stroke="#888888" stroke-width="0.5" stroke-linejoin="round" stroke-miterlimit="10" x1="255.2" y1="81.437" x2="255.2" y2="85.5"/>
			
				<line fill="none" stroke="#888888" stroke-width="0.5" stroke-linejoin="round" stroke-miterlimit="10" x1="273.263" y1="81.406" x2="273.263" y2="85.469"/>
		</g>
		<g>
			
				<line fill="none" stroke="#888888" stroke-width="0.5" stroke-linejoin="round" stroke-miterlimit="10" x1="291.666" y1="81.406" x2="291.666" y2="85.469"/>
		</g>
		<g>
			
				<line fill="none" stroke="#888888" stroke-width="0.5" stroke-linejoin="round" stroke-miterlimit="10" x1="110.439" y1="81.416" x2="110.439" y2="85.479"/>
			
				<line fill="none" stroke="#888888" stroke-width="0.5" stroke-linejoin="round" stroke-miterlimit="10" x1="128.501" y1="81.385" x2="128.501" y2="85.448"/>
			
				<line fill="none" stroke="#888888" stroke-width="0.5" stroke-linejoin="round" stroke-miterlimit="10" x1="146.65" y1="81.354" x2="146.65" y2="85.417"/>
			
				<line fill="none" stroke="#888888" stroke-width="0.5" stroke-linejoin="round" stroke-miterlimit="10" x1="164.835" y1="81.323" x2="164.835" y2="85.386"/>
		</g>
	</g>
</g>
<style>
#g-ivies-endowments-300-img rect, #g-ivies-endowments-300-img circle, #g-ivies-endowments-300-img path, #g-ivies-endowments-300-img line, #g-ivies-endowments-300-img polyline { vector-effect: non-scaling-stroke; }
</style>
</svg>

