<?xml version="1.0" encoding="utf-8"?>
<!-- Generator: Adobe Illustrator 23.1.1, SVG Export Plug-In . SVG Version: 6.00 Build 0)  -->
<svg version="1.2" baseProfile="tiny" id="g-ivies-endowments-700-img" xmlns="http://www.w3.org/2000/svg" xmlns:xlink="http://www.w3.org/1999/xlink"
	 x="0px" y="0px" viewBox="0 0 700 530" xml:space="preserve">
<g>
	<rect style="opacity:0.2;" x="163.567" y="107.784" fill="#CCCCCC" width="76.744" height="382.526"/>
	<line fill="none" stroke="#DDDDDD" stroke-miterlimit="10" stroke-dasharray="3" x1="83.124" y1="390.288" x2="645" y2="390.288"/>
	<line fill="none" stroke="#DDDDDD" stroke-miterlimit="10" stroke-dasharray="3" x1="83.124" y1="301.244" x2="645" y2="301.244"/>
	<line fill="none" stroke="#DDDDDD" stroke-miterlimit="10" stroke-dasharray="3" x1="83.124" y1="212.204" x2="645" y2="212.204"/>
	<line fill="none" stroke="#DDDDDD" stroke-miterlimit="10" stroke-dasharray="3" x1="83.124" y1="123.16" x2="645" y2="123.16"/>
	<polyline fill="none" stroke="#A8A8A8" stroke-width="0.5" stroke-linejoin="round" stroke-miterlimit="10" points="86.93,379.542 
		125.159,363.175 163.387,345.348 201.604,339.3 239.832,373.373 278.049,356.595 316.277,332.686 354.506,333.638 392.723,321.899 
		430.951,297.31 469.18,282.119 507.396,287.036 545.625,272.351 583.841,253.906 622.07,252.274 	"/>
	<polyline fill="none" stroke="#A8A8A8" stroke-width="0.5" stroke-linejoin="round" stroke-miterlimit="10" points="86.93,343.761 
		125.159,318.782 163.387,278.713 201.604,275.692 239.832,333.953 278.049,331.053 316.277,306.814 354.506,307.078 
		392.723,294.299 430.951,266.563 469.18,251.63 507.396,253.085 545.625,237.346 583.841,217.978 622.07,209.574 	"/>
	<polyline fill="none" stroke="#A8A8A8" stroke-width="0.5" stroke-linejoin="round" stroke-miterlimit="10" points="86.93,440.419 
		125.159,432.014 163.387,421.943 201.604,424.016 239.832,433.287 278.049,428.851 316.277,420.721 354.506,415.804 
		392.723,406.544 430.951,394.003 469.18,389.097 507.396,383.916 545.625,370.58 583.841,356.651 622.07,348.886 	"/>
	<polyline fill="none" stroke="#A8A8A8" stroke-width="0.5" stroke-linejoin="round" stroke-miterlimit="10" points="86.93,462.909 
		125.159,460.035 163.387,454.718 201.604,454.013 239.832,460.217 278.049,459.64 316.277,456.522 354.506,456.842 
		392.723,455.554 430.951,452.619 469.18,451.96 507.396,452.939 545.625,450.429 583.841,447.236 622.07,443.916 	"/>
	<polyline fill="none" stroke="#A8A8A8" stroke-width="0.5" stroke-linejoin="round" stroke-miterlimit="10" points="86.93,455.159 
		125.159,451.793 163.387,445.847 201.604,446.734 239.832,454.175 278.049,452.629 316.277,448.934 354.506,448.285 
		392.723,446.08 430.951,439.542 469.18,437.803 507.396,439.486 545.625,435.193 583.841,430.408 622.07,428.294 	"/>
	<polyline fill="none" stroke="#A8A8A8" stroke-width="0.5" stroke-linejoin="round" stroke-miterlimit="10" points="86.93,445.695 
		125.159,440.849 163.387,431.026 201.604,431.376 239.832,444.012 278.049,440.337 316.277,434.275 354.506,435.279 
		392.723,432.384 430.951,426.88 469.18,425.567 507.396,428.061 545.625,421.304 583.841,418.141 622.07,417.224 	"/>
	<polyline fill="none" stroke="#F8766D" stroke-width="2" stroke-linejoin="round" stroke-miterlimit="10" points="86.93,433.109 
		125.159,426.454 163.387,413.422 201.604,413.924 239.832,426.854 278.049,421.304 316.277,409.965 354.506,411.171 
		392.723,406.331 430.951,397.202 469.18,393.501 507.396,398.824 545.625,390.318 583.841,382.548 622.07,381.818 	"/>
	<polyline fill="none" stroke="#A8A8A8" stroke-width="0.5" stroke-linejoin="round" stroke-miterlimit="10" points="86.93,252.507 
		125.159,221.855 163.387,168.466 201.604,150.527 239.832,247.504 278.049,233.95 316.277,194.281 354.506,205.564 
		392.723,188.254 430.951,154.957 469.18,144.394 507.396,161.754 545.625,149.016 583.841,129.983 622.07,114.883 	"/>
	<g>
		<g>
			
				<line fill="none" stroke="#888888" stroke-width="0.5" stroke-linejoin="round" stroke-miterlimit="10" x1="85.663" y1="92.583" x2="85.663" y2="96.646"/>
			
				<line fill="none" stroke="#888888" stroke-width="0.5" stroke-linejoin="round" stroke-miterlimit="10" x1="123.878" y1="92.552" x2="123.878" y2="96.615"/>
			
				<line fill="none" stroke="#888888" stroke-width="0.5" stroke-linejoin="round" stroke-miterlimit="10" x1="162.274" y1="92.521" x2="162.274" y2="96.584"/>
			
				<line fill="none" stroke="#888888" stroke-width="0.5" stroke-linejoin="round" stroke-miterlimit="10" x1="200.747" y1="92.489" x2="200.747" y2="96.552"/>
		</g>
		<g>
			
				<line fill="none" stroke="#888888" stroke-width="0.5" stroke-linejoin="round" stroke-miterlimit="10" x1="391.995" y1="92.583" x2="391.995" y2="96.646"/>
			
				<line fill="none" stroke="#888888" stroke-width="0.5" stroke-linejoin="round" stroke-miterlimit="10" x1="430.21" y1="92.552" x2="430.21" y2="96.615"/>
			
				<line fill="none" stroke="#888888" stroke-width="0.5" stroke-linejoin="round" stroke-miterlimit="10" x1="468.606" y1="92.521" x2="468.606" y2="96.584"/>
			
				<line fill="none" stroke="#888888" stroke-width="0.5" stroke-linejoin="round" stroke-miterlimit="10" x1="507.079" y1="92.489" x2="507.079" y2="96.552"/>
		</g>
		<g>
			
				<line fill="none" stroke="#888888" stroke-width="0.5" stroke-linejoin="round" stroke-miterlimit="10" x1="545.184" y1="92.437" x2="545.184" y2="96.5"/>
			
				<line fill="none" stroke="#888888" stroke-width="0.5" stroke-linejoin="round" stroke-miterlimit="10" x1="583.398" y1="92.406" x2="583.398" y2="96.469"/>
		</g>
		<g>
			
				<line fill="none" stroke="#888888" stroke-width="0.5" stroke-linejoin="round" stroke-miterlimit="10" x1="622.333" y1="92.406" x2="622.333" y2="96.469"/>
		</g>
		<g>
			
				<line fill="none" stroke="#888888" stroke-width="0.5" stroke-linejoin="round" stroke-miterlimit="10" x1="238.919" y1="92.416" x2="238.919" y2="96.479"/>
			
				<line fill="none" stroke="#888888" stroke-width="0.5" stroke-linejoin="round" stroke-miterlimit="10" x1="277.133" y1="92.385" x2="277.133" y2="96.448"/>
			
				<line fill="none" stroke="#888888" stroke-width="0.5" stroke-linejoin="round" stroke-miterlimit="10" x1="315.529" y1="92.354" x2="315.529" y2="96.417"/>
			
				<line fill="none" stroke="#888888" stroke-width="0.5" stroke-linejoin="round" stroke-miterlimit="10" x1="354.002" y1="92.323" x2="354.002" y2="96.386"/>
		</g>
	</g>
</g>
<style>
#g-ivies-endowments-700-img rect, #g-ivies-endowments-700-img circle, #g-ivies-endowments-700-img path, #g-ivies-endowments-700-img line, #g-ivies-endowments-700-img polyline { vector-effect: non-scaling-stroke; }
</style>
</svg>

