<?xml version="1.0" encoding="utf-8"?>
<!-- Generator: Adobe Illustrator 23.1.1, SVG Export Plug-In . SVG Version: 6.00 Build 0)  -->
<svg version="1.2" baseProfile="tiny" id="g-ivies-endowments-1200-img" xmlns="http://www.w3.org/2000/svg" xmlns:xlink="http://www.w3.org/1999/xlink"
	 x="0px" y="0px" viewBox="0 0 1100 550" xml:space="preserve">
<g>
	<rect style="opacity:0.2;" x="255.751" y="157.672" fill="#CCCCCC" width="122.746" height="345.992"/>
	
		<line fill="none" stroke="#DDDDDD" stroke-miterlimit="10" stroke-dasharray="3" x1="87.429" y1="419.289" x2="1025.773" y2="419.289"/>
	
		<line fill="none" stroke="#DDDDDD" stroke-miterlimit="10" stroke-dasharray="3" x1="87.429" y1="334.056" x2="1025.773" y2="334.056"/>
	
		<line fill="none" stroke="#DDDDDD" stroke-miterlimit="10" stroke-dasharray="3" x1="87.429" y1="248.828" x2="1025.773" y2="248.828"/>
	
		<line fill="none" stroke="#DDDDDD" stroke-miterlimit="10" stroke-dasharray="3" x1="124.774" y1="163.595" x2="1025.773" y2="163.595"/>
	
		<line fill="none" stroke="#FFFFFF" stroke-width="1.07" stroke-linejoin="round" stroke-miterlimit="10" x1="989.098" y1="505.459" x2="989.098" y2="139.015"/>
	<polyline fill="none" stroke="#A8A8A8" stroke-width="0.5" stroke-linejoin="round" stroke-miterlimit="10" points="
		133.175,287.405 194.319,258.066 255.464,206.961 316.588,189.79 377.733,282.617 438.857,269.643 500.002,231.672 
		561.146,242.472 622.271,225.903 683.415,194.031 744.56,183.919 805.684,200.537 866.829,188.344 927.953,170.125 
		989.098,155.672 	"/>
	<polyline fill="none" stroke="#A8A8A8" stroke-width="0.5" stroke-linejoin="round" stroke-miterlimit="10" points="
		133.175,409.003 194.319,393.337 255.464,376.273 316.588,370.484 377.733,403.099 438.857,387.039 500.002,364.153 
		561.146,365.065 622.271,353.828 683.415,330.291 744.56,315.75 805.684,320.456 866.829,306.401 927.953,288.744 989.098,287.182 
			"/>
	<polyline fill="none" stroke="#A8A8A8" stroke-width="0.5" stroke-linejoin="round" stroke-miterlimit="10" points="
		133.175,374.754 194.319,350.844 255.464,312.49 316.588,309.598 377.733,365.366 438.857,362.59 500.002,339.389 561.146,339.641 
		622.271,327.409 683.415,300.86 744.56,286.566 805.684,287.958 866.829,272.893 927.953,254.354 989.098,246.31 	"/>
	<polyline fill="none" stroke="#A8A8A8" stroke-width="0.5" stroke-linejoin="round" stroke-miterlimit="10" points="
		133.175,467.275 194.319,459.23 255.464,449.59 316.588,451.574 377.733,460.448 438.857,456.203 500.002,448.42 561.146,443.714 
		622.271,434.849 683.415,422.846 744.56,418.149 805.684,413.191 866.829,400.425 927.953,387.092 989.098,379.659 	"/>
	<polyline fill="none" stroke="#A8A8A8" stroke-width="0.5" stroke-linejoin="round" stroke-miterlimit="10" points="
		133.175,488.803 194.319,486.051 255.464,480.962 316.588,480.287 377.733,486.226 438.857,485.673 500.002,482.689 
		561.146,482.995 622.271,481.762 683.415,478.953 744.56,478.322 805.684,479.259 866.829,476.857 927.953,473.8 989.098,470.622 	
		"/>
	<polyline fill="none" stroke="#A8A8A8" stroke-width="0.5" stroke-linejoin="round" stroke-miterlimit="10" points="
		133.175,481.384 194.319,478.162 255.464,472.471 316.588,473.32 377.733,480.443 438.857,478.963 500.002,475.426 
		561.146,474.805 622.271,472.694 683.415,466.435 744.56,464.771 805.684,466.382 866.829,462.272 927.953,457.692 
		989.098,455.669 	"/>
	<polyline fill="none" stroke="#A8A8A8" stroke-width="0.5" stroke-linejoin="round" stroke-miterlimit="10" points="
		133.175,472.325 194.319,467.687 255.464,458.284 316.588,458.619 377.733,470.715 438.857,467.197 500.002,461.394 
		561.146,462.355 622.271,459.584 683.415,454.315 744.56,453.059 805.684,455.446 866.829,448.978 927.953,445.951 
		989.098,445.072 	"/>
	<polyline fill="none" stroke="#F8766D" stroke-width="2" stroke-linejoin="round" stroke-miterlimit="10" points="133.175,460.278 
		194.319,453.908 255.464,441.434 316.588,441.914 377.733,454.291 438.857,448.978 500.002,438.125 561.146,439.279 
		622.271,434.646 683.415,425.907 744.56,422.366 805.684,427.46 866.829,419.319 927.953,411.881 989.098,411.182 	"/>
	<g>
		<g>
			
				<line fill="none" stroke="#888888" stroke-width="0.5" stroke-linejoin="round" stroke-miterlimit="10" x1="133.373" y1="130.74" x2="133.373" y2="133.172"/>
			
				<line fill="none" stroke="#888888" stroke-width="0.5" stroke-linejoin="round" stroke-miterlimit="10" x1="194.349" y1="130.721" x2="194.349" y2="133.153"/>
			
				<line fill="none" stroke="#888888" stroke-width="0.5" stroke-linejoin="round" stroke-miterlimit="10" x1="255.616" y1="130.703" x2="255.616" y2="133.134"/>
			
				<line fill="none" stroke="#888888" stroke-width="0.5" stroke-linejoin="round" stroke-miterlimit="10" x1="317.004" y1="130.684" x2="317.004" y2="133.115"/>
		</g>
		<g>
			
				<line fill="none" stroke="#888888" stroke-width="0.5" stroke-linejoin="round" stroke-miterlimit="10" x1="622.167" y1="130.74" x2="622.167" y2="133.172"/>
			
				<line fill="none" stroke="#888888" stroke-width="0.5" stroke-linejoin="round" stroke-miterlimit="10" x1="683.143" y1="130.721" x2="683.143" y2="133.153"/>
			
				<line fill="none" stroke="#888888" stroke-width="0.5" stroke-linejoin="round" stroke-miterlimit="10" x1="744.41" y1="130.703" x2="744.41" y2="133.134"/>
			
				<line fill="none" stroke="#888888" stroke-width="0.5" stroke-linejoin="round" stroke-miterlimit="10" x1="805.798" y1="130.684" x2="805.798" y2="133.115"/>
		</g>
		<g>
			
				<line fill="none" stroke="#888888" stroke-width="0.5" stroke-linejoin="round" stroke-miterlimit="10" x1="866.599" y1="130.653" x2="866.599" y2="133.084"/>
			
				<line fill="none" stroke="#888888" stroke-width="0.5" stroke-linejoin="round" stroke-miterlimit="10" x1="927.576" y1="130.634" x2="927.576" y2="133.066"/>
		</g>
		<g>
			
				<line fill="none" stroke="#888888" stroke-width="0.5" stroke-linejoin="round" stroke-miterlimit="10" x1="989.702" y1="130.634" x2="989.702" y2="133.066"/>
		</g>
		<g>
			
				<line fill="none" stroke="#888888" stroke-width="0.5" stroke-linejoin="round" stroke-miterlimit="10" x1="377.912" y1="130.64" x2="377.912" y2="133.072"/>
			
				<line fill="none" stroke="#888888" stroke-width="0.5" stroke-linejoin="round" stroke-miterlimit="10" x1="438.888" y1="130.622" x2="438.888" y2="133.053"/>
			
				<line fill="none" stroke="#888888" stroke-width="0.5" stroke-linejoin="round" stroke-miterlimit="10" x1="500.155" y1="130.603" x2="500.155" y2="133.034"/>
			
				<line fill="none" stroke="#888888" stroke-width="0.5" stroke-linejoin="round" stroke-miterlimit="10" x1="561.543" y1="130.584" x2="561.543" y2="133.016"/>
		</g>
	</g>
	<polygon fill="none" points="84.247,411.027 87.429,411.027 87.429,411.027 84.247,411.027 	"/>
</g>
<style>
#g-ivies-endowments-1200-img rect, #g-ivies-endowments-1200-img circle, #g-ivies-endowments-1200-img path, #g-ivies-endowments-1200-img line, #g-ivies-endowments-1200-img polyline { vector-effect: non-scaling-stroke; }
</style>
</svg>

