<?xml version="1.0" encoding="utf-8"?>
<!-- Generator: Adobe Illustrator 23.1.1, SVG Export Plug-In . SVG Version: 6.00 Build 0)  -->
<svg version="1.2" baseProfile="tiny" id="g-revenue-breakdown-300-img" xmlns="http://www.w3.org/2000/svg" xmlns:xlink="http://www.w3.org/1999/xlink"
	 x="0px" y="0px" viewBox="0 0 300 1820" xml:space="preserve">
<g>
	
		<line fill="none" stroke="#FFFFFF" stroke-width="1.07" stroke-linejoin="round" stroke-miterlimit="10" x1="51.451" y1="1465.326" x2="263.891" y2="1465.326"/>
	
	
	
	<rect style="opacity:0.2;" x="75.385" y="1251.914" fill="#CCCCCC" width="29.447" height="212.099"/>
	<rect style="opacity:0.11;" x="120.337" y="1252.14" fill="#FF7F7F" width="29.447" height="212.734"/>
	<rect style="opacity:0.2;" x="72.255" y="972.751" fill="#CCCCCC" width="29.507" height="204.332"/>
	<rect style="opacity:0.11;" x="117.575" y="972.642" fill="#FF7F7F" width="29.507" height="204.496"/>
	
		<line fill="none" stroke="#888888" stroke-width="0.5" stroke-linejoin="round" stroke-miterlimit="10" x1="53.745" y1="891.357" x2="266.637" y2="891.357"/>
	<path fill="none" stroke="#FFFFFF" stroke-width="1.07" stroke-linejoin="round" stroke-miterlimit="10" d="M266.637,826.224"/>
	<path fill="none" stroke="#FFFFFF" stroke-width="1.07" stroke-linejoin="round" stroke-miterlimit="10" d="M53.745,826.224"/>
	<path fill="none" stroke="#FFFFFF" stroke-width="1.07" stroke-linejoin="round" stroke-miterlimit="10" d="M266.637,761.102"/>
	<path fill="none" stroke="#FFFFFF" stroke-width="1.07" stroke-linejoin="round" stroke-miterlimit="10" d="M53.745,761.102"/>
	<path fill="none" stroke="#FFFFFF" stroke-width="1.07" stroke-linejoin="round" stroke-miterlimit="10" d="M266.637,695.98"/>
	<path fill="none" stroke="#FFFFFF" stroke-width="1.07" stroke-linejoin="round" stroke-miterlimit="10" d="M53.745,695.98"/>
	<path fill="none" stroke="#FFFFFF" stroke-width="1.07" stroke-linejoin="round" stroke-miterlimit="10" d="M62.73,901.117"/>
	<path fill="none" stroke="#FFFFFF" stroke-width="1.07" stroke-linejoin="round" stroke-miterlimit="10" d="M77.729,901.117"/>
	<path fill="none" stroke="#FFFFFF" stroke-width="1.07" stroke-linejoin="round" stroke-miterlimit="10" d="M107.704,901.117"/>
	<path fill="none" stroke="#FFFFFF" stroke-width="1.07" stroke-linejoin="round" stroke-miterlimit="10" d="M152.679,901.117"/>
	<path fill="none" stroke="#FFFFFF" stroke-width="1.07" stroke-linejoin="round" stroke-miterlimit="10" d="M167.678,901.117"/>
	<path fill="none" stroke="#FFFFFF" stroke-width="1.07" stroke-linejoin="round" stroke-miterlimit="10" d="M182.678,901.117"/>
	<path fill="none" stroke="#FFFFFF" stroke-width="1.07" stroke-linejoin="round" stroke-miterlimit="10" d="M197.653,901.117"/>
	<path fill="none" stroke="#FFFFFF" stroke-width="1.07" stroke-linejoin="round" stroke-miterlimit="10" d="M212.653,901.117"/>
	<path fill="none" stroke="#FFFFFF" stroke-width="1.07" stroke-linejoin="round" stroke-miterlimit="10" d="M227.653,901.117"/>
	<path fill="none" stroke="#FFFFFF" stroke-width="1.07" stroke-linejoin="round" stroke-miterlimit="10" d="M242.628,901.117"/>
	<path fill="none" stroke="#FFFFFF" stroke-width="1.07" stroke-linejoin="round" stroke-miterlimit="10" d="M257.628,901.117"/>
	<rect style="opacity:0.2;" x="77.751" y="686.791" fill="#CCCCCC" width="29.507" height="203.717"/>
	<rect style="opacity:0.11;" x="122.237" y="686.426" fill="#FF7F7F" width="29.507" height="204.496"/>
	
		<line fill="none" stroke="#888888" stroke-width="0.5" stroke-linejoin="round" stroke-miterlimit="10" x1="53.091" y1="422.249" x2="265.984" y2="422.249"/>
	
		<line fill="none" stroke="#888888" stroke-width="0.5" stroke-linejoin="round" stroke-miterlimit="10" x1="47.597" y1="1176.992" x2="260.489" y2="1176.992"/>
	
		<line fill="none" stroke="#DDDDDD" stroke-miterlimit="10" stroke-dasharray="3" x1="258.688" y1="981.871" x2="44.385" y2="981.871"/>
	
		<line fill="none" stroke="#DDDDDD" stroke-miterlimit="10" stroke-dasharray="3" x1="258.688" y1="1047.098" x2="44.385" y2="1047.098"/>
	
		<line fill="none" stroke="#DDDDDD" stroke-miterlimit="10" stroke-dasharray="3" x1="258.688" y1="1112.521" x2="44.385" y2="1112.521"/>
	<polyline fill="none" stroke="#F8766D" stroke-width="2" stroke-linejoin="round" stroke-miterlimit="10" points="57.233,1082.071 
		72.233,1074.385 87.232,1026.064 102.207,1025.933 117.207,1022.478 132.207,1049.383 147.182,1025.027 162.182,1022.609 
		177.181,1018.248 192.157,1010.693 207.156,1008.346 222.156,1014.077 237.131,1016.878 252.131,1009.001 	"/>
	
		<line fill="none" stroke="#888888" stroke-width="0.5" stroke-linejoin="round" stroke-miterlimit="10" x1="52.78" y1="1464.745" x2="265.673" y2="1464.745"/>
	
		<line fill="none" stroke="#DDDDDD" stroke-miterlimit="10" stroke-dasharray="3" x1="263.872" y1="1269.624" x2="49.569" y2="1269.624"/>
	
		<line fill="none" stroke="#DDDDDD" stroke-miterlimit="10" stroke-dasharray="3" x1="263.872" y1="1334.852" x2="49.569" y2="1334.852"/>
	
		<line fill="none" stroke="#DDDDDD" stroke-miterlimit="10" stroke-dasharray="3" x1="263.872" y1="1400.274" x2="49.569" y2="1400.274"/>
	<polyline fill="none" stroke="#F8766D" stroke-width="2" stroke-linejoin="round" stroke-miterlimit="10" points="60.418,1304.685 
		75.388,1304.958 90.333,1316.338 105.302,1315.122 120.272,1298.188 135.217,1319.932 150.186,1308.824 165.156,1320.131 
		180.101,1329.625 195.07,1338.364 210.04,1340.397 224.985,1337.956 239.954,1339.517 254.924,1336.604 	"/>
	<g>
	</g>
	<g>
		<g>
			
				<line fill="none" stroke="#888888" stroke-width="0.5" stroke-linejoin="round" stroke-miterlimit="10" x1="57.405" y1="1177.167" x2="57.405" y2="1180.823"/>
			
				<line fill="none" stroke="#888888" stroke-width="0.5" stroke-linejoin="round" stroke-miterlimit="10" x1="72.353" y1="1177.139" x2="72.353" y2="1180.795"/>
			
				<line fill="none" stroke="#888888" stroke-width="0.5" stroke-linejoin="round" stroke-miterlimit="10" x1="87.372" y1="1177.11" x2="87.372" y2="1180.767"/>
			
				<line fill="none" stroke="#888888" stroke-width="0.5" stroke-linejoin="round" stroke-miterlimit="10" x1="102.421" y1="1177.082" x2="102.421" y2="1180.739"/>
		</g>
		<g>
			
				<line fill="none" stroke="#888888" stroke-width="0.5" stroke-linejoin="round" stroke-miterlimit="10" x1="177.229" y1="1177.167" x2="177.229" y2="1180.823"/>
			
				<line fill="none" stroke="#888888" stroke-width="0.5" stroke-linejoin="round" stroke-miterlimit="10" x1="192.177" y1="1177.139" x2="192.177" y2="1180.795"/>
			
				<line fill="none" stroke="#888888" stroke-width="0.5" stroke-linejoin="round" stroke-miterlimit="10" x1="207.196" y1="1177.11" x2="207.196" y2="1180.767"/>
			
				<line fill="none" stroke="#888888" stroke-width="0.5" stroke-linejoin="round" stroke-miterlimit="10" x1="222.245" y1="1177.082" x2="222.245" y2="1180.739"/>
		</g>
		<g>
			
				<line fill="none" stroke="#888888" stroke-width="0.5" stroke-linejoin="round" stroke-miterlimit="10" x1="237.15" y1="1177.036" x2="237.15" y2="1180.692"/>
			
				<line fill="none" stroke="#888888" stroke-width="0.5" stroke-linejoin="round" stroke-miterlimit="10" x1="252.098" y1="1177.007" x2="252.098" y2="1180.664"/>
		</g>
		<g>
			
				<line fill="none" stroke="#888888" stroke-width="0.5" stroke-linejoin="round" stroke-miterlimit="10" x1="117.352" y1="1177.017" x2="117.352" y2="1180.673"/>
			
				<line fill="none" stroke="#888888" stroke-width="0.5" stroke-linejoin="round" stroke-miterlimit="10" x1="132.3" y1="1176.989" x2="132.3" y2="1180.645"/>
			
				<line fill="none" stroke="#888888" stroke-width="0.5" stroke-linejoin="round" stroke-miterlimit="10" x1="147.319" y1="1176.961" x2="147.319" y2="1180.617"/>
			
				<line fill="none" stroke="#888888" stroke-width="0.5" stroke-linejoin="round" stroke-miterlimit="10" x1="162.368" y1="1176.932" x2="162.368" y2="1180.589"/>
		</g>
	</g>
	<g>
		<g>
			
				<line fill="none" stroke="#888888" stroke-width="0.5" stroke-linejoin="round" stroke-miterlimit="10" x1="62.439" y1="891.661" x2="62.439" y2="895.318"/>
			
				<line fill="none" stroke="#888888" stroke-width="0.5" stroke-linejoin="round" stroke-miterlimit="10" x1="77.434" y1="891.633" x2="77.434" y2="895.29"/>
			
				<line fill="none" stroke="#888888" stroke-width="0.5" stroke-linejoin="round" stroke-miterlimit="10" x1="92.5" y1="891.605" x2="92.5" y2="895.262"/>
			
				<line fill="none" stroke="#888888" stroke-width="0.5" stroke-linejoin="round" stroke-miterlimit="10" x1="107.596" y1="891.577" x2="107.596" y2="895.234"/>
		</g>
		<g>
			
				<line fill="none" stroke="#888888" stroke-width="0.5" stroke-linejoin="round" stroke-miterlimit="10" x1="182.637" y1="891.661" x2="182.637" y2="895.318"/>
			
				<line fill="none" stroke="#888888" stroke-width="0.5" stroke-linejoin="round" stroke-miterlimit="10" x1="197.632" y1="891.633" x2="197.632" y2="895.29"/>
			
				<line fill="none" stroke="#888888" stroke-width="0.5" stroke-linejoin="round" stroke-miterlimit="10" x1="212.698" y1="891.605" x2="212.698" y2="895.262"/>
			
				<line fill="none" stroke="#888888" stroke-width="0.5" stroke-linejoin="round" stroke-miterlimit="10" x1="227.793" y1="891.577" x2="227.793" y2="895.234"/>
		</g>
		<g>
			
				<line fill="none" stroke="#888888" stroke-width="0.5" stroke-linejoin="round" stroke-miterlimit="10" x1="242.745" y1="891.53" x2="242.745" y2="895.187"/>
			
				<line fill="none" stroke="#888888" stroke-width="0.5" stroke-linejoin="round" stroke-miterlimit="10" x1="257.739" y1="891.502" x2="257.739" y2="895.159"/>
		</g>
		<g>
			
				<line fill="none" stroke="#888888" stroke-width="0.5" stroke-linejoin="round" stroke-miterlimit="10" x1="122.573" y1="891.511" x2="122.573" y2="895.168"/>
			
				<line fill="none" stroke="#888888" stroke-width="0.5" stroke-linejoin="round" stroke-miterlimit="10" x1="137.568" y1="891.483" x2="137.568" y2="895.14"/>
			
				<line fill="none" stroke="#888888" stroke-width="0.5" stroke-linejoin="round" stroke-miterlimit="10" x1="152.634" y1="891.455" x2="152.634" y2="895.112"/>
			
				<line fill="none" stroke="#888888" stroke-width="0.5" stroke-linejoin="round" stroke-miterlimit="10" x1="167.729" y1="891.427" x2="167.729" y2="895.084"/>
		</g>
	</g>
	<g>
		<g>
			
				<line fill="none" stroke="#888888" stroke-width="0.5" stroke-linejoin="round" stroke-miterlimit="10" x1="60.748" y1="1464.895" x2="60.748" y2="1468.552"/>
			
				<line fill="none" stroke="#888888" stroke-width="0.5" stroke-linejoin="round" stroke-miterlimit="10" x1="75.65" y1="1464.867" x2="75.65" y2="1468.523"/>
			
				<line fill="none" stroke="#888888" stroke-width="0.5" stroke-linejoin="round" stroke-miterlimit="10" x1="90.623" y1="1464.839" x2="90.623" y2="1468.495"/>
			
				<line fill="none" stroke="#888888" stroke-width="0.5" stroke-linejoin="round" stroke-miterlimit="10" x1="105.626" y1="1464.811" x2="105.626" y2="1468.467"/>
		</g>
		<g>
			
				<line fill="none" stroke="#888888" stroke-width="0.5" stroke-linejoin="round" stroke-miterlimit="10" x1="180.207" y1="1464.895" x2="180.207" y2="1468.552"/>
			
				<line fill="none" stroke="#888888" stroke-width="0.5" stroke-linejoin="round" stroke-miterlimit="10" x1="195.109" y1="1464.867" x2="195.109" y2="1468.523"/>
			
				<line fill="none" stroke="#888888" stroke-width="0.5" stroke-linejoin="round" stroke-miterlimit="10" x1="210.083" y1="1464.839" x2="210.083" y2="1468.495"/>
			
				<line fill="none" stroke="#888888" stroke-width="0.5" stroke-linejoin="round" stroke-miterlimit="10" x1="225.086" y1="1464.811" x2="225.086" y2="1468.467"/>
		</g>
		<g>
			
				<line fill="none" stroke="#888888" stroke-width="0.5" stroke-linejoin="round" stroke-miterlimit="10" x1="239.945" y1="1464.764" x2="239.945" y2="1468.42"/>
			
				<line fill="none" stroke="#888888" stroke-width="0.5" stroke-linejoin="round" stroke-miterlimit="10" x1="254.848" y1="1464.735" x2="254.848" y2="1468.392"/>
		</g>
		<g>
			
				<line fill="none" stroke="#888888" stroke-width="0.5" stroke-linejoin="round" stroke-miterlimit="10" x1="120.512" y1="1464.745" x2="120.512" y2="1468.402"/>
			
				<line fill="none" stroke="#888888" stroke-width="0.5" stroke-linejoin="round" stroke-miterlimit="10" x1="135.415" y1="1464.717" x2="135.415" y2="1468.374"/>
			
				<line fill="none" stroke="#888888" stroke-width="0.5" stroke-linejoin="round" stroke-miterlimit="10" x1="150.388" y1="1464.689" x2="150.388" y2="1468.345"/>
			
				<line fill="none" stroke="#888888" stroke-width="0.5" stroke-linejoin="round" stroke-miterlimit="10" x1="165.391" y1="1464.661" x2="165.391" y2="1468.317"/>
		</g>
	</g>
	<g>
		
			<line fill="none" stroke="#DDDDDD" stroke-miterlimit="10" stroke-dasharray="3" x1="264.836" y1="695.452" x2="50.533" y2="695.452"/>
		
			<line fill="none" stroke="#DDDDDD" stroke-miterlimit="10" stroke-dasharray="3" x1="264.836" y1="760.68" x2="50.533" y2="760.68"/>
		
			<line fill="none" stroke="#DDDDDD" stroke-miterlimit="10" stroke-dasharray="3" x1="264.836" y1="826.102" x2="50.533" y2="826.102"/>
	</g>
	<polyline fill="none" stroke="#F8766D" stroke-width="2" stroke-linejoin="round" stroke-miterlimit="10" points="62.73,766.249 
		77.729,766.249 92.729,770.158 107.704,769.503 122.704,759.41 137.704,776.735 152.679,753.487 167.678,747.423 182.678,740.976 
		197.653,738.891 212.653,740.845 227.653,743.847 242.628,742.215 257.628,736.03 	"/>
	<rect style="opacity:0.2;" x="79.108" y="203.261" fill="#CCCCCC" width="28.87" height="218.144"/>
	<rect style="opacity:0.11;" x="124.133" y="203.397" fill="#FF7F7F" width="28.662" height="217.984"/>
	<g>
		<g>
			
				<line fill="none" stroke="#888888" stroke-width="0.5" stroke-linejoin="round" stroke-miterlimit="10" x1="63.298" y1="422.249" x2="63.298" y2="424.94"/>
			
				<line fill="none" stroke="#888888" stroke-width="0.5" stroke-linejoin="round" stroke-miterlimit="10" x1="78.253" y1="422.228" x2="78.253" y2="424.919"/>
			
				<line fill="none" stroke="#888888" stroke-width="0.5" stroke-linejoin="round" stroke-miterlimit="10" x1="93.281" y1="422.208" x2="93.281" y2="424.898"/>
			
				<line fill="none" stroke="#888888" stroke-width="0.5" stroke-linejoin="round" stroke-miterlimit="10" x1="108.337" y1="422.187" x2="108.337" y2="424.878"/>
		</g>
		<g>
			
				<line fill="none" stroke="#888888" stroke-width="0.5" stroke-linejoin="round" stroke-miterlimit="10" x1="183.186" y1="422.249" x2="183.186" y2="424.94"/>
			
				<line fill="none" stroke="#888888" stroke-width="0.5" stroke-linejoin="round" stroke-miterlimit="10" x1="198.142" y1="422.228" x2="198.142" y2="424.919"/>
			
				<line fill="none" stroke="#888888" stroke-width="0.5" stroke-linejoin="round" stroke-miterlimit="10" x1="213.169" y1="422.208" x2="213.169" y2="424.898"/>
			
				<line fill="none" stroke="#888888" stroke-width="0.5" stroke-linejoin="round" stroke-miterlimit="10" x1="228.226" y1="422.187" x2="228.226" y2="424.878"/>
		</g>
		<g>
			
				<line fill="none" stroke="#888888" stroke-width="0.5" stroke-linejoin="round" stroke-miterlimit="10" x1="243.139" y1="422.153" x2="243.139" y2="424.843"/>
			
				<line fill="none" stroke="#888888" stroke-width="0.5" stroke-linejoin="round" stroke-miterlimit="10" x1="258.095" y1="422.132" x2="258.095" y2="424.823"/>
		</g>
		<g>
			
				<line fill="none" stroke="#888888" stroke-width="0.5" stroke-linejoin="round" stroke-miterlimit="10" x1="123.277" y1="422.139" x2="123.277" y2="424.829"/>
			
				<line fill="none" stroke="#888888" stroke-width="0.5" stroke-linejoin="round" stroke-miterlimit="10" x1="138.232" y1="422.118" x2="138.232" y2="424.809"/>
			
				<line fill="none" stroke="#888888" stroke-width="0.5" stroke-linejoin="round" stroke-miterlimit="10" x1="153.26" y1="422.097" x2="153.26" y2="424.788"/>
			
				<line fill="none" stroke="#888888" stroke-width="0.5" stroke-linejoin="round" stroke-miterlimit="10" x1="168.316" y1="422.077" x2="168.316" y2="424.767"/>
		</g>
	</g>
	<g>
		
			<line fill="none" stroke="#DDDDDD" stroke-miterlimit="10" stroke-dasharray="3" x1="265.984" y1="213.605" x2="51.263" y2="213.605"/>
		
			<line fill="none" stroke="#DDDDDD" stroke-miterlimit="10" stroke-dasharray="3" x1="265.984" y1="282.768" x2="51.263" y2="282.768"/>
		
			<line fill="none" stroke="#DDDDDD" stroke-miterlimit="10" stroke-dasharray="3" x1="265.984" y1="352.138" x2="51.263" y2="352.138"/>
		<path fill="none" stroke="#888888" stroke-width="0.5" stroke-linejoin="round" stroke-miterlimit="10" d="M54.92,421.405"/>
	</g>
	<polyline fill="none" stroke="#F8766D" stroke-width="2" stroke-linejoin="round" stroke-miterlimit="10" points="63.683,337.607 
		78.624,334.903 93.589,329.84 108.554,345.792 123.494,353.141 138.459,254.862 153.424,337.961 168.365,344.333 183.33,359.105 
		198.295,360.779 213.235,352.518 228.2,337.328 243.165,331.856 258.13,355.919 	"/>
	<path style="opacity:0.11;" fill="#FF7F7F" d="M248.574,626.033H46.252c-10.487,0-18.989-8.502-18.989-18.989V495.219
		c0-10.487,8.502-18.989,18.989-18.989h202.322c10.487,0,18.989,8.502,18.989,18.989v111.826
		C267.563,617.532,259.062,626.033,248.574,626.033z"/>
	<g>
		<path fill="none" stroke="#000000" stroke-width="0.75" stroke-linejoin="round" d="M140.364,252.662
			c3.461-2.469,7.988-5.664,16.348-5.664c0.911,0,1.791-0.038,2.641,0"/>
		<g>
			<path d="M145.384,252.697c-0.006-0.165-0.146-0.294-0.312-0.288l-4.586,0.18l1.777-4.232c0.064-0.153-0.008-0.329-0.16-0.393
				s-0.329,0.009-0.393,0.16l-1.959,4.667c-0.04,0.094-0.028,0.203,0.03,0.287s0.156,0.133,0.258,0.129l5.057-0.198
				c0.059-0.002,0.114-0.022,0.159-0.053C145.336,252.899,145.388,252.803,145.384,252.697z"/>
		</g>
	</g>
	
		<line fill="none" stroke="#000000" stroke-width="0.75" stroke-linejoin="round" stroke-miterlimit="10" x1="101.762" y1="1076.917" x2="123.277" y2="1076.917"/>
	<rect style="opacity:0.2;" x="76.945" y="1534.489" fill="#CCCCCC" width="29.447" height="212.879"/>
	<path fill="none" stroke="#FFFFFF" stroke-width="1.07" stroke-linejoin="round" stroke-miterlimit="10" d="M76.948,1754.724"/>
	<path fill="none" stroke="#FFFFFF" stroke-width="1.07" stroke-linejoin="round" stroke-miterlimit="10" d="M91.893,1754.724"/>
	<path fill="none" stroke="#FFFFFF" stroke-width="1.07" stroke-linejoin="round" stroke-miterlimit="10" d="M106.863,1754.724"/>
	<path fill="none" stroke="#FFFFFF" stroke-width="1.07" stroke-linejoin="round" stroke-miterlimit="10" d="M121.832,1754.724"/>
	<path fill="none" stroke="#FFFFFF" stroke-width="1.07" stroke-linejoin="round" stroke-miterlimit="10" d="M136.777,1754.724"/>
	<path fill="none" stroke="#FFFFFF" stroke-width="1.07" stroke-linejoin="round" stroke-miterlimit="10" d="M151.747,1754.724"/>
	<polyline fill="none" stroke="#F8766D" stroke-width="2" stroke-linejoin="round" stroke-miterlimit="10" points="61.979,1673.858 
		76.948,1667.487 91.893,1663.086 106.863,1657.93 121.832,1664.5 136.777,1683.205 151.747,1671.008 166.716,1663.892 
		181.661,1660.172 196.631,1659.827 211.601,1659.827 226.546,1660.707 241.515,1661.587 256.485,1657.731 	"/>
	<rect style="opacity:0.11;" x="121.897" y="1533.754" fill="#FF7F7F" width="29.447" height="213.167"/>
	
		<line fill="none" stroke="#888888" stroke-width="0.5" stroke-linejoin="round" stroke-miterlimit="10" x1="51.332" y1="1747.777" x2="267.436" y2="1747.777"/>
	
		<line fill="none" stroke="#DDDDDD" stroke-miterlimit="10" stroke-dasharray="3" x1="265.635" y1="1552.656" x2="51.332" y2="1552.656"/>
	
		<line fill="none" stroke="#DDDDDD" stroke-miterlimit="10" stroke-dasharray="3" x1="265.635" y1="1617.884" x2="51.332" y2="1617.884"/>
	
		<line fill="none" stroke="#DDDDDD" stroke-miterlimit="10" stroke-dasharray="3" x1="265.635" y1="1683.307" x2="51.332" y2="1683.307"/>
	<g>
		<g>
			
				<line fill="none" stroke="#888888" stroke-width="0.5" stroke-linejoin="round" stroke-miterlimit="10" x1="60.393" y1="1747.927" x2="60.393" y2="1751.584"/>
			
				<line fill="none" stroke="#888888" stroke-width="0.5" stroke-linejoin="round" stroke-miterlimit="10" x1="75.295" y1="1747.899" x2="75.295" y2="1751.556"/>
			
				<line fill="none" stroke="#888888" stroke-width="0.5" stroke-linejoin="round" stroke-miterlimit="10" x1="90.269" y1="1747.871" x2="90.269" y2="1751.528"/>
			
				<line fill="none" stroke="#888888" stroke-width="0.5" stroke-linejoin="round" stroke-miterlimit="10" x1="105.272" y1="1747.843" x2="105.272" y2="1751.5"/>
		</g>
		<g>
			
				<line fill="none" stroke="#888888" stroke-width="0.5" stroke-linejoin="round" stroke-miterlimit="10" x1="179.852" y1="1747.927" x2="179.852" y2="1751.584"/>
			
				<line fill="none" stroke="#888888" stroke-width="0.5" stroke-linejoin="round" stroke-miterlimit="10" x1="194.755" y1="1747.899" x2="194.755" y2="1751.556"/>
			
				<line fill="none" stroke="#888888" stroke-width="0.5" stroke-linejoin="round" stroke-miterlimit="10" x1="209.728" y1="1747.871" x2="209.728" y2="1751.528"/>
			
				<line fill="none" stroke="#888888" stroke-width="0.5" stroke-linejoin="round" stroke-miterlimit="10" x1="224.731" y1="1747.843" x2="224.731" y2="1751.5"/>
		</g>
		<g>
			
				<line fill="none" stroke="#888888" stroke-width="0.5" stroke-linejoin="round" stroke-miterlimit="10" x1="239.591" y1="1747.796" x2="239.591" y2="1751.453"/>
			
				<line fill="none" stroke="#888888" stroke-width="0.5" stroke-linejoin="round" stroke-miterlimit="10" x1="254.493" y1="1747.768" x2="254.493" y2="1751.425"/>
		</g>
		<g>
			
				<line fill="none" stroke="#888888" stroke-width="0.5" stroke-linejoin="round" stroke-miterlimit="10" x1="120.157" y1="1747.777" x2="120.157" y2="1751.434"/>
			
				<line fill="none" stroke="#888888" stroke-width="0.5" stroke-linejoin="round" stroke-miterlimit="10" x1="135.06" y1="1747.749" x2="135.06" y2="1751.406"/>
			
				<line fill="none" stroke="#888888" stroke-width="0.5" stroke-linejoin="round" stroke-miterlimit="10" x1="150.033" y1="1747.721" x2="150.033" y2="1751.378"/>
			
				<line fill="none" stroke="#888888" stroke-width="0.5" stroke-linejoin="round" stroke-miterlimit="10" x1="165.036" y1="1747.693" x2="165.036" y2="1751.35"/>
		</g>
	</g>
</g>
<style>
#g-revenue-breakdown-300-img rect, #g-revenue-breakdown-300-img circle, #g-revenue-breakdown-300-img path, #g-revenue-breakdown-300-img line, #g-revenue-breakdown-300-img polyline { vector-effect: non-scaling-stroke; }
</style>
</svg>

