<?xml version="1.0" encoding="utf-8"?>
<!-- Generator: Adobe Illustrator 23.1.1, SVG Export Plug-In . SVG Version: 6.00 Build 0)  -->
<svg version="1.2" baseProfile="tiny" id="g-revenue-breakdown-700-img" xmlns="http://www.w3.org/2000/svg" xmlns:xlink="http://www.w3.org/1999/xlink"
	 x="0px" y="0px" viewBox="0 0 700 1080" xml:space="preserve">
<g>
	
		<line fill="none" stroke="#888888" stroke-width="0.5" stroke-linejoin="round" stroke-miterlimit="10" x1="115.572" y1="388.039" x2="328.465" y2="388.039"/>
	<rect style="opacity:0.2;" x="141.588" y="169.051" fill="#CCCCCC" width="28.87" height="218.144"/>
	<rect style="opacity:0.11;" x="186.613" y="169.187" fill="#FF7F7F" width="28.662" height="217.984"/>
	<g>
		<g>
			
				<line fill="none" stroke="#888888" stroke-width="0.5" stroke-linejoin="round" stroke-miterlimit="10" x1="125.778" y1="388.039" x2="125.778" y2="390.73"/>
			
				<line fill="none" stroke="#888888" stroke-width="0.5" stroke-linejoin="round" stroke-miterlimit="10" x1="140.734" y1="388.018" x2="140.734" y2="390.709"/>
			
				<line fill="none" stroke="#888888" stroke-width="0.5" stroke-linejoin="round" stroke-miterlimit="10" x1="155.761" y1="387.998" x2="155.761" y2="390.688"/>
			
				<line fill="none" stroke="#888888" stroke-width="0.5" stroke-linejoin="round" stroke-miterlimit="10" x1="170.818" y1="387.977" x2="170.818" y2="390.668"/>
		</g>
		<g>
			
				<line fill="none" stroke="#888888" stroke-width="0.5" stroke-linejoin="round" stroke-miterlimit="10" x1="245.667" y1="388.039" x2="245.667" y2="390.73"/>
			
				<line fill="none" stroke="#888888" stroke-width="0.5" stroke-linejoin="round" stroke-miterlimit="10" x1="260.622" y1="388.018" x2="260.622" y2="390.709"/>
			
				<line fill="none" stroke="#888888" stroke-width="0.5" stroke-linejoin="round" stroke-miterlimit="10" x1="275.65" y1="387.998" x2="275.65" y2="390.688"/>
			
				<line fill="none" stroke="#888888" stroke-width="0.5" stroke-linejoin="round" stroke-miterlimit="10" x1="290.706" y1="387.977" x2="290.706" y2="390.668"/>
		</g>
		<g>
			
				<line fill="none" stroke="#888888" stroke-width="0.5" stroke-linejoin="round" stroke-miterlimit="10" x1="305.619" y1="387.943" x2="305.619" y2="390.633"/>
			
				<line fill="none" stroke="#888888" stroke-width="0.5" stroke-linejoin="round" stroke-miterlimit="10" x1="320.575" y1="387.922" x2="320.575" y2="390.612"/>
		</g>
		<g>
			
				<line fill="none" stroke="#888888" stroke-width="0.5" stroke-linejoin="round" stroke-miterlimit="10" x1="185.757" y1="387.929" x2="185.757" y2="390.619"/>
			
				<line fill="none" stroke="#888888" stroke-width="0.5" stroke-linejoin="round" stroke-miterlimit="10" x1="200.713" y1="387.908" x2="200.713" y2="390.599"/>
			
				<line fill="none" stroke="#888888" stroke-width="0.5" stroke-linejoin="round" stroke-miterlimit="10" x1="215.74" y1="387.887" x2="215.74" y2="390.578"/>
			
				<line fill="none" stroke="#888888" stroke-width="0.5" stroke-linejoin="round" stroke-miterlimit="10" x1="230.797" y1="387.867" x2="230.797" y2="390.557"/>
		</g>
	</g>
	<g>
		
			<line fill="none" stroke="#DDDDDD" stroke-miterlimit="10" stroke-dasharray="3" x1="328.465" y1="179.395" x2="113.744" y2="179.395"/>
		
			<line fill="none" stroke="#DDDDDD" stroke-miterlimit="10" stroke-dasharray="3" x1="328.465" y1="248.558" x2="113.744" y2="248.558"/>
		
			<line fill="none" stroke="#DDDDDD" stroke-miterlimit="10" stroke-dasharray="3" x1="328.465" y1="317.928" x2="113.744" y2="317.928"/>
		<path fill="none" stroke="#888888" stroke-width="0.5" stroke-linejoin="round" stroke-miterlimit="10" d="M117.4,387.195"/>
	</g>
	<polyline fill="none" stroke="#F8766D" stroke-width="2" stroke-linejoin="round" stroke-miterlimit="10" points="126.164,303.397 
		141.105,300.693 156.07,295.63 171.035,311.582 185.975,318.931 200.94,220.652 215.905,303.751 230.846,310.123 245.811,324.895 
		260.776,326.569 275.716,318.308 290.681,303.118 305.646,297.646 320.611,321.709 	"/>
	<path style="opacity:0.11;" fill="#FF7F7F" d="M604.834,348.512H402.511c-10.487,0-18.989-8.502-18.989-18.989V217.698
		c0-10.487,8.502-18.989,18.989-18.989h202.322c10.487,0,18.989,8.502,18.989,18.989v111.826
		C623.823,340.011,615.321,348.512,604.834,348.512z"/>
	<g>
		<path fill="none" stroke="#000000" stroke-width="0.75" stroke-linejoin="round" d="M202.845,218.452
			c3.461-2.469,7.989-5.664,16.348-5.664c0.911,0,1.791-0.038,2.641,0"/>
		<g>
			<path d="M207.864,218.487c-0.006-0.165-0.146-0.294-0.312-0.288l-4.586,0.18l1.777-4.232c0.064-0.153-0.008-0.329-0.161-0.393
				c-0.153-0.064-0.329,0.009-0.393,0.16l-1.959,4.667c-0.04,0.094-0.028,0.203,0.03,0.287c0.058,0.084,0.156,0.133,0.258,0.129
				l5.057-0.198c0.059-0.002,0.114-0.022,0.159-0.053C207.817,218.689,207.868,218.593,207.864,218.487z"/>
		</g>
	</g>
	
		<line fill="none" stroke="#888888" stroke-width="0.5" stroke-linejoin="round" stroke-miterlimit="10" x1="113.086" y1="691.269" x2="325.979" y2="691.269"/>
	<path fill="none" stroke="#FFFFFF" stroke-width="1.07" stroke-linejoin="round" stroke-miterlimit="10" d="M325.979,626.137"/>
	<path fill="none" stroke="#FFFFFF" stroke-width="1.07" stroke-linejoin="round" stroke-miterlimit="10" d="M113.086,626.137"/>
	<path fill="none" stroke="#FFFFFF" stroke-width="1.07" stroke-linejoin="round" stroke-miterlimit="10" d="M325.979,561.015"/>
	<path fill="none" stroke="#FFFFFF" stroke-width="1.07" stroke-linejoin="round" stroke-miterlimit="10" d="M113.086,561.015"/>
	<path fill="none" stroke="#FFFFFF" stroke-width="1.07" stroke-linejoin="round" stroke-miterlimit="10" d="M325.979,495.892"/>
	<path fill="none" stroke="#FFFFFF" stroke-width="1.07" stroke-linejoin="round" stroke-miterlimit="10" d="M113.086,495.892"/>
	<path fill="none" stroke="#FFFFFF" stroke-width="1.07" stroke-linejoin="round" stroke-miterlimit="10" d="M122.072,701.03"/>
	<path fill="none" stroke="#FFFFFF" stroke-width="1.07" stroke-linejoin="round" stroke-miterlimit="10" d="M137.071,701.03"/>
	<path fill="none" stroke="#FFFFFF" stroke-width="1.07" stroke-linejoin="round" stroke-miterlimit="10" d="M167.046,701.03"/>
	<path fill="none" stroke="#FFFFFF" stroke-width="1.07" stroke-linejoin="round" stroke-miterlimit="10" d="M212.021,701.03"/>
	<path fill="none" stroke="#FFFFFF" stroke-width="1.07" stroke-linejoin="round" stroke-miterlimit="10" d="M227.02,701.03"/>
	<path fill="none" stroke="#FFFFFF" stroke-width="1.07" stroke-linejoin="round" stroke-miterlimit="10" d="M242.02,701.03"/>
	<path fill="none" stroke="#FFFFFF" stroke-width="1.07" stroke-linejoin="round" stroke-miterlimit="10" d="M256.995,701.03"/>
	<path fill="none" stroke="#FFFFFF" stroke-width="1.07" stroke-linejoin="round" stroke-miterlimit="10" d="M271.995,701.03"/>
	<path fill="none" stroke="#FFFFFF" stroke-width="1.07" stroke-linejoin="round" stroke-miterlimit="10" d="M286.995,701.03"/>
	<path fill="none" stroke="#FFFFFF" stroke-width="1.07" stroke-linejoin="round" stroke-miterlimit="10" d="M301.97,701.03"/>
	<path fill="none" stroke="#FFFFFF" stroke-width="1.07" stroke-linejoin="round" stroke-miterlimit="10" d="M316.97,701.03"/>
	<rect style="opacity:0.2;" x="137.093" y="486.703" fill="#CCCCCC" width="29.507" height="203.717"/>
	<rect style="opacity:0.11;" x="181.579" y="486.339" fill="#FF7F7F" width="29.507" height="204.496"/>
	<g>
	</g>
	<g>
		<g>
			
				<line fill="none" stroke="#888888" stroke-width="0.5" stroke-linejoin="round" stroke-miterlimit="10" x1="121.781" y1="691.574" x2="121.781" y2="695.231"/>
			
				<line fill="none" stroke="#888888" stroke-width="0.5" stroke-linejoin="round" stroke-miterlimit="10" x1="136.776" y1="691.546" x2="136.776" y2="695.203"/>
			
				<line fill="none" stroke="#888888" stroke-width="0.5" stroke-linejoin="round" stroke-miterlimit="10" x1="151.842" y1="691.518" x2="151.842" y2="695.174"/>
			
				<line fill="none" stroke="#888888" stroke-width="0.5" stroke-linejoin="round" stroke-miterlimit="10" x1="166.937" y1="691.49" x2="166.937" y2="695.146"/>
		</g>
		<g>
			
				<line fill="none" stroke="#888888" stroke-width="0.5" stroke-linejoin="round" stroke-miterlimit="10" x1="241.979" y1="691.574" x2="241.979" y2="695.231"/>
			
				<line fill="none" stroke="#888888" stroke-width="0.5" stroke-linejoin="round" stroke-miterlimit="10" x1="256.974" y1="691.546" x2="256.974" y2="695.203"/>
			
				<line fill="none" stroke="#888888" stroke-width="0.5" stroke-linejoin="round" stroke-miterlimit="10" x1="272.04" y1="691.518" x2="272.04" y2="695.174"/>
			
				<line fill="none" stroke="#888888" stroke-width="0.5" stroke-linejoin="round" stroke-miterlimit="10" x1="287.135" y1="691.49" x2="287.135" y2="695.146"/>
		</g>
		<g>
			
				<line fill="none" stroke="#888888" stroke-width="0.5" stroke-linejoin="round" stroke-miterlimit="10" x1="302.087" y1="691.443" x2="302.087" y2="695.099"/>
			
				<line fill="none" stroke="#888888" stroke-width="0.5" stroke-linejoin="round" stroke-miterlimit="10" x1="317.081" y1="691.415" x2="317.081" y2="695.071"/>
		</g>
		<g>
			
				<line fill="none" stroke="#888888" stroke-width="0.5" stroke-linejoin="round" stroke-miterlimit="10" x1="181.915" y1="691.424" x2="181.915" y2="695.081"/>
			
				<line fill="none" stroke="#888888" stroke-width="0.5" stroke-linejoin="round" stroke-miterlimit="10" x1="196.91" y1="691.396" x2="196.91" y2="695.053"/>
			
				<line fill="none" stroke="#888888" stroke-width="0.5" stroke-linejoin="round" stroke-miterlimit="10" x1="211.976" y1="691.368" x2="211.976" y2="695.024"/>
			
				<line fill="none" stroke="#888888" stroke-width="0.5" stroke-linejoin="round" stroke-miterlimit="10" x1="227.071" y1="691.34" x2="227.071" y2="694.996"/>
		</g>
	</g>
	<g>
		
			<line fill="none" stroke="#DDDDDD" stroke-miterlimit="10" stroke-dasharray="3" x1="324.178" y1="495.365" x2="109.875" y2="495.365"/>
		
			<line fill="none" stroke="#DDDDDD" stroke-miterlimit="10" stroke-dasharray="3" x1="324.178" y1="560.592" x2="109.875" y2="560.592"/>
		
			<line fill="none" stroke="#DDDDDD" stroke-miterlimit="10" stroke-dasharray="3" x1="324.178" y1="626.015" x2="109.875" y2="626.015"/>
	</g>
	<polyline fill="none" stroke="#F8766D" stroke-width="2" stroke-linejoin="round" stroke-miterlimit="10" points="122.072,566.162 
		137.071,566.162 152.071,570.07 167.046,569.416 182.046,559.322 197.046,576.648 212.021,553.399 227.02,547.335 242.02,540.889 
		256.995,538.804 271.995,540.758 286.995,543.759 301.97,542.128 316.97,535.943 	"/>
	<rect style="opacity:0.2;" x="428.032" y="486.927" fill="#CCCCCC" width="29.507" height="204.332"/>
	<rect style="opacity:0.11;" x="473.352" y="486.819" fill="#FF7F7F" width="29.507" height="204.496"/>
	
		<line fill="none" stroke="#888888" stroke-width="0.5" stroke-linejoin="round" stroke-miterlimit="10" x1="403.374" y1="691.168" x2="616.267" y2="691.168"/>
	
		<line fill="none" stroke="#DDDDDD" stroke-miterlimit="10" stroke-dasharray="3" x1="614.465" y1="496.047" x2="400.162" y2="496.047"/>
	
		<line fill="none" stroke="#DDDDDD" stroke-miterlimit="10" stroke-dasharray="3" x1="614.465" y1="561.275" x2="400.162" y2="561.275"/>
	
		<line fill="none" stroke="#DDDDDD" stroke-miterlimit="10" stroke-dasharray="3" x1="614.465" y1="626.697" x2="400.162" y2="626.697"/>
	<polyline fill="none" stroke="#F8766D" stroke-width="2" stroke-linejoin="round" stroke-miterlimit="10" points="413.01,596.247 
		428.01,588.561 443.009,540.241 457.985,540.11 472.984,536.655 487.984,563.56 502.959,539.203 517.959,536.786 532.959,532.424 
		547.934,524.869 562.934,522.522 577.933,528.254 592.908,531.054 607.908,523.177 	"/>
	<g>
		<g>
			
				<line fill="none" stroke="#888888" stroke-width="0.5" stroke-linejoin="round" stroke-miterlimit="10" x1="413.182" y1="691.343" x2="413.182" y2="695"/>
			
				<line fill="none" stroke="#888888" stroke-width="0.5" stroke-linejoin="round" stroke-miterlimit="10" x1="428.13" y1="691.315" x2="428.13" y2="694.972"/>
			
				<line fill="none" stroke="#888888" stroke-width="0.5" stroke-linejoin="round" stroke-miterlimit="10" x1="443.149" y1="691.287" x2="443.149" y2="694.943"/>
			
				<line fill="none" stroke="#888888" stroke-width="0.5" stroke-linejoin="round" stroke-miterlimit="10" x1="458.198" y1="691.259" x2="458.198" y2="694.915"/>
		</g>
		<g>
			
				<line fill="none" stroke="#888888" stroke-width="0.5" stroke-linejoin="round" stroke-miterlimit="10" x1="533.006" y1="691.343" x2="533.006" y2="695"/>
			
				<line fill="none" stroke="#888888" stroke-width="0.5" stroke-linejoin="round" stroke-miterlimit="10" x1="547.954" y1="691.315" x2="547.954" y2="694.972"/>
			
				<line fill="none" stroke="#888888" stroke-width="0.5" stroke-linejoin="round" stroke-miterlimit="10" x1="562.973" y1="691.287" x2="562.973" y2="694.943"/>
			
				<line fill="none" stroke="#888888" stroke-width="0.5" stroke-linejoin="round" stroke-miterlimit="10" x1="578.022" y1="691.259" x2="578.022" y2="694.915"/>
		</g>
		<g>
			
				<line fill="none" stroke="#888888" stroke-width="0.5" stroke-linejoin="round" stroke-miterlimit="10" x1="592.927" y1="691.212" x2="592.927" y2="694.868"/>
			
				<line fill="none" stroke="#888888" stroke-width="0.5" stroke-linejoin="round" stroke-miterlimit="10" x1="607.875" y1="691.184" x2="607.875" y2="694.84"/>
		</g>
		<g>
			
				<line fill="none" stroke="#888888" stroke-width="0.5" stroke-linejoin="round" stroke-miterlimit="10" x1="473.129" y1="691.193" x2="473.129" y2="694.85"/>
			
				<line fill="none" stroke="#888888" stroke-width="0.5" stroke-linejoin="round" stroke-miterlimit="10" x1="488.077" y1="691.165" x2="488.077" y2="694.822"/>
			
				<line fill="none" stroke="#888888" stroke-width="0.5" stroke-linejoin="round" stroke-miterlimit="10" x1="503.096" y1="691.137" x2="503.096" y2="694.793"/>
			
				<line fill="none" stroke="#888888" stroke-width="0.5" stroke-linejoin="round" stroke-miterlimit="10" x1="518.145" y1="691.109" x2="518.145" y2="694.765"/>
		</g>
	</g>
	
		<line fill="none" stroke="#000000" stroke-width="0.75" stroke-linejoin="round" stroke-miterlimit="10" x1="457.539" y1="583.609" x2="479.054" y2="583.609"/>
	
		<line fill="none" stroke="#FFFFFF" stroke-width="1.07" stroke-linejoin="round" stroke-miterlimit="10" x1="114.85" y1="998.446" x2="327.29" y2="998.446"/>
	
	
	
	<rect style="opacity:0.2;" x="138.785" y="785.034" fill="#CCCCCC" width="29.447" height="212.099"/>
	<rect style="opacity:0.11;" x="183.736" y="785.26" fill="#FF7F7F" width="29.447" height="212.734"/>
	
		<line fill="none" stroke="#888888" stroke-width="0.5" stroke-linejoin="round" stroke-miterlimit="10" x1="116.18" y1="997.865" x2="329.072" y2="997.865"/>
	
		<line fill="none" stroke="#DDDDDD" stroke-miterlimit="10" stroke-dasharray="3" x1="327.271" y1="802.744" x2="112.968" y2="802.744"/>
	
		<line fill="none" stroke="#DDDDDD" stroke-miterlimit="10" stroke-dasharray="3" x1="327.271" y1="867.972" x2="112.968" y2="867.972"/>
	
		<line fill="none" stroke="#DDDDDD" stroke-miterlimit="10" stroke-dasharray="3" x1="327.271" y1="933.394" x2="112.968" y2="933.394"/>
	<polyline fill="none" stroke="#F8766D" stroke-width="2" stroke-linejoin="round" stroke-miterlimit="10" points="123.817,837.806 
		138.787,838.078 153.732,849.458 168.701,848.243 183.671,831.309 198.616,853.052 213.586,841.945 228.555,853.251 243.5,862.745 
		258.47,871.485 273.439,873.518 288.384,871.076 303.354,872.637 318.323,869.724 	"/>
	<g>
		<g>
			
				<line fill="none" stroke="#888888" stroke-width="0.5" stroke-linejoin="round" stroke-miterlimit="10" x1="124.147" y1="998.015" x2="124.147" y2="1001.672"/>
			
				<line fill="none" stroke="#888888" stroke-width="0.5" stroke-linejoin="round" stroke-miterlimit="10" x1="139.049" y1="997.987" x2="139.049" y2="1001.644"/>
			
				<line fill="none" stroke="#888888" stroke-width="0.5" stroke-linejoin="round" stroke-miterlimit="10" x1="154.023" y1="997.959" x2="154.023" y2="1001.616"/>
			
				<line fill="none" stroke="#888888" stroke-width="0.5" stroke-linejoin="round" stroke-miterlimit="10" x1="169.026" y1="997.931" x2="169.026" y2="1001.588"/>
		</g>
		<g>
			
				<line fill="none" stroke="#888888" stroke-width="0.5" stroke-linejoin="round" stroke-miterlimit="10" x1="243.606" y1="998.015" x2="243.606" y2="1001.672"/>
			
				<line fill="none" stroke="#888888" stroke-width="0.5" stroke-linejoin="round" stroke-miterlimit="10" x1="258.509" y1="997.987" x2="258.509" y2="1001.644"/>
			
				<line fill="none" stroke="#888888" stroke-width="0.5" stroke-linejoin="round" stroke-miterlimit="10" x1="273.482" y1="997.959" x2="273.482" y2="1001.616"/>
			
				<line fill="none" stroke="#888888" stroke-width="0.5" stroke-linejoin="round" stroke-miterlimit="10" x1="288.485" y1="997.931" x2="288.485" y2="1001.588"/>
		</g>
		<g>
			
				<line fill="none" stroke="#888888" stroke-width="0.5" stroke-linejoin="round" stroke-miterlimit="10" x1="303.345" y1="997.884" x2="303.345" y2="1001.541"/>
			
				<line fill="none" stroke="#888888" stroke-width="0.5" stroke-linejoin="round" stroke-miterlimit="10" x1="318.247" y1="997.856" x2="318.247" y2="1001.513"/>
		</g>
		<g>
			
				<line fill="none" stroke="#888888" stroke-width="0.5" stroke-linejoin="round" stroke-miterlimit="10" x1="183.911" y1="997.865" x2="183.911" y2="1001.522"/>
			
				<line fill="none" stroke="#888888" stroke-width="0.5" stroke-linejoin="round" stroke-miterlimit="10" x1="198.814" y1="997.837" x2="198.814" y2="1001.494"/>
			
				<line fill="none" stroke="#888888" stroke-width="0.5" stroke-linejoin="round" stroke-miterlimit="10" x1="213.787" y1="997.809" x2="213.787" y2="1001.466"/>
			
				<line fill="none" stroke="#888888" stroke-width="0.5" stroke-linejoin="round" stroke-miterlimit="10" x1="228.79" y1="997.781" x2="228.79" y2="1001.438"/>
		</g>
	</g>
	<rect style="opacity:0.2;" x="433.274" y="784.318" fill="#CCCCCC" width="29.447" height="212.879"/>
	<path fill="none" stroke="#FFFFFF" stroke-width="1.07" stroke-linejoin="round" stroke-miterlimit="10" d="M433.277,1004.554"/>
	<path fill="none" stroke="#FFFFFF" stroke-width="1.07" stroke-linejoin="round" stroke-miterlimit="10" d="M448.222,1004.554"/>
	<path fill="none" stroke="#FFFFFF" stroke-width="1.07" stroke-linejoin="round" stroke-miterlimit="10" d="M463.192,1004.554"/>
	<path fill="none" stroke="#FFFFFF" stroke-width="1.07" stroke-linejoin="round" stroke-miterlimit="10" d="M478.161,1004.554"/>
	<path fill="none" stroke="#FFFFFF" stroke-width="1.07" stroke-linejoin="round" stroke-miterlimit="10" d="M493.106,1004.554"/>
	<path fill="none" stroke="#FFFFFF" stroke-width="1.07" stroke-linejoin="round" stroke-miterlimit="10" d="M508.076,1004.554"/>
	<polyline fill="none" stroke="#F8766D" stroke-width="2" stroke-linejoin="round" stroke-miterlimit="10" points="418.308,923.687 
		433.277,917.316 448.222,912.915 463.192,907.759 478.161,914.329 493.106,933.034 508.076,920.837 523.045,913.721 
		537.99,910.001 552.96,909.656 567.929,909.656 582.874,910.536 597.844,911.416 612.813,907.56 	"/>
	<rect style="opacity:0.11;" x="478.226" y="783.583" fill="#FF7F7F" width="29.447" height="213.167"/>
	
		<line fill="none" stroke="#888888" stroke-width="0.5" stroke-linejoin="round" stroke-miterlimit="10" x1="407.661" y1="997.606" x2="623.765" y2="997.606"/>
	
		<line fill="none" stroke="#DDDDDD" stroke-miterlimit="10" stroke-dasharray="3" x1="621.964" y1="802.486" x2="407.661" y2="802.486"/>
	
		<line fill="none" stroke="#DDDDDD" stroke-miterlimit="10" stroke-dasharray="3" x1="621.964" y1="867.713" x2="407.661" y2="867.713"/>
	
		<line fill="none" stroke="#DDDDDD" stroke-miterlimit="10" stroke-dasharray="3" x1="621.964" y1="933.136" x2="407.661" y2="933.136"/>
	<g>
		<g>
			
				<line fill="none" stroke="#888888" stroke-width="0.5" stroke-linejoin="round" stroke-miterlimit="10" x1="416.722" y1="997.756" x2="416.722" y2="1001.413"/>
			
				<line fill="none" stroke="#888888" stroke-width="0.5" stroke-linejoin="round" stroke-miterlimit="10" x1="431.624" y1="997.728" x2="431.624" y2="1001.385"/>
			
				<line fill="none" stroke="#888888" stroke-width="0.5" stroke-linejoin="round" stroke-miterlimit="10" x1="446.598" y1="997.7" x2="446.598" y2="1001.357"/>
			
				<line fill="none" stroke="#888888" stroke-width="0.5" stroke-linejoin="round" stroke-miterlimit="10" x1="461.6" y1="997.672" x2="461.6" y2="1001.329"/>
		</g>
		<g>
			
				<line fill="none" stroke="#888888" stroke-width="0.5" stroke-linejoin="round" stroke-miterlimit="10" x1="536.181" y1="997.756" x2="536.181" y2="1001.413"/>
			
				<line fill="none" stroke="#888888" stroke-width="0.5" stroke-linejoin="round" stroke-miterlimit="10" x1="551.083" y1="997.728" x2="551.083" y2="1001.385"/>
			
				<line fill="none" stroke="#888888" stroke-width="0.5" stroke-linejoin="round" stroke-miterlimit="10" x1="566.057" y1="997.7" x2="566.057" y2="1001.357"/>
			
				<line fill="none" stroke="#888888" stroke-width="0.5" stroke-linejoin="round" stroke-miterlimit="10" x1="581.06" y1="997.672" x2="581.06" y2="1001.329"/>
		</g>
		<g>
			
				<line fill="none" stroke="#888888" stroke-width="0.5" stroke-linejoin="round" stroke-miterlimit="10" x1="595.919" y1="997.625" x2="595.919" y2="1001.282"/>
			
				<line fill="none" stroke="#888888" stroke-width="0.5" stroke-linejoin="round" stroke-miterlimit="10" x1="610.822" y1="997.597" x2="610.822" y2="1001.254"/>
		</g>
		<g>
			
				<line fill="none" stroke="#888888" stroke-width="0.5" stroke-linejoin="round" stroke-miterlimit="10" x1="476.486" y1="997.606" x2="476.486" y2="1001.263"/>
			
				<line fill="none" stroke="#888888" stroke-width="0.5" stroke-linejoin="round" stroke-miterlimit="10" x1="491.389" y1="997.578" x2="491.389" y2="1001.235"/>
			
				<line fill="none" stroke="#888888" stroke-width="0.5" stroke-linejoin="round" stroke-miterlimit="10" x1="506.362" y1="997.55" x2="506.362" y2="1001.207"/>
			
				<line fill="none" stroke="#888888" stroke-width="0.5" stroke-linejoin="round" stroke-miterlimit="10" x1="521.365" y1="997.522" x2="521.365" y2="1001.179"/>
		</g>
	</g>
</g>
<style>
#g-revenue-breakdown-700-img rect, #g-revenue-breakdown-700-img circle, #g-revenue-breakdown-700-img path, #g-revenue-breakdown-700-img line, #g-revenue-breakdown-700-img polyline { vector-effect: non-scaling-stroke; }
</style>
</svg>

