<?xml version="1.0" encoding="utf-8"?>
<!-- Generator: Adobe Illustrator 23.1.1, SVG Export Plug-In . SVG Version: 6.00 Build 0)  -->
<svg version="1.2" baseProfile="tiny" id="g-revenue-breakdown-1200-img" xmlns="http://www.w3.org/2000/svg" xmlns:xlink="http://www.w3.org/1999/xlink"
	 x="0px" y="0px" viewBox="0 0 1200 750" xml:space="preserve">
<g>
	
		<line fill="none" stroke="#888888" stroke-width="0.5" stroke-linejoin="round" stroke-miterlimit="10" x1="363.429" y1="390.74" x2="576.322" y2="390.74"/>
	<rect style="opacity:0.2;" x="389.445" y="171.751" fill="#CCCCCC" width="28.87" height="218.144"/>
	<rect style="opacity:0.11;" x="434.47" y="171.887" fill="#FF7F7F" width="28.662" height="217.984"/>
	<g>
		<g>
			
				<line fill="none" stroke="#888888" stroke-width="0.5" stroke-linejoin="round" stroke-miterlimit="10" x1="373.635" y1="390.74" x2="373.635" y2="393.431"/>
			
				<line fill="none" stroke="#888888" stroke-width="0.5" stroke-linejoin="round" stroke-miterlimit="10" x1="388.591" y1="390.719" x2="388.591" y2="393.41"/>
			
				<line fill="none" stroke="#888888" stroke-width="0.5" stroke-linejoin="round" stroke-miterlimit="10" x1="403.618" y1="390.699" x2="403.618" y2="393.389"/>
			
				<line fill="none" stroke="#888888" stroke-width="0.5" stroke-linejoin="round" stroke-miterlimit="10" x1="418.675" y1="390.678" x2="418.675" y2="393.369"/>
		</g>
		<g>
			
				<line fill="none" stroke="#888888" stroke-width="0.5" stroke-linejoin="round" stroke-miterlimit="10" x1="493.523" y1="390.74" x2="493.523" y2="393.431"/>
			
				<line fill="none" stroke="#888888" stroke-width="0.5" stroke-linejoin="round" stroke-miterlimit="10" x1="508.479" y1="390.719" x2="508.479" y2="393.41"/>
			
				<line fill="none" stroke="#888888" stroke-width="0.5" stroke-linejoin="round" stroke-miterlimit="10" x1="523.506" y1="390.699" x2="523.506" y2="393.389"/>
			
				<line fill="none" stroke="#888888" stroke-width="0.5" stroke-linejoin="round" stroke-miterlimit="10" x1="538.563" y1="390.678" x2="538.563" y2="393.369"/>
		</g>
		<g>
			
				<line fill="none" stroke="#888888" stroke-width="0.5" stroke-linejoin="round" stroke-miterlimit="10" x1="553.476" y1="390.643" x2="553.476" y2="393.334"/>
			
				<line fill="none" stroke="#888888" stroke-width="0.5" stroke-linejoin="round" stroke-miterlimit="10" x1="568.432" y1="390.623" x2="568.432" y2="393.313"/>
		</g>
		<g>
			
				<line fill="none" stroke="#888888" stroke-width="0.5" stroke-linejoin="round" stroke-miterlimit="10" x1="433.614" y1="390.63" x2="433.614" y2="393.32"/>
			
				<line fill="none" stroke="#888888" stroke-width="0.5" stroke-linejoin="round" stroke-miterlimit="10" x1="448.57" y1="390.609" x2="448.57" y2="393.3"/>
			
				<line fill="none" stroke="#888888" stroke-width="0.5" stroke-linejoin="round" stroke-miterlimit="10" x1="463.597" y1="390.588" x2="463.597" y2="393.279"/>
			
				<line fill="none" stroke="#888888" stroke-width="0.5" stroke-linejoin="round" stroke-miterlimit="10" x1="478.654" y1="390.568" x2="478.654" y2="393.258"/>
		</g>
	</g>
	<g>
		
			<line fill="none" stroke="#DDDDDD" stroke-miterlimit="10" stroke-dasharray="3" x1="576.322" y1="182.096" x2="361.601" y2="182.096"/>
		
			<line fill="none" stroke="#DDDDDD" stroke-miterlimit="10" stroke-dasharray="3" x1="576.322" y1="251.259" x2="361.601" y2="251.259"/>
		
			<line fill="none" stroke="#DDDDDD" stroke-miterlimit="10" stroke-dasharray="3" x1="576.322" y1="320.629" x2="361.601" y2="320.629"/>
		<path fill="none" stroke="#888888" stroke-width="0.5" stroke-linejoin="round" stroke-miterlimit="10" d="M365.257,389.896"/>
	</g>
	<polyline fill="none" stroke="#F8766D" stroke-width="2" stroke-linejoin="round" stroke-miterlimit="10" points="374.021,306.097 
		388.961,303.394 403.926,298.33 418.891,314.283 433.832,321.631 448.797,223.353 463.762,306.451 478.702,312.824 
		493.667,327.596 508.632,329.27 523.573,321.009 538.538,305.819 553.503,300.347 568.468,324.41 	"/>
	<path style="opacity:0.11;" fill="#FF7F7F" d="M852.69,351.213H650.368c-10.487,0-18.989-8.502-18.989-18.989V220.398
		c0-10.487,8.502-18.989,18.989-18.989H852.69c10.487,0,18.989,8.502,18.989,18.989v111.826
		C871.679,342.712,863.178,351.213,852.69,351.213z"/>
	<g>
		<path fill="none" stroke="#000000" stroke-width="0.75" stroke-linejoin="round" d="M450.702,221.153
			c3.461-2.469,7.988-5.664,16.348-5.664c0.911,0,1.791-0.038,2.641,0"/>
		<g>
			<path d="M455.721,221.188c-0.006-0.165-0.146-0.294-0.312-0.288l-4.586,0.18l1.777-4.232c0.064-0.153-0.008-0.329-0.16-0.393
				c-0.153-0.064-0.329,0.009-0.393,0.16l-1.959,4.667c-0.04,0.095-0.028,0.203,0.03,0.287c0.058,0.084,0.156,0.133,0.258,0.129
				l5.057-0.198c0.059-0.002,0.114-0.022,0.159-0.053C455.674,221.39,455.725,221.294,455.721,221.188z"/>
		</g>
	</g>
	
		<line fill="none" stroke="#888888" stroke-width="0.5" stroke-linejoin="round" stroke-miterlimit="10" x1="76.808" y1="685.083" x2="289.701" y2="685.083"/>
	<path fill="none" stroke="#FFFFFF" stroke-width="1.07" stroke-linejoin="round" stroke-miterlimit="10" d="M289.701,619.95"/>
	<path fill="none" stroke="#FFFFFF" stroke-width="1.07" stroke-linejoin="round" stroke-miterlimit="10" d="M76.808,619.95"/>
	<path fill="none" stroke="#FFFFFF" stroke-width="1.07" stroke-linejoin="round" stroke-miterlimit="10" d="M289.701,554.828"/>
	<path fill="none" stroke="#FFFFFF" stroke-width="1.07" stroke-linejoin="round" stroke-miterlimit="10" d="M76.808,554.828"/>
	<path fill="none" stroke="#FFFFFF" stroke-width="1.07" stroke-linejoin="round" stroke-miterlimit="10" d="M289.701,489.706"/>
	<path fill="none" stroke="#FFFFFF" stroke-width="1.07" stroke-linejoin="round" stroke-miterlimit="10" d="M76.808,489.706"/>
	<path fill="none" stroke="#FFFFFF" stroke-width="1.07" stroke-linejoin="round" stroke-miterlimit="10" d="M85.793,694.843"/>
	<path fill="none" stroke="#FFFFFF" stroke-width="1.07" stroke-linejoin="round" stroke-miterlimit="10" d="M100.793,694.843"/>
	<path fill="none" stroke="#FFFFFF" stroke-width="1.07" stroke-linejoin="round" stroke-miterlimit="10" d="M130.768,694.843"/>
	<path fill="none" stroke="#FFFFFF" stroke-width="1.07" stroke-linejoin="round" stroke-miterlimit="10" d="M175.742,694.843"/>
	<path fill="none" stroke="#FFFFFF" stroke-width="1.07" stroke-linejoin="round" stroke-miterlimit="10" d="M190.742,694.843"/>
	<path fill="none" stroke="#FFFFFF" stroke-width="1.07" stroke-linejoin="round" stroke-miterlimit="10" d="M205.742,694.843"/>
	<path fill="none" stroke="#FFFFFF" stroke-width="1.07" stroke-linejoin="round" stroke-miterlimit="10" d="M220.717,694.843"/>
	<path fill="none" stroke="#FFFFFF" stroke-width="1.07" stroke-linejoin="round" stroke-miterlimit="10" d="M235.717,694.843"/>
	<path fill="none" stroke="#FFFFFF" stroke-width="1.07" stroke-linejoin="round" stroke-miterlimit="10" d="M250.716,694.843"/>
	<path fill="none" stroke="#FFFFFF" stroke-width="1.07" stroke-linejoin="round" stroke-miterlimit="10" d="M265.692,694.843"/>
	<path fill="none" stroke="#FFFFFF" stroke-width="1.07" stroke-linejoin="round" stroke-miterlimit="10" d="M280.691,694.843"/>
	<rect style="opacity:0.2;" x="100.814" y="480.517" fill="#CCCCCC" width="29.507" height="203.717"/>
	<rect style="opacity:0.11;" x="145.301" y="480.152" fill="#FF7F7F" width="29.507" height="204.496"/>
	<g>
	</g>
	<g>
		<g>
			
				<line fill="none" stroke="#888888" stroke-width="0.5" stroke-linejoin="round" stroke-miterlimit="10" x1="85.503" y1="685.387" x2="85.503" y2="689.044"/>
			
				<line fill="none" stroke="#888888" stroke-width="0.5" stroke-linejoin="round" stroke-miterlimit="10" x1="100.497" y1="685.359" x2="100.497" y2="689.016"/>
			
				<line fill="none" stroke="#888888" stroke-width="0.5" stroke-linejoin="round" stroke-miterlimit="10" x1="115.563" y1="685.331" x2="115.563" y2="688.988"/>
			
				<line fill="none" stroke="#888888" stroke-width="0.5" stroke-linejoin="round" stroke-miterlimit="10" x1="130.659" y1="685.303" x2="130.659" y2="688.96"/>
		</g>
		<g>
			
				<line fill="none" stroke="#888888" stroke-width="0.5" stroke-linejoin="round" stroke-miterlimit="10" x1="205.701" y1="685.387" x2="205.701" y2="689.044"/>
			
				<line fill="none" stroke="#888888" stroke-width="0.5" stroke-linejoin="round" stroke-miterlimit="10" x1="220.695" y1="685.359" x2="220.695" y2="689.016"/>
			
				<line fill="none" stroke="#888888" stroke-width="0.5" stroke-linejoin="round" stroke-miterlimit="10" x1="235.761" y1="685.331" x2="235.761" y2="688.988"/>
			
				<line fill="none" stroke="#888888" stroke-width="0.5" stroke-linejoin="round" stroke-miterlimit="10" x1="250.857" y1="685.303" x2="250.857" y2="688.96"/>
		</g>
		<g>
			
				<line fill="none" stroke="#888888" stroke-width="0.5" stroke-linejoin="round" stroke-miterlimit="10" x1="265.808" y1="685.256" x2="265.808" y2="688.913"/>
			
				<line fill="none" stroke="#888888" stroke-width="0.5" stroke-linejoin="round" stroke-miterlimit="10" x1="280.803" y1="685.228" x2="280.803" y2="688.885"/>
		</g>
		<g>
			
				<line fill="none" stroke="#888888" stroke-width="0.5" stroke-linejoin="round" stroke-miterlimit="10" x1="145.637" y1="685.237" x2="145.637" y2="688.894"/>
			
				<line fill="none" stroke="#888888" stroke-width="0.5" stroke-linejoin="round" stroke-miterlimit="10" x1="160.631" y1="685.209" x2="160.631" y2="688.866"/>
			
				<line fill="none" stroke="#888888" stroke-width="0.5" stroke-linejoin="round" stroke-miterlimit="10" x1="175.697" y1="685.181" x2="175.697" y2="688.838"/>
			
				<line fill="none" stroke="#888888" stroke-width="0.5" stroke-linejoin="round" stroke-miterlimit="10" x1="190.793" y1="685.153" x2="190.793" y2="688.81"/>
		</g>
	</g>
	<g>
		
			<line fill="none" stroke="#DDDDDD" stroke-miterlimit="10" stroke-dasharray="3" x1="287.9" y1="489.178" x2="73.597" y2="489.178"/>
		
			<line fill="none" stroke="#DDDDDD" stroke-miterlimit="10" stroke-dasharray="3" x1="287.9" y1="554.406" x2="73.597" y2="554.406"/>
		
			<line fill="none" stroke="#DDDDDD" stroke-miterlimit="10" stroke-dasharray="3" x1="287.9" y1="619.828" x2="73.597" y2="619.828"/>
	</g>
	<polyline fill="none" stroke="#F8766D" stroke-width="2" stroke-linejoin="round" stroke-miterlimit="10" points="85.793,559.975 
		100.793,559.975 115.793,563.884 130.768,563.229 145.768,553.136 160.767,570.461 175.742,547.213 190.742,541.149 
		205.742,534.702 220.717,532.617 235.717,534.571 250.716,537.573 265.692,535.941 280.691,529.756 	"/>
	<rect style="opacity:0.2;" x="391.754" y="480.74" fill="#CCCCCC" width="29.507" height="204.332"/>
	<rect style="opacity:0.11;" x="437.074" y="480.632" fill="#FF7F7F" width="29.507" height="204.496"/>
	
		<line fill="none" stroke="#888888" stroke-width="0.5" stroke-linejoin="round" stroke-miterlimit="10" x1="367.096" y1="684.981" x2="579.988" y2="684.981"/>
	
		<line fill="none" stroke="#DDDDDD" stroke-miterlimit="10" stroke-dasharray="3" x1="578.187" y1="489.861" x2="363.884" y2="489.861"/>
	
		<line fill="none" stroke="#DDDDDD" stroke-miterlimit="10" stroke-dasharray="3" x1="578.187" y1="555.088" x2="363.884" y2="555.088"/>
	
		<line fill="none" stroke="#DDDDDD" stroke-miterlimit="10" stroke-dasharray="3" x1="578.187" y1="620.51" x2="363.884" y2="620.51"/>
	<polyline fill="none" stroke="#F8766D" stroke-width="2" stroke-linejoin="round" stroke-miterlimit="10" points="376.732,590.06 
		391.731,582.374 406.731,534.054 421.706,533.923 436.706,530.468 451.706,557.373 466.681,533.016 481.681,530.599 
		496.68,526.237 511.655,518.682 526.655,516.335 541.655,522.067 556.63,524.867 571.63,516.99 	"/>
	<g>
		<g>
			<path fill="none" stroke="#888888" stroke-width="0.5" stroke-linejoin="round" stroke-miterlimit="10" d="M376.904,685.156"/>
			
				<line fill="none" stroke="#888888" stroke-width="0.5" stroke-linejoin="round" stroke-miterlimit="10" x1="391.852" y1="685.128" x2="391.852" y2="688.785"/>
			<path fill="none" stroke="#888888" stroke-width="0.5" stroke-linejoin="round" stroke-miterlimit="10" d="M406.871,685.1"/>
			
				<line fill="none" stroke="#888888" stroke-width="0.5" stroke-linejoin="round" stroke-miterlimit="10" x1="421.919" y1="685.072" x2="421.919" y2="688.729"/>
		</g>
		<g>
			
				<line fill="none" stroke="#888888" stroke-width="0.5" stroke-linejoin="round" stroke-miterlimit="10" x1="496.728" y1="685.156" x2="496.728" y2="688.813"/>
			
				<line fill="none" stroke="#888888" stroke-width="0.5" stroke-linejoin="round" stroke-miterlimit="10" x1="511.676" y1="685.128" x2="511.676" y2="688.785"/>
			
				<line fill="none" stroke="#888888" stroke-width="0.5" stroke-linejoin="round" stroke-miterlimit="10" x1="526.695" y1="685.1" x2="526.695" y2="688.757"/>
			
				<line fill="none" stroke="#888888" stroke-width="0.5" stroke-linejoin="round" stroke-miterlimit="10" x1="541.744" y1="685.072" x2="541.744" y2="688.729"/>
		</g>
		<g>
			
				<line fill="none" stroke="#888888" stroke-width="0.5" stroke-linejoin="round" stroke-miterlimit="10" x1="556.649" y1="685.025" x2="556.649" y2="688.682"/>
			
				<line fill="none" stroke="#888888" stroke-width="0.5" stroke-linejoin="round" stroke-miterlimit="10" x1="571.597" y1="684.997" x2="571.597" y2="688.654"/>
		</g>
		<g>
			<path fill="none" stroke="#888888" stroke-width="0.5" stroke-linejoin="round" stroke-miterlimit="10" d="M436.851,685.006"/>
			
				<line fill="none" stroke="#888888" stroke-width="0.5" stroke-linejoin="round" stroke-miterlimit="10" x1="451.799" y1="684.978" x2="451.799" y2="688.635"/>
			
				<line fill="none" stroke="#888888" stroke-width="0.5" stroke-linejoin="round" stroke-miterlimit="10" x1="466.818" y1="684.95" x2="466.818" y2="688.607"/>
			
				<line fill="none" stroke="#888888" stroke-width="0.5" stroke-linejoin="round" stroke-miterlimit="10" x1="481.866" y1="684.922" x2="481.866" y2="688.579"/>
		</g>
	</g>
	
		<line fill="none" stroke="#000000" stroke-width="0.75" stroke-linejoin="round" stroke-miterlimit="10" x1="421.261" y1="577.422" x2="442.776" y2="577.422"/>
	
		<line fill="none" stroke="#FFFFFF" stroke-width="1.07" stroke-linejoin="round" stroke-miterlimit="10" x1="672.538" y1="685.528" x2="884.978" y2="685.528"/>
	
	
	
	<rect style="opacity:0.2;" x="696.472" y="472.116" fill="#CCCCCC" width="29.447" height="212.099"/>
	<rect style="opacity:0.11;" x="741.423" y="472.341" fill="#FF7F7F" width="29.447" height="212.734"/>
	
		<line fill="none" stroke="#888888" stroke-width="0.5" stroke-linejoin="round" stroke-miterlimit="10" x1="673.867" y1="684.947" x2="886.76" y2="684.947"/>
	
		<line fill="none" stroke="#DDDDDD" stroke-miterlimit="10" stroke-dasharray="3" x1="884.958" y1="489.826" x2="670.655" y2="489.826"/>
	
		<line fill="none" stroke="#DDDDDD" stroke-miterlimit="10" stroke-dasharray="3" x1="884.958" y1="555.053" x2="670.655" y2="555.053"/>
	
		<line fill="none" stroke="#DDDDDD" stroke-miterlimit="10" stroke-dasharray="3" x1="884.958" y1="620.476" x2="670.655" y2="620.476"/>
	<polyline fill="none" stroke="#F8766D" stroke-width="2" stroke-linejoin="round" stroke-miterlimit="10" points="681.505,524.887 
		696.474,525.16 711.419,536.54 726.389,535.324 741.358,518.39 756.303,540.134 771.273,529.026 786.242,540.333 801.188,549.827 
		816.157,558.566 831.127,560.599 846.072,558.157 861.041,559.719 876.011,556.806 	"/>
	<g>
		<g>
			
				<line fill="none" stroke="#888888" stroke-width="0.5" stroke-linejoin="round" stroke-miterlimit="10" x1="681.834" y1="685.097" x2="681.834" y2="688.753"/>
			
				<line fill="none" stroke="#888888" stroke-width="0.5" stroke-linejoin="round" stroke-miterlimit="10" x1="696.737" y1="685.069" x2="696.737" y2="688.725"/>
			
				<line fill="none" stroke="#888888" stroke-width="0.5" stroke-linejoin="round" stroke-miterlimit="10" x1="711.71" y1="685.04" x2="711.71" y2="688.697"/>
			
				<line fill="none" stroke="#888888" stroke-width="0.5" stroke-linejoin="round" stroke-miterlimit="10" x1="726.713" y1="685.012" x2="726.713" y2="688.669"/>
		</g>
		<g>
			
				<line fill="none" stroke="#888888" stroke-width="0.5" stroke-linejoin="round" stroke-miterlimit="10" x1="801.294" y1="685.097" x2="801.294" y2="688.753"/>
			
				<line fill="none" stroke="#888888" stroke-width="0.5" stroke-linejoin="round" stroke-miterlimit="10" x1="816.196" y1="685.069" x2="816.196" y2="688.725"/>
			
				<line fill="none" stroke="#888888" stroke-width="0.5" stroke-linejoin="round" stroke-miterlimit="10" x1="831.169" y1="685.04" x2="831.169" y2="688.697"/>
			
				<line fill="none" stroke="#888888" stroke-width="0.5" stroke-linejoin="round" stroke-miterlimit="10" x1="846.172" y1="685.012" x2="846.172" y2="688.669"/>
		</g>
		<g>
			
				<line fill="none" stroke="#888888" stroke-width="0.5" stroke-linejoin="round" stroke-miterlimit="10" x1="861.032" y1="684.965" x2="861.032" y2="688.622"/>
			
				<line fill="none" stroke="#888888" stroke-width="0.5" stroke-linejoin="round" stroke-miterlimit="10" x1="875.934" y1="684.937" x2="875.934" y2="688.594"/>
		</g>
		<g>
			
				<line fill="none" stroke="#888888" stroke-width="0.5" stroke-linejoin="round" stroke-miterlimit="10" x1="741.599" y1="684.947" x2="741.599" y2="688.603"/>
			
				<line fill="none" stroke="#888888" stroke-width="0.5" stroke-linejoin="round" stroke-miterlimit="10" x1="756.501" y1="684.919" x2="756.501" y2="688.575"/>
			
				<line fill="none" stroke="#888888" stroke-width="0.5" stroke-linejoin="round" stroke-miterlimit="10" x1="771.475" y1="684.89" x2="771.475" y2="688.547"/>
			
				<line fill="none" stroke="#888888" stroke-width="0.5" stroke-linejoin="round" stroke-miterlimit="10" x1="786.478" y1="684.862" x2="786.478" y2="688.519"/>
		</g>
	</g>
	<rect style="opacity:0.2;" x="990.961" y="471.4" fill="#CCCCCC" width="29.447" height="212.879"/>
	<path fill="none" stroke="#FFFFFF" stroke-width="1.07" stroke-linejoin="round" stroke-miterlimit="10" d="M990.965,691.635"/>
	<path fill="none" stroke="#FFFFFF" stroke-width="1.07" stroke-linejoin="round" stroke-miterlimit="10" d="M1005.91,691.635"/>
	<path fill="none" stroke="#FFFFFF" stroke-width="1.07" stroke-linejoin="round" stroke-miterlimit="10" d="M1020.879,691.635"/>
	<path fill="none" stroke="#FFFFFF" stroke-width="1.07" stroke-linejoin="round" stroke-miterlimit="10" d="M1035.849,691.635"/>
	<path fill="none" stroke="#FFFFFF" stroke-width="1.07" stroke-linejoin="round" stroke-miterlimit="10" d="M1050.794,691.635"/>
	<path fill="none" stroke="#FFFFFF" stroke-width="1.07" stroke-linejoin="round" stroke-miterlimit="10" d="M1065.763,691.635"/>
	<polyline fill="none" stroke="#F8766D" stroke-width="2" stroke-linejoin="round" stroke-miterlimit="10" points="975.995,610.768 
		990.965,604.397 1005.91,599.996 1020.879,594.841 1035.849,601.411 1050.794,620.115 1065.763,607.918 1080.733,600.803 
		1095.678,597.083 1110.647,596.737 1125.617,596.737 1140.562,597.617 1155.531,598.498 1170.501,594.641 	"/>
	<rect style="opacity:0.11;" x="1035.913" y="470.664" fill="#FF7F7F" width="29.447" height="213.167"/>
	
		<line fill="none" stroke="#888888" stroke-width="0.5" stroke-linejoin="round" stroke-miterlimit="10" x1="965.348" y1="684.688" x2="1181.453" y2="684.688"/>
	
		<line fill="none" stroke="#DDDDDD" stroke-miterlimit="10" stroke-dasharray="3" x1="1179.651" y1="489.567" x2="965.348" y2="489.567"/>
	
		<line fill="none" stroke="#DDDDDD" stroke-miterlimit="10" stroke-dasharray="3" x1="1179.651" y1="554.794" x2="965.348" y2="554.794"/>
	
		<line fill="none" stroke="#DDDDDD" stroke-miterlimit="10" stroke-dasharray="3" x1="1179.651" y1="620.217" x2="965.348" y2="620.217"/>
	<g>
		<g>
			
				<line fill="none" stroke="#888888" stroke-width="0.5" stroke-linejoin="round" stroke-miterlimit="10" x1="974.409" y1="684.838" x2="974.409" y2="688.495"/>
			
				<line fill="none" stroke="#888888" stroke-width="0.5" stroke-linejoin="round" stroke-miterlimit="10" x1="989.312" y1="684.81" x2="989.312" y2="688.466"/>
			
				<line fill="none" stroke="#888888" stroke-width="0.5" stroke-linejoin="round" stroke-miterlimit="10" x1="1004.285" y1="684.782" x2="1004.285" y2="688.438"/>
			
				<line fill="none" stroke="#888888" stroke-width="0.5" stroke-linejoin="round" stroke-miterlimit="10" x1="1019.288" y1="684.753" x2="1019.288" y2="688.41"/>
		</g>
		<g>
			
				<line fill="none" stroke="#888888" stroke-width="0.5" stroke-linejoin="round" stroke-miterlimit="10" x1="1093.869" y1="684.838" x2="1093.869" y2="688.495"/>
			
				<line fill="none" stroke="#888888" stroke-width="0.5" stroke-linejoin="round" stroke-miterlimit="10" x1="1108.771" y1="684.81" x2="1108.771" y2="688.466"/>
			
				<line fill="none" stroke="#888888" stroke-width="0.5" stroke-linejoin="round" stroke-miterlimit="10" x1="1123.744" y1="684.782" x2="1123.744" y2="688.438"/>
			
				<line fill="none" stroke="#888888" stroke-width="0.5" stroke-linejoin="round" stroke-miterlimit="10" x1="1138.747" y1="684.753" x2="1138.747" y2="688.41"/>
		</g>
		<g>
			
				<line fill="none" stroke="#888888" stroke-width="0.5" stroke-linejoin="round" stroke-miterlimit="10" x1="1153.607" y1="684.707" x2="1153.607" y2="688.363"/>
			
				<line fill="none" stroke="#888888" stroke-width="0.5" stroke-linejoin="round" stroke-miterlimit="10" x1="1168.509" y1="684.678" x2="1168.509" y2="688.335"/>
		</g>
		<g>
			
				<line fill="none" stroke="#888888" stroke-width="0.5" stroke-linejoin="round" stroke-miterlimit="10" x1="1034.174" y1="684.688" x2="1034.174" y2="688.345"/>
			
				<line fill="none" stroke="#888888" stroke-width="0.5" stroke-linejoin="round" stroke-miterlimit="10" x1="1049.076" y1="684.66" x2="1049.076" y2="688.316"/>
			
				<line fill="none" stroke="#888888" stroke-width="0.5" stroke-linejoin="round" stroke-miterlimit="10" x1="1064.049" y1="684.632" x2="1064.049" y2="688.288"/>
			
				<line fill="none" stroke="#888888" stroke-width="0.5" stroke-linejoin="round" stroke-miterlimit="10" x1="1079.052" y1="684.603" x2="1079.052" y2="688.26"/>
		</g>
	</g>
</g>
<style>
#g-revenue-breakdown-1200-img rect, #g-revenue-breakdown-1200-img circle, #g-revenue-breakdown-1200-img path, #g-revenue-breakdown-1200-img line, #g-revenue-breakdown-1200-img polyline { vector-effect: non-scaling-stroke; }
</style>
</svg>

