<?xml version="1.0" encoding="utf-8"?>
<!-- Generator: Adobe Illustrator 23.1.1, SVG Export Plug-In . SVG Version: 6.00 Build 0)  -->
<svg version="1.2" baseProfile="tiny" id="g-revenue-breakdown-1200-img" xmlns="http://www.w3.org/2000/svg" xmlns:xlink="http://www.w3.org/1999/xlink"
	 x="0px" y="0px" viewBox="0 0 1200 730" xml:space="preserve">
<g>
	
		<line fill="none" stroke="#888888" stroke-width="0.5" stroke-linejoin="round" stroke-miterlimit="10" x1="363.429" y1="371.74" x2="576.322" y2="371.74"/>
	<rect style="opacity:0.2;" x="389.445" y="152.751" fill="#CCCCCC" width="28.87" height="218.144"/>
	<rect style="opacity:0.11;" x="434.47" y="152.887" fill="#FF7F7F" width="28.662" height="217.984"/>
	<g>
		<g>
			
				<line fill="none" stroke="#888888" stroke-width="0.5" stroke-linejoin="round" stroke-miterlimit="10" x1="373.635" y1="371.74" x2="373.635" y2="374.431"/>
			
				<line fill="none" stroke="#888888" stroke-width="0.5" stroke-linejoin="round" stroke-miterlimit="10" x1="388.591" y1="371.719" x2="388.591" y2="374.41"/>
			
				<line fill="none" stroke="#888888" stroke-width="0.5" stroke-linejoin="round" stroke-miterlimit="10" x1="403.618" y1="371.699" x2="403.618" y2="374.389"/>
			
				<line fill="none" stroke="#888888" stroke-width="0.5" stroke-linejoin="round" stroke-miterlimit="10" x1="418.675" y1="371.678" x2="418.675" y2="374.369"/>
		</g>
		<g>
			
				<line fill="none" stroke="#888888" stroke-width="0.5" stroke-linejoin="round" stroke-miterlimit="10" x1="493.523" y1="371.74" x2="493.523" y2="374.431"/>
			
				<line fill="none" stroke="#888888" stroke-width="0.5" stroke-linejoin="round" stroke-miterlimit="10" x1="508.479" y1="371.719" x2="508.479" y2="374.41"/>
			
				<line fill="none" stroke="#888888" stroke-width="0.5" stroke-linejoin="round" stroke-miterlimit="10" x1="523.506" y1="371.699" x2="523.506" y2="374.389"/>
			
				<line fill="none" stroke="#888888" stroke-width="0.5" stroke-linejoin="round" stroke-miterlimit="10" x1="538.563" y1="371.678" x2="538.563" y2="374.369"/>
		</g>
		<g>
			
				<line fill="none" stroke="#888888" stroke-width="0.5" stroke-linejoin="round" stroke-miterlimit="10" x1="553.476" y1="371.643" x2="553.476" y2="374.334"/>
			
				<line fill="none" stroke="#888888" stroke-width="0.5" stroke-linejoin="round" stroke-miterlimit="10" x1="568.432" y1="371.623" x2="568.432" y2="374.313"/>
		</g>
		<g>
			
				<line fill="none" stroke="#888888" stroke-width="0.5" stroke-linejoin="round" stroke-miterlimit="10" x1="433.614" y1="371.63" x2="433.614" y2="374.32"/>
			
				<line fill="none" stroke="#888888" stroke-width="0.5" stroke-linejoin="round" stroke-miterlimit="10" x1="448.57" y1="371.609" x2="448.57" y2="374.3"/>
			
				<line fill="none" stroke="#888888" stroke-width="0.5" stroke-linejoin="round" stroke-miterlimit="10" x1="463.597" y1="371.588" x2="463.597" y2="374.279"/>
			
				<line fill="none" stroke="#888888" stroke-width="0.5" stroke-linejoin="round" stroke-miterlimit="10" x1="478.654" y1="371.568" x2="478.654" y2="374.258"/>
		</g>
	</g>
	<g>
		
			<line fill="none" stroke="#DDDDDD" stroke-miterlimit="10" stroke-dasharray="3" x1="576.322" y1="163.096" x2="361.601" y2="163.096"/>
		
			<line fill="none" stroke="#DDDDDD" stroke-miterlimit="10" stroke-dasharray="3" x1="576.322" y1="232.259" x2="361.601" y2="232.259"/>
		
			<line fill="none" stroke="#DDDDDD" stroke-miterlimit="10" stroke-dasharray="3" x1="576.322" y1="301.629" x2="361.601" y2="301.629"/>
		<path fill="none" stroke="#888888" stroke-width="0.5" stroke-linejoin="round" stroke-miterlimit="10" d="M365.257,370.896"/>
	</g>
	<polyline fill="none" stroke="#F8766D" stroke-width="2" stroke-linejoin="round" stroke-miterlimit="10" points="374.021,287.097 
		388.961,284.394 403.926,279.33 418.891,295.283 433.832,302.631 448.797,204.353 463.762,287.451 478.702,293.824 
		493.667,308.596 508.632,310.27 523.573,302.009 538.538,286.819 553.503,281.347 568.468,305.41 	"/>
	<path style="opacity:0.11;" fill="#FF7F7F" d="M852.69,332.213H650.368c-10.487,0-18.989-8.502-18.989-18.989V201.398
		c0-10.487,8.502-18.989,18.989-18.989H852.69c10.487,0,18.989,8.502,18.989,18.989v111.826
		C871.679,323.712,863.178,332.213,852.69,332.213z"/>
	<g>
		<path fill="none" stroke="#000000" stroke-linejoin="round" d="M450.853,201.954c5.518-4.622,12.714-10.715,26.135-10.715
			c1.445,0,2.842-0.072,4.191,0"/>
		<g>
			<path d="M457.528,201.487c-0.025-0.219-0.224-0.376-0.444-0.351l-6.079,0.71l1.927-5.809c0.07-0.21-0.044-0.437-0.254-0.506
				c-0.21-0.069-0.436,0.046-0.506,0.254l-2.125,6.405c-0.043,0.13-0.017,0.273,0.07,0.379c0.086,0.106,0.221,0.161,0.357,0.145
				l6.703-0.783c0.078-0.009,0.149-0.041,0.206-0.087C457.485,201.76,457.544,201.628,457.528,201.487z"/>
		</g>
	</g>
	
		<line fill="none" stroke="#888888" stroke-width="0.5" stroke-linejoin="round" stroke-miterlimit="10" x1="76.808" y1="666.083" x2="289.701" y2="666.083"/>
	<path fill="none" stroke="#FFFFFF" stroke-width="1.07" stroke-linejoin="round" stroke-miterlimit="10" d="M289.701,600.95"/>
	<path fill="none" stroke="#FFFFFF" stroke-width="1.07" stroke-linejoin="round" stroke-miterlimit="10" d="M76.808,600.95"/>
	<path fill="none" stroke="#FFFFFF" stroke-width="1.07" stroke-linejoin="round" stroke-miterlimit="10" d="M289.701,535.828"/>
	<path fill="none" stroke="#FFFFFF" stroke-width="1.07" stroke-linejoin="round" stroke-miterlimit="10" d="M76.808,535.828"/>
	<path fill="none" stroke="#FFFFFF" stroke-width="1.07" stroke-linejoin="round" stroke-miterlimit="10" d="M289.701,470.706"/>
	<path fill="none" stroke="#FFFFFF" stroke-width="1.07" stroke-linejoin="round" stroke-miterlimit="10" d="M76.808,470.706"/>
	<path fill="none" stroke="#FFFFFF" stroke-width="1.07" stroke-linejoin="round" stroke-miterlimit="10" d="M85.793,675.843"/>
	<path fill="none" stroke="#FFFFFF" stroke-width="1.07" stroke-linejoin="round" stroke-miterlimit="10" d="M100.793,675.843"/>
	<path fill="none" stroke="#FFFFFF" stroke-width="1.07" stroke-linejoin="round" stroke-miterlimit="10" d="M130.768,675.843"/>
	<path fill="none" stroke="#FFFFFF" stroke-width="1.07" stroke-linejoin="round" stroke-miterlimit="10" d="M175.742,675.843"/>
	<path fill="none" stroke="#FFFFFF" stroke-width="1.07" stroke-linejoin="round" stroke-miterlimit="10" d="M190.742,675.843"/>
	<path fill="none" stroke="#FFFFFF" stroke-width="1.07" stroke-linejoin="round" stroke-miterlimit="10" d="M205.742,675.843"/>
	<path fill="none" stroke="#FFFFFF" stroke-width="1.07" stroke-linejoin="round" stroke-miterlimit="10" d="M220.717,675.843"/>
	<path fill="none" stroke="#FFFFFF" stroke-width="1.07" stroke-linejoin="round" stroke-miterlimit="10" d="M235.717,675.843"/>
	<path fill="none" stroke="#FFFFFF" stroke-width="1.07" stroke-linejoin="round" stroke-miterlimit="10" d="M250.716,675.843"/>
	<path fill="none" stroke="#FFFFFF" stroke-width="1.07" stroke-linejoin="round" stroke-miterlimit="10" d="M265.692,675.843"/>
	<path fill="none" stroke="#FFFFFF" stroke-width="1.07" stroke-linejoin="round" stroke-miterlimit="10" d="M280.691,675.843"/>
	<rect style="opacity:0.2;" x="100.814" y="461.517" fill="#CCCCCC" width="29.507" height="203.717"/>
	<rect style="opacity:0.11;" x="145.301" y="461.152" fill="#FF7F7F" width="29.507" height="204.496"/>
	<g>
	</g>
	<g>
		<g>
			
				<line fill="none" stroke="#888888" stroke-width="0.5" stroke-linejoin="round" stroke-miterlimit="10" x1="85.503" y1="666.387" x2="85.503" y2="670.044"/>
			
				<line fill="none" stroke="#888888" stroke-width="0.5" stroke-linejoin="round" stroke-miterlimit="10" x1="100.497" y1="666.359" x2="100.497" y2="670.016"/>
			
				<line fill="none" stroke="#888888" stroke-width="0.5" stroke-linejoin="round" stroke-miterlimit="10" x1="115.563" y1="666.331" x2="115.563" y2="669.988"/>
			
				<line fill="none" stroke="#888888" stroke-width="0.5" stroke-linejoin="round" stroke-miterlimit="10" x1="130.659" y1="666.303" x2="130.659" y2="669.96"/>
		</g>
		<g>
			
				<line fill="none" stroke="#888888" stroke-width="0.5" stroke-linejoin="round" stroke-miterlimit="10" x1="205.701" y1="666.387" x2="205.701" y2="670.044"/>
			
				<line fill="none" stroke="#888888" stroke-width="0.5" stroke-linejoin="round" stroke-miterlimit="10" x1="220.695" y1="666.359" x2="220.695" y2="670.016"/>
			
				<line fill="none" stroke="#888888" stroke-width="0.5" stroke-linejoin="round" stroke-miterlimit="10" x1="235.761" y1="666.331" x2="235.761" y2="669.988"/>
			
				<line fill="none" stroke="#888888" stroke-width="0.5" stroke-linejoin="round" stroke-miterlimit="10" x1="250.857" y1="666.303" x2="250.857" y2="669.96"/>
		</g>
		<g>
			
				<line fill="none" stroke="#888888" stroke-width="0.5" stroke-linejoin="round" stroke-miterlimit="10" x1="265.808" y1="666.256" x2="265.808" y2="669.913"/>
			
				<line fill="none" stroke="#888888" stroke-width="0.5" stroke-linejoin="round" stroke-miterlimit="10" x1="280.803" y1="666.228" x2="280.803" y2="669.885"/>
		</g>
		<g>
			
				<line fill="none" stroke="#888888" stroke-width="0.5" stroke-linejoin="round" stroke-miterlimit="10" x1="145.637" y1="666.237" x2="145.637" y2="669.894"/>
			
				<line fill="none" stroke="#888888" stroke-width="0.5" stroke-linejoin="round" stroke-miterlimit="10" x1="160.631" y1="666.209" x2="160.631" y2="669.866"/>
			
				<line fill="none" stroke="#888888" stroke-width="0.5" stroke-linejoin="round" stroke-miterlimit="10" x1="175.697" y1="666.181" x2="175.697" y2="669.838"/>
			
				<line fill="none" stroke="#888888" stroke-width="0.5" stroke-linejoin="round" stroke-miterlimit="10" x1="190.793" y1="666.153" x2="190.793" y2="669.81"/>
		</g>
	</g>
	<g>
		
			<line fill="none" stroke="#DDDDDD" stroke-miterlimit="10" stroke-dasharray="3" x1="287.9" y1="470.178" x2="73.597" y2="470.178"/>
		
			<line fill="none" stroke="#DDDDDD" stroke-miterlimit="10" stroke-dasharray="3" x1="287.9" y1="535.406" x2="73.597" y2="535.406"/>
		
			<line fill="none" stroke="#DDDDDD" stroke-miterlimit="10" stroke-dasharray="3" x1="287.9" y1="600.828" x2="73.597" y2="600.828"/>
	</g>
	<polyline fill="none" stroke="#F8766D" stroke-width="2" stroke-linejoin="round" stroke-miterlimit="10" points="85.793,540.975 
		100.793,540.975 115.793,544.884 130.768,544.229 145.768,534.136 160.767,551.461 175.742,528.213 190.742,522.149 
		205.742,515.702 220.717,513.617 235.717,515.571 250.716,518.573 265.692,516.941 280.691,510.756 	"/>
	<rect style="opacity:0.2;" x="391.754" y="461.74" fill="#CCCCCC" width="29.507" height="204.332"/>
	<rect style="opacity:0.11;" x="437.074" y="461.632" fill="#FF7F7F" width="29.507" height="204.496"/>
	
		<line fill="none" stroke="#888888" stroke-width="0.5" stroke-linejoin="round" stroke-miterlimit="10" x1="367.096" y1="665.981" x2="579.988" y2="665.981"/>
	
		<line fill="none" stroke="#DDDDDD" stroke-miterlimit="10" stroke-dasharray="3" x1="578.187" y1="470.861" x2="363.884" y2="470.861"/>
	
		<line fill="none" stroke="#DDDDDD" stroke-miterlimit="10" stroke-dasharray="3" x1="578.187" y1="536.088" x2="363.884" y2="536.088"/>
	
		<line fill="none" stroke="#DDDDDD" stroke-miterlimit="10" stroke-dasharray="3" x1="578.187" y1="601.51" x2="363.884" y2="601.51"/>
	<polyline fill="none" stroke="#F8766D" stroke-width="2" stroke-linejoin="round" stroke-miterlimit="10" points="376.732,571.06 
		391.731,563.374 406.731,515.054 421.706,514.923 436.706,511.468 451.706,538.373 466.681,514.016 481.681,511.599 
		496.68,507.237 511.655,499.682 526.655,497.335 541.655,503.067 556.63,505.867 571.63,497.99 	"/>
	<g>
		<g>
			<path fill="none" stroke="#888888" stroke-width="0.5" stroke-linejoin="round" stroke-miterlimit="10" d="M376.904,666.156"/>
			
				<line fill="none" stroke="#888888" stroke-width="0.5" stroke-linejoin="round" stroke-miterlimit="10" x1="391.852" y1="666.128" x2="391.852" y2="669.785"/>
			<path fill="none" stroke="#888888" stroke-width="0.5" stroke-linejoin="round" stroke-miterlimit="10" d="M406.871,666.1"/>
			
				<line fill="none" stroke="#888888" stroke-width="0.5" stroke-linejoin="round" stroke-miterlimit="10" x1="421.919" y1="666.072" x2="421.919" y2="669.729"/>
		</g>
		<g>
			
				<line fill="none" stroke="#888888" stroke-width="0.5" stroke-linejoin="round" stroke-miterlimit="10" x1="496.728" y1="666.156" x2="496.728" y2="669.813"/>
			
				<line fill="none" stroke="#888888" stroke-width="0.5" stroke-linejoin="round" stroke-miterlimit="10" x1="511.676" y1="666.128" x2="511.676" y2="669.785"/>
			
				<line fill="none" stroke="#888888" stroke-width="0.5" stroke-linejoin="round" stroke-miterlimit="10" x1="526.695" y1="666.1" x2="526.695" y2="669.757"/>
			
				<line fill="none" stroke="#888888" stroke-width="0.5" stroke-linejoin="round" stroke-miterlimit="10" x1="541.744" y1="666.072" x2="541.744" y2="669.729"/>
		</g>
		<g>
			
				<line fill="none" stroke="#888888" stroke-width="0.5" stroke-linejoin="round" stroke-miterlimit="10" x1="556.649" y1="666.025" x2="556.649" y2="669.682"/>
			
				<line fill="none" stroke="#888888" stroke-width="0.5" stroke-linejoin="round" stroke-miterlimit="10" x1="571.597" y1="665.997" x2="571.597" y2="669.654"/>
		</g>
		<g>
			<path fill="none" stroke="#888888" stroke-width="0.5" stroke-linejoin="round" stroke-miterlimit="10" d="M436.851,666.006"/>
			
				<line fill="none" stroke="#888888" stroke-width="0.5" stroke-linejoin="round" stroke-miterlimit="10" x1="451.799" y1="665.978" x2="451.799" y2="669.635"/>
			
				<line fill="none" stroke="#888888" stroke-width="0.5" stroke-linejoin="round" stroke-miterlimit="10" x1="466.818" y1="665.95" x2="466.818" y2="669.607"/>
			
				<line fill="none" stroke="#888888" stroke-width="0.5" stroke-linejoin="round" stroke-miterlimit="10" x1="481.866" y1="665.922" x2="481.866" y2="669.579"/>
		</g>
	</g>
	
		<line fill="none" stroke="#000000" stroke-width="0.75" stroke-linejoin="round" stroke-miterlimit="10" x1="421.261" y1="558.422" x2="442.776" y2="558.422"/>
	
		<line fill="none" stroke="#FFFFFF" stroke-width="1.07" stroke-linejoin="round" stroke-miterlimit="10" x1="672.538" y1="666.528" x2="884.978" y2="666.528"/>
	
	
	
	<rect style="opacity:0.2;" x="696.472" y="453.116" fill="#CCCCCC" width="29.447" height="212.099"/>
	<rect style="opacity:0.11;" x="741.423" y="453.341" fill="#FF7F7F" width="29.447" height="212.734"/>
	
		<line fill="none" stroke="#888888" stroke-width="0.5" stroke-linejoin="round" stroke-miterlimit="10" x1="673.867" y1="665.947" x2="886.76" y2="665.947"/>
	
		<line fill="none" stroke="#DDDDDD" stroke-miterlimit="10" stroke-dasharray="3" x1="884.958" y1="470.826" x2="670.655" y2="470.826"/>
	
		<line fill="none" stroke="#DDDDDD" stroke-miterlimit="10" stroke-dasharray="3" x1="884.958" y1="536.053" x2="670.655" y2="536.053"/>
	
		<line fill="none" stroke="#DDDDDD" stroke-miterlimit="10" stroke-dasharray="3" x1="884.958" y1="601.476" x2="670.655" y2="601.476"/>
	<polyline fill="none" stroke="#F8766D" stroke-width="2" stroke-linejoin="round" stroke-miterlimit="10" points="681.505,505.887 
		696.474,506.16 711.419,517.54 726.389,516.324 741.358,499.39 756.303,521.134 771.273,510.026 786.242,521.333 801.188,530.827 
		816.157,539.566 831.127,541.599 846.072,539.157 861.041,540.719 876.011,537.806 	"/>
	<g>
		<g>
			
				<line fill="none" stroke="#888888" stroke-width="0.5" stroke-linejoin="round" stroke-miterlimit="10" x1="681.834" y1="666.097" x2="681.834" y2="669.753"/>
			
				<line fill="none" stroke="#888888" stroke-width="0.5" stroke-linejoin="round" stroke-miterlimit="10" x1="696.737" y1="666.069" x2="696.737" y2="669.725"/>
			
				<line fill="none" stroke="#888888" stroke-width="0.5" stroke-linejoin="round" stroke-miterlimit="10" x1="711.71" y1="666.04" x2="711.71" y2="669.697"/>
			
				<line fill="none" stroke="#888888" stroke-width="0.5" stroke-linejoin="round" stroke-miterlimit="10" x1="726.713" y1="666.012" x2="726.713" y2="669.669"/>
		</g>
		<g>
			
				<line fill="none" stroke="#888888" stroke-width="0.5" stroke-linejoin="round" stroke-miterlimit="10" x1="801.294" y1="666.097" x2="801.294" y2="669.753"/>
			
				<line fill="none" stroke="#888888" stroke-width="0.5" stroke-linejoin="round" stroke-miterlimit="10" x1="816.196" y1="666.069" x2="816.196" y2="669.725"/>
			
				<line fill="none" stroke="#888888" stroke-width="0.5" stroke-linejoin="round" stroke-miterlimit="10" x1="831.169" y1="666.04" x2="831.169" y2="669.697"/>
			
				<line fill="none" stroke="#888888" stroke-width="0.5" stroke-linejoin="round" stroke-miterlimit="10" x1="846.172" y1="666.012" x2="846.172" y2="669.669"/>
		</g>
		<g>
			
				<line fill="none" stroke="#888888" stroke-width="0.5" stroke-linejoin="round" stroke-miterlimit="10" x1="861.032" y1="665.965" x2="861.032" y2="669.622"/>
			
				<line fill="none" stroke="#888888" stroke-width="0.5" stroke-linejoin="round" stroke-miterlimit="10" x1="875.934" y1="665.937" x2="875.934" y2="669.594"/>
		</g>
		<g>
			
				<line fill="none" stroke="#888888" stroke-width="0.5" stroke-linejoin="round" stroke-miterlimit="10" x1="741.599" y1="665.947" x2="741.599" y2="669.603"/>
			
				<line fill="none" stroke="#888888" stroke-width="0.5" stroke-linejoin="round" stroke-miterlimit="10" x1="756.501" y1="665.919" x2="756.501" y2="669.575"/>
			
				<line fill="none" stroke="#888888" stroke-width="0.5" stroke-linejoin="round" stroke-miterlimit="10" x1="771.475" y1="665.89" x2="771.475" y2="669.547"/>
			
				<line fill="none" stroke="#888888" stroke-width="0.5" stroke-linejoin="round" stroke-miterlimit="10" x1="786.478" y1="665.862" x2="786.478" y2="669.519"/>
		</g>
	</g>
	<rect style="opacity:0.2;" x="990.961" y="452.4" fill="#CCCCCC" width="29.447" height="212.879"/>
	<path fill="none" stroke="#FFFFFF" stroke-width="1.07" stroke-linejoin="round" stroke-miterlimit="10" d="M990.965,672.635"/>
	<path fill="none" stroke="#FFFFFF" stroke-width="1.07" stroke-linejoin="round" stroke-miterlimit="10" d="M1005.91,672.635"/>
	<path fill="none" stroke="#FFFFFF" stroke-width="1.07" stroke-linejoin="round" stroke-miterlimit="10" d="M1020.879,672.635"/>
	<path fill="none" stroke="#FFFFFF" stroke-width="1.07" stroke-linejoin="round" stroke-miterlimit="10" d="M1035.849,672.635"/>
	<path fill="none" stroke="#FFFFFF" stroke-width="1.07" stroke-linejoin="round" stroke-miterlimit="10" d="M1050.794,672.635"/>
	<path fill="none" stroke="#FFFFFF" stroke-width="1.07" stroke-linejoin="round" stroke-miterlimit="10" d="M1065.763,672.635"/>
	<polyline fill="none" stroke="#F8766D" stroke-width="2" stroke-linejoin="round" stroke-miterlimit="10" points="975.995,591.768 
		990.965,585.397 1005.91,580.996 1020.879,575.841 1035.849,582.411 1050.794,601.115 1065.763,588.918 1080.733,581.803 
		1095.678,578.083 1110.647,577.737 1125.617,577.737 1140.562,578.617 1155.531,579.498 1170.501,575.641 	"/>
	<rect style="opacity:0.11;" x="1035.913" y="451.664" fill="#FF7F7F" width="29.447" height="213.167"/>
	
		<line fill="none" stroke="#888888" stroke-width="0.5" stroke-linejoin="round" stroke-miterlimit="10" x1="965.348" y1="665.688" x2="1181.453" y2="665.688"/>
	
		<line fill="none" stroke="#DDDDDD" stroke-miterlimit="10" stroke-dasharray="3" x1="1179.651" y1="470.567" x2="965.348" y2="470.567"/>
	
		<line fill="none" stroke="#DDDDDD" stroke-miterlimit="10" stroke-dasharray="3" x1="1179.651" y1="535.794" x2="965.348" y2="535.794"/>
	
		<line fill="none" stroke="#DDDDDD" stroke-miterlimit="10" stroke-dasharray="3" x1="1179.651" y1="601.217" x2="965.348" y2="601.217"/>
	<g>
		<g>
			
				<line fill="none" stroke="#888888" stroke-width="0.5" stroke-linejoin="round" stroke-miterlimit="10" x1="974.409" y1="665.838" x2="974.409" y2="669.495"/>
			
				<line fill="none" stroke="#888888" stroke-width="0.5" stroke-linejoin="round" stroke-miterlimit="10" x1="989.312" y1="665.81" x2="989.312" y2="669.466"/>
			
				<line fill="none" stroke="#888888" stroke-width="0.5" stroke-linejoin="round" stroke-miterlimit="10" x1="1004.285" y1="665.782" x2="1004.285" y2="669.438"/>
			
				<line fill="none" stroke="#888888" stroke-width="0.5" stroke-linejoin="round" stroke-miterlimit="10" x1="1019.288" y1="665.753" x2="1019.288" y2="669.41"/>
		</g>
		<g>
			
				<line fill="none" stroke="#888888" stroke-width="0.5" stroke-linejoin="round" stroke-miterlimit="10" x1="1093.869" y1="665.838" x2="1093.869" y2="669.495"/>
			
				<line fill="none" stroke="#888888" stroke-width="0.5" stroke-linejoin="round" stroke-miterlimit="10" x1="1108.771" y1="665.81" x2="1108.771" y2="669.466"/>
			
				<line fill="none" stroke="#888888" stroke-width="0.5" stroke-linejoin="round" stroke-miterlimit="10" x1="1123.744" y1="665.782" x2="1123.744" y2="669.438"/>
			
				<line fill="none" stroke="#888888" stroke-width="0.5" stroke-linejoin="round" stroke-miterlimit="10" x1="1138.747" y1="665.753" x2="1138.747" y2="669.41"/>
		</g>
		<g>
			
				<line fill="none" stroke="#888888" stroke-width="0.5" stroke-linejoin="round" stroke-miterlimit="10" x1="1153.607" y1="665.707" x2="1153.607" y2="669.363"/>
			
				<line fill="none" stroke="#888888" stroke-width="0.5" stroke-linejoin="round" stroke-miterlimit="10" x1="1168.509" y1="665.678" x2="1168.509" y2="669.335"/>
		</g>
		<g>
			
				<line fill="none" stroke="#888888" stroke-width="0.5" stroke-linejoin="round" stroke-miterlimit="10" x1="1034.174" y1="665.688" x2="1034.174" y2="669.345"/>
			
				<line fill="none" stroke="#888888" stroke-width="0.5" stroke-linejoin="round" stroke-miterlimit="10" x1="1049.076" y1="665.66" x2="1049.076" y2="669.316"/>
			
				<line fill="none" stroke="#888888" stroke-width="0.5" stroke-linejoin="round" stroke-miterlimit="10" x1="1064.049" y1="665.632" x2="1064.049" y2="669.288"/>
			
				<line fill="none" stroke="#888888" stroke-width="0.5" stroke-linejoin="round" stroke-miterlimit="10" x1="1079.052" y1="665.603" x2="1079.052" y2="669.26"/>
		</g>
	</g>
</g>
<style>
#g-revenue-breakdown-1200-img rect, #g-revenue-breakdown-1200-img circle, #g-revenue-breakdown-1200-img path, #g-revenue-breakdown-1200-img line, #g-revenue-breakdown-1200-img polyline { vector-effect: non-scaling-stroke; }
</style>
</svg>

