<?xml version="1.0" encoding="utf-8"?>
<!-- Generator: Adobe Illustrator 23.1.1, SVG Export Plug-In . SVG Version: 6.00 Build 0)  -->
<svg version="1.2" baseProfile="tiny" id="g-revenue-breakdown-700-img" xmlns="http://www.w3.org/2000/svg" xmlns:xlink="http://www.w3.org/1999/xlink"
	 x="0px" y="0px" viewBox="0 0 700 1060" xml:space="preserve">
<g>
	
		<line fill="none" stroke="#888888" stroke-width="0.5" stroke-linejoin="round" stroke-miterlimit="10" x1="115.572" y1="375.039" x2="328.465" y2="375.039"/>
	<rect style="opacity:0.2;" x="141.588" y="156.051" fill="#CCCCCC" width="28.87" height="218.144"/>
	<rect style="opacity:0.11;" x="186.613" y="156.187" fill="#FF7F7F" width="28.662" height="217.984"/>
	<g>
		<g>
			
				<line fill="none" stroke="#888888" stroke-width="0.5" stroke-linejoin="round" stroke-miterlimit="10" x1="125.778" y1="375.039" x2="125.778" y2="377.73"/>
			
				<line fill="none" stroke="#888888" stroke-width="0.5" stroke-linejoin="round" stroke-miterlimit="10" x1="140.734" y1="375.018" x2="140.734" y2="377.709"/>
			
				<line fill="none" stroke="#888888" stroke-width="0.5" stroke-linejoin="round" stroke-miterlimit="10" x1="155.761" y1="374.998" x2="155.761" y2="377.688"/>
			
				<line fill="none" stroke="#888888" stroke-width="0.5" stroke-linejoin="round" stroke-miterlimit="10" x1="170.818" y1="374.977" x2="170.818" y2="377.668"/>
		</g>
		<g>
			
				<line fill="none" stroke="#888888" stroke-width="0.5" stroke-linejoin="round" stroke-miterlimit="10" x1="245.667" y1="375.039" x2="245.667" y2="377.73"/>
			
				<line fill="none" stroke="#888888" stroke-width="0.5" stroke-linejoin="round" stroke-miterlimit="10" x1="260.622" y1="375.018" x2="260.622" y2="377.709"/>
			
				<line fill="none" stroke="#888888" stroke-width="0.5" stroke-linejoin="round" stroke-miterlimit="10" x1="275.65" y1="374.998" x2="275.65" y2="377.688"/>
			
				<line fill="none" stroke="#888888" stroke-width="0.5" stroke-linejoin="round" stroke-miterlimit="10" x1="290.706" y1="374.977" x2="290.706" y2="377.668"/>
		</g>
		<g>
			
				<line fill="none" stroke="#888888" stroke-width="0.5" stroke-linejoin="round" stroke-miterlimit="10" x1="305.619" y1="374.943" x2="305.619" y2="377.633"/>
			
				<line fill="none" stroke="#888888" stroke-width="0.5" stroke-linejoin="round" stroke-miterlimit="10" x1="320.575" y1="374.922" x2="320.575" y2="377.612"/>
		</g>
		<g>
			
				<line fill="none" stroke="#888888" stroke-width="0.5" stroke-linejoin="round" stroke-miterlimit="10" x1="185.757" y1="374.929" x2="185.757" y2="377.619"/>
			
				<line fill="none" stroke="#888888" stroke-width="0.5" stroke-linejoin="round" stroke-miterlimit="10" x1="200.713" y1="374.908" x2="200.713" y2="377.599"/>
			
				<line fill="none" stroke="#888888" stroke-width="0.5" stroke-linejoin="round" stroke-miterlimit="10" x1="215.74" y1="374.887" x2="215.74" y2="377.578"/>
			
				<line fill="none" stroke="#888888" stroke-width="0.5" stroke-linejoin="round" stroke-miterlimit="10" x1="230.797" y1="374.867" x2="230.797" y2="377.557"/>
		</g>
	</g>
	<g>
		
			<line fill="none" stroke="#DDDDDD" stroke-miterlimit="10" stroke-dasharray="3" x1="328.465" y1="166.395" x2="113.744" y2="166.395"/>
		
			<line fill="none" stroke="#DDDDDD" stroke-miterlimit="10" stroke-dasharray="3" x1="328.465" y1="235.558" x2="113.744" y2="235.558"/>
		
			<line fill="none" stroke="#DDDDDD" stroke-miterlimit="10" stroke-dasharray="3" x1="328.465" y1="304.928" x2="113.744" y2="304.928"/>
		<path fill="none" stroke="#888888" stroke-width="0.5" stroke-linejoin="round" stroke-miterlimit="10" d="M117.4,374.195"/>
	</g>
	<polyline fill="none" stroke="#F8766D" stroke-width="2" stroke-linejoin="round" stroke-miterlimit="10" points="126.164,290.397 
		141.105,287.693 156.07,282.63 171.035,298.582 185.975,305.931 200.94,207.652 215.905,290.751 230.846,297.123 245.811,311.895 
		260.776,313.569 275.716,305.308 290.681,290.118 305.646,284.646 320.611,308.709 	"/>
	<path style="opacity:0.11;" fill="#FF7F7F" d="M604.834,335.512H402.511c-10.487,0-18.989-8.502-18.989-18.989V204.698
		c0-10.487,8.502-18.989,18.989-18.989h202.322c10.487,0,18.989,8.502,18.989,18.989v111.826
		C623.823,327.011,615.321,335.512,604.834,335.512z"/>
	<g>
		<path fill="none" stroke="#000000" stroke-linejoin="round" d="M204.979,203.233c5.577-4.939,12.848-11.467,26.425-11.467
			c1.46,0,2.871-0.077,4.233,0"/>
		<g>
			<path d="M211.639,202.582c-0.031-0.218-0.235-0.37-0.453-0.339l-6.057,0.877l1.767-5.859c0.064-0.212-0.056-0.435-0.267-0.499
				s-0.435,0.058-0.499,0.267l-1.948,6.461c-0.039,0.131-0.009,0.273,0.08,0.377c0.089,0.104,0.225,0.155,0.36,0.135l6.679-0.967
				c0.078-0.011,0.148-0.045,0.203-0.093C211.603,202.857,211.659,202.723,211.639,202.582z"/>
		</g>
	</g>
	
		<line fill="none" stroke="#888888" stroke-width="0.5" stroke-linejoin="round" stroke-miterlimit="10" x1="113.086" y1="678.269" x2="325.979" y2="678.269"/>
	<path fill="none" stroke="#FFFFFF" stroke-width="1.07" stroke-linejoin="round" stroke-miterlimit="10" d="M325.979,613.137"/>
	<path fill="none" stroke="#FFFFFF" stroke-width="1.07" stroke-linejoin="round" stroke-miterlimit="10" d="M113.086,613.137"/>
	<path fill="none" stroke="#FFFFFF" stroke-width="1.07" stroke-linejoin="round" stroke-miterlimit="10" d="M325.979,548.015"/>
	<path fill="none" stroke="#FFFFFF" stroke-width="1.07" stroke-linejoin="round" stroke-miterlimit="10" d="M113.086,548.015"/>
	<path fill="none" stroke="#FFFFFF" stroke-width="1.07" stroke-linejoin="round" stroke-miterlimit="10" d="M325.979,482.892"/>
	<path fill="none" stroke="#FFFFFF" stroke-width="1.07" stroke-linejoin="round" stroke-miterlimit="10" d="M113.086,482.892"/>
	<path fill="none" stroke="#FFFFFF" stroke-width="1.07" stroke-linejoin="round" stroke-miterlimit="10" d="M122.072,688.03"/>
	<path fill="none" stroke="#FFFFFF" stroke-width="1.07" stroke-linejoin="round" stroke-miterlimit="10" d="M137.071,688.03"/>
	<path fill="none" stroke="#FFFFFF" stroke-width="1.07" stroke-linejoin="round" stroke-miterlimit="10" d="M167.046,688.03"/>
	<path fill="none" stroke="#FFFFFF" stroke-width="1.07" stroke-linejoin="round" stroke-miterlimit="10" d="M212.021,688.03"/>
	<path fill="none" stroke="#FFFFFF" stroke-width="1.07" stroke-linejoin="round" stroke-miterlimit="10" d="M227.02,688.03"/>
	<path fill="none" stroke="#FFFFFF" stroke-width="1.07" stroke-linejoin="round" stroke-miterlimit="10" d="M242.02,688.03"/>
	<path fill="none" stroke="#FFFFFF" stroke-width="1.07" stroke-linejoin="round" stroke-miterlimit="10" d="M256.995,688.03"/>
	<path fill="none" stroke="#FFFFFF" stroke-width="1.07" stroke-linejoin="round" stroke-miterlimit="10" d="M271.995,688.03"/>
	<path fill="none" stroke="#FFFFFF" stroke-width="1.07" stroke-linejoin="round" stroke-miterlimit="10" d="M286.995,688.03"/>
	<path fill="none" stroke="#FFFFFF" stroke-width="1.07" stroke-linejoin="round" stroke-miterlimit="10" d="M301.97,688.03"/>
	<path fill="none" stroke="#FFFFFF" stroke-width="1.07" stroke-linejoin="round" stroke-miterlimit="10" d="M316.97,688.03"/>
	<rect style="opacity:0.2;" x="137.093" y="473.703" fill="#CCCCCC" width="29.507" height="203.717"/>
	<rect style="opacity:0.11;" x="181.579" y="473.339" fill="#FF7F7F" width="29.507" height="204.496"/>
	<g>
	</g>
	<g>
		<g>
			
				<line fill="none" stroke="#888888" stroke-width="0.5" stroke-linejoin="round" stroke-miterlimit="10" x1="121.781" y1="678.574" x2="121.781" y2="682.231"/>
			
				<line fill="none" stroke="#888888" stroke-width="0.5" stroke-linejoin="round" stroke-miterlimit="10" x1="136.776" y1="678.546" x2="136.776" y2="682.203"/>
			
				<line fill="none" stroke="#888888" stroke-width="0.5" stroke-linejoin="round" stroke-miterlimit="10" x1="151.842" y1="678.518" x2="151.842" y2="682.174"/>
			
				<line fill="none" stroke="#888888" stroke-width="0.5" stroke-linejoin="round" stroke-miterlimit="10" x1="166.937" y1="678.49" x2="166.937" y2="682.146"/>
		</g>
		<g>
			
				<line fill="none" stroke="#888888" stroke-width="0.5" stroke-linejoin="round" stroke-miterlimit="10" x1="241.979" y1="678.574" x2="241.979" y2="682.231"/>
			
				<line fill="none" stroke="#888888" stroke-width="0.5" stroke-linejoin="round" stroke-miterlimit="10" x1="256.974" y1="678.546" x2="256.974" y2="682.203"/>
			
				<line fill="none" stroke="#888888" stroke-width="0.5" stroke-linejoin="round" stroke-miterlimit="10" x1="272.04" y1="678.518" x2="272.04" y2="682.174"/>
			
				<line fill="none" stroke="#888888" stroke-width="0.5" stroke-linejoin="round" stroke-miterlimit="10" x1="287.135" y1="678.49" x2="287.135" y2="682.146"/>
		</g>
		<g>
			
				<line fill="none" stroke="#888888" stroke-width="0.5" stroke-linejoin="round" stroke-miterlimit="10" x1="302.087" y1="678.443" x2="302.087" y2="682.099"/>
			
				<line fill="none" stroke="#888888" stroke-width="0.5" stroke-linejoin="round" stroke-miterlimit="10" x1="317.081" y1="678.415" x2="317.081" y2="682.071"/>
		</g>
		<g>
			
				<line fill="none" stroke="#888888" stroke-width="0.5" stroke-linejoin="round" stroke-miterlimit="10" x1="181.915" y1="678.424" x2="181.915" y2="682.081"/>
			
				<line fill="none" stroke="#888888" stroke-width="0.5" stroke-linejoin="round" stroke-miterlimit="10" x1="196.91" y1="678.396" x2="196.91" y2="682.053"/>
			
				<line fill="none" stroke="#888888" stroke-width="0.5" stroke-linejoin="round" stroke-miterlimit="10" x1="211.976" y1="678.368" x2="211.976" y2="682.024"/>
			
				<line fill="none" stroke="#888888" stroke-width="0.5" stroke-linejoin="round" stroke-miterlimit="10" x1="227.071" y1="678.34" x2="227.071" y2="681.996"/>
		</g>
	</g>
	<g>
		
			<line fill="none" stroke="#DDDDDD" stroke-miterlimit="10" stroke-dasharray="3" x1="324.178" y1="482.365" x2="109.875" y2="482.365"/>
		
			<line fill="none" stroke="#DDDDDD" stroke-miterlimit="10" stroke-dasharray="3" x1="324.178" y1="547.592" x2="109.875" y2="547.592"/>
		
			<line fill="none" stroke="#DDDDDD" stroke-miterlimit="10" stroke-dasharray="3" x1="324.178" y1="613.015" x2="109.875" y2="613.015"/>
	</g>
	<polyline fill="none" stroke="#F8766D" stroke-width="2" stroke-linejoin="round" stroke-miterlimit="10" points="122.072,553.162 
		137.071,553.162 152.071,557.07 167.046,556.416 182.046,546.322 197.046,563.648 212.021,540.399 227.02,534.335 242.02,527.889 
		256.995,525.804 271.995,527.758 286.995,530.759 301.97,529.128 316.97,522.943 	"/>
	<rect style="opacity:0.2;" x="428.032" y="473.927" fill="#CCCCCC" width="29.507" height="204.332"/>
	<rect style="opacity:0.11;" x="473.352" y="473.819" fill="#FF7F7F" width="29.507" height="204.496"/>
	
		<line fill="none" stroke="#888888" stroke-width="0.5" stroke-linejoin="round" stroke-miterlimit="10" x1="403.374" y1="678.168" x2="616.267" y2="678.168"/>
	
		<line fill="none" stroke="#DDDDDD" stroke-miterlimit="10" stroke-dasharray="3" x1="614.465" y1="483.047" x2="400.162" y2="483.047"/>
	
		<line fill="none" stroke="#DDDDDD" stroke-miterlimit="10" stroke-dasharray="3" x1="614.465" y1="548.275" x2="400.162" y2="548.275"/>
	
		<line fill="none" stroke="#DDDDDD" stroke-miterlimit="10" stroke-dasharray="3" x1="614.465" y1="613.697" x2="400.162" y2="613.697"/>
	<polyline fill="none" stroke="#F8766D" stroke-width="2" stroke-linejoin="round" stroke-miterlimit="10" points="413.01,583.247 
		428.01,575.561 443.009,527.241 457.985,527.11 472.984,523.655 487.984,550.56 502.959,526.203 517.959,523.786 532.959,519.424 
		547.934,511.869 562.934,509.522 577.933,515.254 592.908,518.054 607.908,510.177 	"/>
	<g>
		<g>
			
				<line fill="none" stroke="#888888" stroke-width="0.5" stroke-linejoin="round" stroke-miterlimit="10" x1="413.182" y1="678.343" x2="413.182" y2="682"/>
			
				<line fill="none" stroke="#888888" stroke-width="0.5" stroke-linejoin="round" stroke-miterlimit="10" x1="428.13" y1="678.315" x2="428.13" y2="681.972"/>
			
				<line fill="none" stroke="#888888" stroke-width="0.5" stroke-linejoin="round" stroke-miterlimit="10" x1="443.149" y1="678.287" x2="443.149" y2="681.943"/>
			
				<line fill="none" stroke="#888888" stroke-width="0.5" stroke-linejoin="round" stroke-miterlimit="10" x1="458.198" y1="678.259" x2="458.198" y2="681.915"/>
		</g>
		<g>
			
				<line fill="none" stroke="#888888" stroke-width="0.5" stroke-linejoin="round" stroke-miterlimit="10" x1="533.006" y1="678.343" x2="533.006" y2="682"/>
			
				<line fill="none" stroke="#888888" stroke-width="0.5" stroke-linejoin="round" stroke-miterlimit="10" x1="547.954" y1="678.315" x2="547.954" y2="681.972"/>
			
				<line fill="none" stroke="#888888" stroke-width="0.5" stroke-linejoin="round" stroke-miterlimit="10" x1="562.973" y1="678.287" x2="562.973" y2="681.943"/>
			
				<line fill="none" stroke="#888888" stroke-width="0.5" stroke-linejoin="round" stroke-miterlimit="10" x1="578.022" y1="678.259" x2="578.022" y2="681.915"/>
		</g>
		<g>
			
				<line fill="none" stroke="#888888" stroke-width="0.5" stroke-linejoin="round" stroke-miterlimit="10" x1="592.927" y1="678.212" x2="592.927" y2="681.868"/>
			
				<line fill="none" stroke="#888888" stroke-width="0.5" stroke-linejoin="round" stroke-miterlimit="10" x1="607.875" y1="678.184" x2="607.875" y2="681.84"/>
		</g>
		<g>
			
				<line fill="none" stroke="#888888" stroke-width="0.5" stroke-linejoin="round" stroke-miterlimit="10" x1="473.129" y1="678.193" x2="473.129" y2="681.85"/>
			
				<line fill="none" stroke="#888888" stroke-width="0.5" stroke-linejoin="round" stroke-miterlimit="10" x1="488.077" y1="678.165" x2="488.077" y2="681.822"/>
			
				<line fill="none" stroke="#888888" stroke-width="0.5" stroke-linejoin="round" stroke-miterlimit="10" x1="503.096" y1="678.137" x2="503.096" y2="681.793"/>
			
				<line fill="none" stroke="#888888" stroke-width="0.5" stroke-linejoin="round" stroke-miterlimit="10" x1="518.145" y1="678.109" x2="518.145" y2="681.765"/>
		</g>
	</g>
	
		<line fill="none" stroke="#000000" stroke-width="0.75" stroke-linejoin="round" stroke-miterlimit="10" x1="457.539" y1="570.609" x2="479.054" y2="570.609"/>
	
		<line fill="none" stroke="#FFFFFF" stroke-width="1.07" stroke-linejoin="round" stroke-miterlimit="10" x1="114.85" y1="985.446" x2="327.29" y2="985.446"/>
	
	
	
	<rect style="opacity:0.2;" x="138.785" y="772.034" fill="#CCCCCC" width="29.447" height="212.099"/>
	<rect style="opacity:0.11;" x="183.736" y="772.26" fill="#FF7F7F" width="29.447" height="212.734"/>
	
		<line fill="none" stroke="#888888" stroke-width="0.5" stroke-linejoin="round" stroke-miterlimit="10" x1="116.18" y1="984.865" x2="329.072" y2="984.865"/>
	
		<line fill="none" stroke="#DDDDDD" stroke-miterlimit="10" stroke-dasharray="3" x1="327.271" y1="789.744" x2="112.968" y2="789.744"/>
	
		<line fill="none" stroke="#DDDDDD" stroke-miterlimit="10" stroke-dasharray="3" x1="327.271" y1="854.972" x2="112.968" y2="854.972"/>
	
		<line fill="none" stroke="#DDDDDD" stroke-miterlimit="10" stroke-dasharray="3" x1="327.271" y1="920.394" x2="112.968" y2="920.394"/>
	<polyline fill="none" stroke="#F8766D" stroke-width="2" stroke-linejoin="round" stroke-miterlimit="10" points="123.817,824.806 
		138.787,825.078 153.732,836.458 168.701,835.243 183.671,818.309 198.616,840.052 213.586,828.945 228.555,840.251 243.5,849.745 
		258.47,858.485 273.439,860.518 288.384,858.076 303.354,859.637 318.323,856.724 	"/>
	<g>
		<g>
			
				<line fill="none" stroke="#888888" stroke-width="0.5" stroke-linejoin="round" stroke-miterlimit="10" x1="124.147" y1="985.015" x2="124.147" y2="988.672"/>
			
				<line fill="none" stroke="#888888" stroke-width="0.5" stroke-linejoin="round" stroke-miterlimit="10" x1="139.049" y1="984.987" x2="139.049" y2="988.644"/>
			
				<line fill="none" stroke="#888888" stroke-width="0.5" stroke-linejoin="round" stroke-miterlimit="10" x1="154.023" y1="984.959" x2="154.023" y2="988.616"/>
			
				<line fill="none" stroke="#888888" stroke-width="0.5" stroke-linejoin="round" stroke-miterlimit="10" x1="169.026" y1="984.931" x2="169.026" y2="988.588"/>
		</g>
		<g>
			
				<line fill="none" stroke="#888888" stroke-width="0.5" stroke-linejoin="round" stroke-miterlimit="10" x1="243.606" y1="985.015" x2="243.606" y2="988.672"/>
			
				<line fill="none" stroke="#888888" stroke-width="0.5" stroke-linejoin="round" stroke-miterlimit="10" x1="258.509" y1="984.987" x2="258.509" y2="988.644"/>
			
				<line fill="none" stroke="#888888" stroke-width="0.5" stroke-linejoin="round" stroke-miterlimit="10" x1="273.482" y1="984.959" x2="273.482" y2="988.616"/>
			
				<line fill="none" stroke="#888888" stroke-width="0.5" stroke-linejoin="round" stroke-miterlimit="10" x1="288.485" y1="984.931" x2="288.485" y2="988.588"/>
		</g>
		<g>
			
				<line fill="none" stroke="#888888" stroke-width="0.5" stroke-linejoin="round" stroke-miterlimit="10" x1="303.345" y1="984.884" x2="303.345" y2="988.541"/>
			
				<line fill="none" stroke="#888888" stroke-width="0.5" stroke-linejoin="round" stroke-miterlimit="10" x1="318.247" y1="984.856" x2="318.247" y2="988.513"/>
		</g>
		<g>
			
				<line fill="none" stroke="#888888" stroke-width="0.5" stroke-linejoin="round" stroke-miterlimit="10" x1="183.911" y1="984.865" x2="183.911" y2="988.522"/>
			
				<line fill="none" stroke="#888888" stroke-width="0.5" stroke-linejoin="round" stroke-miterlimit="10" x1="198.814" y1="984.837" x2="198.814" y2="988.494"/>
			
				<line fill="none" stroke="#888888" stroke-width="0.5" stroke-linejoin="round" stroke-miterlimit="10" x1="213.787" y1="984.809" x2="213.787" y2="988.466"/>
			
				<line fill="none" stroke="#888888" stroke-width="0.5" stroke-linejoin="round" stroke-miterlimit="10" x1="228.79" y1="984.781" x2="228.79" y2="988.438"/>
		</g>
	</g>
	<rect style="opacity:0.2;" x="433.274" y="771.318" fill="#CCCCCC" width="29.447" height="212.879"/>
	<path fill="none" stroke="#FFFFFF" stroke-width="1.07" stroke-linejoin="round" stroke-miterlimit="10" d="M433.277,991.554"/>
	<path fill="none" stroke="#FFFFFF" stroke-width="1.07" stroke-linejoin="round" stroke-miterlimit="10" d="M448.222,991.554"/>
	<path fill="none" stroke="#FFFFFF" stroke-width="1.07" stroke-linejoin="round" stroke-miterlimit="10" d="M463.192,991.554"/>
	<path fill="none" stroke="#FFFFFF" stroke-width="1.07" stroke-linejoin="round" stroke-miterlimit="10" d="M478.161,991.554"/>
	<path fill="none" stroke="#FFFFFF" stroke-width="1.07" stroke-linejoin="round" stroke-miterlimit="10" d="M493.106,991.554"/>
	<path fill="none" stroke="#FFFFFF" stroke-width="1.07" stroke-linejoin="round" stroke-miterlimit="10" d="M508.076,991.554"/>
	<polyline fill="none" stroke="#F8766D" stroke-width="2" stroke-linejoin="round" stroke-miterlimit="10" points="418.308,910.687 
		433.277,904.316 448.222,899.915 463.192,894.759 478.161,901.329 493.106,920.034 508.076,907.837 523.045,900.721 
		537.99,897.001 552.96,896.656 567.929,896.656 582.874,897.536 597.844,898.416 612.813,894.56 	"/>
	<rect style="opacity:0.11;" x="478.226" y="770.583" fill="#FF7F7F" width="29.447" height="213.167"/>
	
		<line fill="none" stroke="#888888" stroke-width="0.5" stroke-linejoin="round" stroke-miterlimit="10" x1="407.661" y1="984.606" x2="623.765" y2="984.606"/>
	
		<line fill="none" stroke="#DDDDDD" stroke-miterlimit="10" stroke-dasharray="3" x1="621.964" y1="789.486" x2="407.661" y2="789.486"/>
	
		<line fill="none" stroke="#DDDDDD" stroke-miterlimit="10" stroke-dasharray="3" x1="621.964" y1="854.713" x2="407.661" y2="854.713"/>
	
		<line fill="none" stroke="#DDDDDD" stroke-miterlimit="10" stroke-dasharray="3" x1="621.964" y1="920.136" x2="407.661" y2="920.136"/>
	<g>
		<g>
			
				<line fill="none" stroke="#888888" stroke-width="0.5" stroke-linejoin="round" stroke-miterlimit="10" x1="416.722" y1="984.756" x2="416.722" y2="988.413"/>
			
				<line fill="none" stroke="#888888" stroke-width="0.5" stroke-linejoin="round" stroke-miterlimit="10" x1="431.624" y1="984.728" x2="431.624" y2="988.385"/>
			
				<line fill="none" stroke="#888888" stroke-width="0.5" stroke-linejoin="round" stroke-miterlimit="10" x1="446.598" y1="984.7" x2="446.598" y2="988.357"/>
			
				<line fill="none" stroke="#888888" stroke-width="0.5" stroke-linejoin="round" stroke-miterlimit="10" x1="461.6" y1="984.672" x2="461.6" y2="988.329"/>
		</g>
		<g>
			
				<line fill="none" stroke="#888888" stroke-width="0.5" stroke-linejoin="round" stroke-miterlimit="10" x1="536.181" y1="984.756" x2="536.181" y2="988.413"/>
			
				<line fill="none" stroke="#888888" stroke-width="0.5" stroke-linejoin="round" stroke-miterlimit="10" x1="551.083" y1="984.728" x2="551.083" y2="988.385"/>
			
				<line fill="none" stroke="#888888" stroke-width="0.5" stroke-linejoin="round" stroke-miterlimit="10" x1="566.057" y1="984.7" x2="566.057" y2="988.357"/>
			
				<line fill="none" stroke="#888888" stroke-width="0.5" stroke-linejoin="round" stroke-miterlimit="10" x1="581.06" y1="984.672" x2="581.06" y2="988.329"/>
		</g>
		<g>
			
				<line fill="none" stroke="#888888" stroke-width="0.5" stroke-linejoin="round" stroke-miterlimit="10" x1="595.919" y1="984.625" x2="595.919" y2="988.282"/>
			
				<line fill="none" stroke="#888888" stroke-width="0.5" stroke-linejoin="round" stroke-miterlimit="10" x1="610.822" y1="984.597" x2="610.822" y2="988.254"/>
		</g>
		<g>
			
				<line fill="none" stroke="#888888" stroke-width="0.5" stroke-linejoin="round" stroke-miterlimit="10" x1="476.486" y1="984.606" x2="476.486" y2="988.263"/>
			
				<line fill="none" stroke="#888888" stroke-width="0.5" stroke-linejoin="round" stroke-miterlimit="10" x1="491.389" y1="984.578" x2="491.389" y2="988.235"/>
			
				<line fill="none" stroke="#888888" stroke-width="0.5" stroke-linejoin="round" stroke-miterlimit="10" x1="506.362" y1="984.55" x2="506.362" y2="988.207"/>
			
				<line fill="none" stroke="#888888" stroke-width="0.5" stroke-linejoin="round" stroke-miterlimit="10" x1="521.365" y1="984.522" x2="521.365" y2="988.179"/>
		</g>
	</g>
</g>
<style>
#g-revenue-breakdown-700-img rect, #g-revenue-breakdown-700-img circle, #g-revenue-breakdown-700-img path, #g-revenue-breakdown-700-img line, #g-revenue-breakdown-700-img polyline { vector-effect: non-scaling-stroke; }
</style>
</svg>

