<?xml version="1.0" encoding="utf-8"?>
<!-- Generator: Adobe Illustrator 23.1.1, SVG Export Plug-In . SVG Version: 6.00 Build 0)  -->
<svg version="1.2" baseProfile="tiny" id="g-revenue-breakdown-300-img" xmlns="http://www.w3.org/2000/svg" xmlns:xlink="http://www.w3.org/1999/xlink"
	 x="0px" y="0px" viewBox="0 0 300 1820" xml:space="preserve">
<g>
	
		<line fill="none" stroke="#FFFFFF" stroke-width="1.07" stroke-linejoin="round" stroke-miterlimit="10" x1="47.451" y1="1465.326" x2="259.891" y2="1465.326"/>
	
	
	
	<rect style="opacity:0.2;" x="71.385" y="1251.914" fill="#CCCCCC" width="29.447" height="212.099"/>
	<rect style="opacity:0.11;" x="116.337" y="1252.14" fill="#FF7F7F" width="29.447" height="212.734"/>
	<rect style="opacity:0.2;" x="68.255" y="972.751" fill="#CCCCCC" width="29.507" height="204.332"/>
	<rect style="opacity:0.11;" x="113.575" y="972.642" fill="#FF7F7F" width="29.507" height="204.496"/>
	
		<line fill="none" stroke="#888888" stroke-width="0.5" stroke-linejoin="round" stroke-miterlimit="10" x1="49.745" y1="891.357" x2="262.637" y2="891.357"/>
	<path fill="none" stroke="#FFFFFF" stroke-width="1.07" stroke-linejoin="round" stroke-miterlimit="10" d="M266.637,826.224"/>
	<path fill="none" stroke="#FFFFFF" stroke-width="1.07" stroke-linejoin="round" stroke-miterlimit="10" d="M49.745,826.224"/>
	<path fill="none" stroke="#FFFFFF" stroke-width="1.07" stroke-linejoin="round" stroke-miterlimit="10" d="M266.637,761.102"/>
	<path fill="none" stroke="#FFFFFF" stroke-width="1.07" stroke-linejoin="round" stroke-miterlimit="10" d="M49.745,761.102"/>
	<path fill="none" stroke="#FFFFFF" stroke-width="1.07" stroke-linejoin="round" stroke-miterlimit="10" d="M266.637,695.98"/>
	<path fill="none" stroke="#FFFFFF" stroke-width="1.07" stroke-linejoin="round" stroke-miterlimit="10" d="M49.745,695.98"/>
	<path fill="none" stroke="#FFFFFF" stroke-width="1.07" stroke-linejoin="round" stroke-miterlimit="10" d="M58.73,901.117"/>
	<path fill="none" stroke="#FFFFFF" stroke-width="1.07" stroke-linejoin="round" stroke-miterlimit="10" d="M73.729,901.117"/>
	<path fill="none" stroke="#FFFFFF" stroke-width="1.07" stroke-linejoin="round" stroke-miterlimit="10" d="M103.704,901.117"/>
	<path fill="none" stroke="#FFFFFF" stroke-width="1.07" stroke-linejoin="round" stroke-miterlimit="10" d="M148.679,901.117"/>
	<path fill="none" stroke="#FFFFFF" stroke-width="1.07" stroke-linejoin="round" stroke-miterlimit="10" d="M163.678,901.117"/>
	<path fill="none" stroke="#FFFFFF" stroke-width="1.07" stroke-linejoin="round" stroke-miterlimit="10" d="M178.678,901.117"/>
	<path fill="none" stroke="#FFFFFF" stroke-width="1.07" stroke-linejoin="round" stroke-miterlimit="10" d="M193.653,901.117"/>
	<path fill="none" stroke="#FFFFFF" stroke-width="1.07" stroke-linejoin="round" stroke-miterlimit="10" d="M208.653,901.117"/>
	<path fill="none" stroke="#FFFFFF" stroke-width="1.07" stroke-linejoin="round" stroke-miterlimit="10" d="M223.653,901.117"/>
	<path fill="none" stroke="#FFFFFF" stroke-width="1.07" stroke-linejoin="round" stroke-miterlimit="10" d="M238.628,901.117"/>
	<path fill="none" stroke="#FFFFFF" stroke-width="1.07" stroke-linejoin="round" stroke-miterlimit="10" d="M257.628,901.117"/>
	<rect style="opacity:0.2;" x="73.751" y="686.791" fill="#CCCCCC" width="29.507" height="203.717"/>
	<rect style="opacity:0.11;" x="118.237" y="686.426" fill="#FF7F7F" width="29.507" height="204.496"/>
	
		<line fill="none" stroke="#888888" stroke-width="0.5" stroke-linejoin="round" stroke-miterlimit="10" x1="49.091" y1="422.249" x2="261.984" y2="422.249"/>
	
		<line fill="none" stroke="#888888" stroke-width="0.5" stroke-linejoin="round" stroke-miterlimit="10" x1="43.597" y1="1176.992" x2="256.489" y2="1176.992"/>
	
		<line fill="none" stroke="#DDDDDD" stroke-miterlimit="10" stroke-dasharray="3" x1="254.688" y1="981.871" x2="40.385" y2="981.871"/>
	
		<line fill="none" stroke="#DDDDDD" stroke-miterlimit="10" stroke-dasharray="3" x1="254.688" y1="1047.098" x2="40.385" y2="1047.098"/>
	
		<line fill="none" stroke="#DDDDDD" stroke-miterlimit="10" stroke-dasharray="3" x1="254.688" y1="1112.521" x2="40.385" y2="1112.521"/>
	<polyline fill="none" stroke="#F8766D" stroke-width="2" stroke-linejoin="round" stroke-miterlimit="10" points="53.233,1082.071 
		68.233,1074.385 83.232,1026.064 98.207,1025.933 113.207,1022.478 128.207,1049.383 143.182,1025.027 158.182,1022.609 
		173.181,1018.248 188.157,1010.693 203.156,1008.346 218.156,1014.077 233.131,1016.878 248.131,1009.001 	"/>
	
		<line fill="none" stroke="#888888" stroke-width="0.5" stroke-linejoin="round" stroke-miterlimit="10" x1="48.78" y1="1464.745" x2="261.673" y2="1464.745"/>
	
		<line fill="none" stroke="#DDDDDD" stroke-miterlimit="10" stroke-dasharray="3" x1="259.872" y1="1269.624" x2="45.569" y2="1269.624"/>
	
		<line fill="none" stroke="#DDDDDD" stroke-miterlimit="10" stroke-dasharray="3" x1="259.872" y1="1334.852" x2="45.569" y2="1334.852"/>
	
		<line fill="none" stroke="#DDDDDD" stroke-miterlimit="10" stroke-dasharray="3" x1="259.872" y1="1400.274" x2="45.569" y2="1400.274"/>
	<polyline fill="none" stroke="#F8766D" stroke-width="2" stroke-linejoin="round" stroke-miterlimit="10" points="56.418,1304.685 
		71.388,1304.958 86.333,1316.338 101.302,1315.122 116.272,1298.188 131.217,1319.932 146.186,1308.824 161.156,1320.131 
		176.101,1329.625 191.07,1338.364 206.04,1340.397 220.985,1337.956 235.954,1339.517 250.924,1336.604 	"/>
	<g>
	</g>
	<g>
		<g>
			
				<line fill="none" stroke="#888888" stroke-width="0.5" stroke-linejoin="round" stroke-miterlimit="10" x1="53.405" y1="1177.167" x2="53.405" y2="1180.823"/>
			
				<line fill="none" stroke="#888888" stroke-width="0.5" stroke-linejoin="round" stroke-miterlimit="10" x1="68.353" y1="1177.139" x2="68.353" y2="1180.795"/>
			
				<line fill="none" stroke="#888888" stroke-width="0.5" stroke-linejoin="round" stroke-miterlimit="10" x1="83.372" y1="1177.11" x2="83.372" y2="1180.767"/>
			
				<line fill="none" stroke="#888888" stroke-width="0.5" stroke-linejoin="round" stroke-miterlimit="10" x1="98.421" y1="1177.082" x2="98.421" y2="1180.739"/>
		</g>
		<g>
			
				<line fill="none" stroke="#888888" stroke-width="0.5" stroke-linejoin="round" stroke-miterlimit="10" x1="173.229" y1="1177.167" x2="173.229" y2="1180.823"/>
			
				<line fill="none" stroke="#888888" stroke-width="0.5" stroke-linejoin="round" stroke-miterlimit="10" x1="188.177" y1="1177.139" x2="188.177" y2="1180.795"/>
			
				<line fill="none" stroke="#888888" stroke-width="0.5" stroke-linejoin="round" stroke-miterlimit="10" x1="203.196" y1="1177.11" x2="203.196" y2="1180.767"/>
			
				<line fill="none" stroke="#888888" stroke-width="0.5" stroke-linejoin="round" stroke-miterlimit="10" x1="218.245" y1="1177.082" x2="218.245" y2="1180.739"/>
		</g>
		<g>
			
				<line fill="none" stroke="#888888" stroke-width="0.5" stroke-linejoin="round" stroke-miterlimit="10" x1="233.15" y1="1177.036" x2="233.15" y2="1180.692"/>
			
				<line fill="none" stroke="#888888" stroke-width="0.5" stroke-linejoin="round" stroke-miterlimit="10" x1="248.098" y1="1177.007" x2="248.098" y2="1180.664"/>
		</g>
		<g>
			
				<line fill="none" stroke="#888888" stroke-width="0.5" stroke-linejoin="round" stroke-miterlimit="10" x1="113.352" y1="1177.017" x2="113.352" y2="1180.673"/>
			
				<line fill="none" stroke="#888888" stroke-width="0.5" stroke-linejoin="round" stroke-miterlimit="10" x1="128.3" y1="1176.989" x2="128.3" y2="1180.645"/>
			
				<line fill="none" stroke="#888888" stroke-width="0.5" stroke-linejoin="round" stroke-miterlimit="10" x1="143.319" y1="1176.961" x2="143.319" y2="1180.617"/>
			
				<line fill="none" stroke="#888888" stroke-width="0.5" stroke-linejoin="round" stroke-miterlimit="10" x1="158.368" y1="1176.932" x2="158.368" y2="1180.589"/>
		</g>
	</g>
	<g>
		<g>
			
				<line fill="none" stroke="#888888" stroke-width="0.5" stroke-linejoin="round" stroke-miterlimit="10" x1="58.439" y1="891.661" x2="58.439" y2="895.318"/>
			
				<line fill="none" stroke="#888888" stroke-width="0.5" stroke-linejoin="round" stroke-miterlimit="10" x1="73.434" y1="891.633" x2="73.434" y2="895.29"/>
			
				<line fill="none" stroke="#888888" stroke-width="0.5" stroke-linejoin="round" stroke-miterlimit="10" x1="88.5" y1="891.605" x2="88.5" y2="895.262"/>
			
				<line fill="none" stroke="#888888" stroke-width="0.5" stroke-linejoin="round" stroke-miterlimit="10" x1="103.596" y1="891.577" x2="103.596" y2="895.234"/>
		</g>
		<g>
			
				<line fill="none" stroke="#888888" stroke-width="0.5" stroke-linejoin="round" stroke-miterlimit="10" x1="178.637" y1="891.661" x2="178.637" y2="895.318"/>
			
				<line fill="none" stroke="#888888" stroke-width="0.5" stroke-linejoin="round" stroke-miterlimit="10" x1="193.632" y1="891.633" x2="193.632" y2="895.29"/>
			
				<line fill="none" stroke="#888888" stroke-width="0.5" stroke-linejoin="round" stroke-miterlimit="10" x1="208.698" y1="891.605" x2="208.698" y2="895.262"/>
			
				<line fill="none" stroke="#888888" stroke-width="0.5" stroke-linejoin="round" stroke-miterlimit="10" x1="223.793" y1="891.577" x2="223.793" y2="895.234"/>
		</g>
		<g>
			
				<line fill="none" stroke="#888888" stroke-width="0.5" stroke-linejoin="round" stroke-miterlimit="10" x1="238.745" y1="891.53" x2="238.745" y2="895.187"/>
			
				<line fill="none" stroke="#888888" stroke-width="0.5" stroke-linejoin="round" stroke-miterlimit="10" x1="253.739" y1="891.502" x2="253.739" y2="895.159"/>
		</g>
		<g>
			
				<line fill="none" stroke="#888888" stroke-width="0.5" stroke-linejoin="round" stroke-miterlimit="10" x1="118.573" y1="891.511" x2="118.573" y2="895.168"/>
			
				<line fill="none" stroke="#888888" stroke-width="0.5" stroke-linejoin="round" stroke-miterlimit="10" x1="133.568" y1="891.483" x2="133.568" y2="895.14"/>
			
				<line fill="none" stroke="#888888" stroke-width="0.5" stroke-linejoin="round" stroke-miterlimit="10" x1="148.634" y1="891.455" x2="148.634" y2="895.112"/>
			
				<line fill="none" stroke="#888888" stroke-width="0.5" stroke-linejoin="round" stroke-miterlimit="10" x1="163.729" y1="891.427" x2="163.729" y2="895.084"/>
		</g>
	</g>
	<g>
		<g>
			
				<line fill="none" stroke="#888888" stroke-width="0.5" stroke-linejoin="round" stroke-miterlimit="10" x1="56.748" y1="1464.895" x2="56.748" y2="1468.552"/>
			
				<line fill="none" stroke="#888888" stroke-width="0.5" stroke-linejoin="round" stroke-miterlimit="10" x1="71.65" y1="1464.867" x2="71.65" y2="1468.523"/>
			
				<line fill="none" stroke="#888888" stroke-width="0.5" stroke-linejoin="round" stroke-miterlimit="10" x1="86.623" y1="1464.839" x2="86.623" y2="1468.495"/>
			
				<line fill="none" stroke="#888888" stroke-width="0.5" stroke-linejoin="round" stroke-miterlimit="10" x1="101.626" y1="1464.811" x2="101.626" y2="1468.467"/>
		</g>
		<g>
			
				<line fill="none" stroke="#888888" stroke-width="0.5" stroke-linejoin="round" stroke-miterlimit="10" x1="176.207" y1="1464.895" x2="176.207" y2="1468.552"/>
			
				<line fill="none" stroke="#888888" stroke-width="0.5" stroke-linejoin="round" stroke-miterlimit="10" x1="191.109" y1="1464.867" x2="191.109" y2="1468.523"/>
			
				<line fill="none" stroke="#888888" stroke-width="0.5" stroke-linejoin="round" stroke-miterlimit="10" x1="206.083" y1="1464.839" x2="206.083" y2="1468.495"/>
			
				<line fill="none" stroke="#888888" stroke-width="0.5" stroke-linejoin="round" stroke-miterlimit="10" x1="221.086" y1="1464.811" x2="221.086" y2="1468.467"/>
		</g>
		<g>
			
				<line fill="none" stroke="#888888" stroke-width="0.5" stroke-linejoin="round" stroke-miterlimit="10" x1="235.945" y1="1464.764" x2="235.945" y2="1468.42"/>
			
				<line fill="none" stroke="#888888" stroke-width="0.5" stroke-linejoin="round" stroke-miterlimit="10" x1="250.848" y1="1464.735" x2="250.848" y2="1468.392"/>
		</g>
		<g>
			
				<line fill="none" stroke="#888888" stroke-width="0.5" stroke-linejoin="round" stroke-miterlimit="10" x1="116.512" y1="1464.745" x2="116.512" y2="1468.402"/>
			
				<line fill="none" stroke="#888888" stroke-width="0.5" stroke-linejoin="round" stroke-miterlimit="10" x1="131.415" y1="1464.717" x2="131.415" y2="1468.374"/>
			
				<line fill="none" stroke="#888888" stroke-width="0.5" stroke-linejoin="round" stroke-miterlimit="10" x1="146.388" y1="1464.689" x2="146.388" y2="1468.345"/>
			
				<line fill="none" stroke="#888888" stroke-width="0.5" stroke-linejoin="round" stroke-miterlimit="10" x1="161.391" y1="1464.661" x2="161.391" y2="1468.317"/>
		</g>
	</g>
	<g>
		
			<line fill="none" stroke="#DDDDDD" stroke-miterlimit="10" stroke-dasharray="3" x1="260.836" y1="695.452" x2="46.533" y2="695.452"/>
		
			<line fill="none" stroke="#DDDDDD" stroke-miterlimit="10" stroke-dasharray="3" x1="260.836" y1="760.68" x2="46.533" y2="760.68"/>
		
			<line fill="none" stroke="#DDDDDD" stroke-miterlimit="10" stroke-dasharray="3" x1="260.836" y1="826.102" x2="46.533" y2="826.102"/>
	</g>
	<polyline fill="none" stroke="#F8766D" stroke-width="2" stroke-linejoin="round" stroke-miterlimit="10" points="58.73,766.249 
		73.729,766.249 88.729,770.158 103.704,769.503 118.704,759.41 133.704,776.735 148.679,753.487 163.678,747.423 178.678,740.976 
		193.653,738.891 208.653,740.845 223.653,743.847 238.628,742.215 253.628,736.03 	"/>
	<rect style="opacity:0.2;" x="75.108" y="203.261" fill="#CCCCCC" width="28.87" height="218.144"/>
	<rect style="opacity:0.11;" x="120.133" y="203.397" fill="#FF7F7F" width="28.662" height="217.984"/>
	<g>
		<g>
			
				<line fill="none" stroke="#888888" stroke-width="0.5" stroke-linejoin="round" stroke-miterlimit="10" x1="59.298" y1="422.249" x2="59.298" y2="424.94"/>
			
				<line fill="none" stroke="#888888" stroke-width="0.5" stroke-linejoin="round" stroke-miterlimit="10" x1="74.253" y1="422.228" x2="74.253" y2="424.919"/>
			
				<line fill="none" stroke="#888888" stroke-width="0.5" stroke-linejoin="round" stroke-miterlimit="10" x1="89.281" y1="422.208" x2="89.281" y2="424.898"/>
			
				<line fill="none" stroke="#888888" stroke-width="0.5" stroke-linejoin="round" stroke-miterlimit="10" x1="104.337" y1="422.187" x2="104.337" y2="424.878"/>
		</g>
		<g>
			
				<line fill="none" stroke="#888888" stroke-width="0.5" stroke-linejoin="round" stroke-miterlimit="10" x1="179.186" y1="422.249" x2="179.186" y2="424.94"/>
			
				<line fill="none" stroke="#888888" stroke-width="0.5" stroke-linejoin="round" stroke-miterlimit="10" x1="194.142" y1="422.228" x2="194.142" y2="424.919"/>
			
				<line fill="none" stroke="#888888" stroke-width="0.5" stroke-linejoin="round" stroke-miterlimit="10" x1="209.169" y1="422.208" x2="209.169" y2="424.898"/>
			
				<line fill="none" stroke="#888888" stroke-width="0.5" stroke-linejoin="round" stroke-miterlimit="10" x1="224.226" y1="422.187" x2="224.226" y2="424.878"/>
		</g>
		<g>
			
				<line fill="none" stroke="#888888" stroke-width="0.5" stroke-linejoin="round" stroke-miterlimit="10" x1="239.139" y1="422.153" x2="239.139" y2="424.843"/>
			
				<line fill="none" stroke="#888888" stroke-width="0.5" stroke-linejoin="round" stroke-miterlimit="10" x1="254.095" y1="422.132" x2="254.095" y2="424.823"/>
		</g>
		<g>
			
				<line fill="none" stroke="#888888" stroke-width="0.5" stroke-linejoin="round" stroke-miterlimit="10" x1="119.277" y1="422.139" x2="119.277" y2="424.829"/>
			
				<line fill="none" stroke="#888888" stroke-width="0.5" stroke-linejoin="round" stroke-miterlimit="10" x1="134.232" y1="422.118" x2="134.232" y2="424.809"/>
			
				<line fill="none" stroke="#888888" stroke-width="0.5" stroke-linejoin="round" stroke-miterlimit="10" x1="149.26" y1="422.097" x2="149.26" y2="424.788"/>
			
				<line fill="none" stroke="#888888" stroke-width="0.5" stroke-linejoin="round" stroke-miterlimit="10" x1="164.316" y1="422.077" x2="164.316" y2="424.767"/>
		</g>
	</g>
	<g>
		
			<line fill="none" stroke="#DDDDDD" stroke-miterlimit="10" stroke-dasharray="3" x1="261.984" y1="213.605" x2="47.263" y2="213.605"/>
		
			<line fill="none" stroke="#DDDDDD" stroke-miterlimit="10" stroke-dasharray="3" x1="261.984" y1="282.768" x2="47.263" y2="282.768"/>
		
			<line fill="none" stroke="#DDDDDD" stroke-miterlimit="10" stroke-dasharray="3" x1="261.984" y1="352.138" x2="47.263" y2="352.138"/>
		<path fill="none" stroke="#888888" stroke-width="0.5" stroke-linejoin="round" stroke-miterlimit="10" d="M50.92,421.405"/>
	</g>
	<polyline fill="none" stroke="#F8766D" stroke-width="2" stroke-linejoin="round" stroke-miterlimit="10" points="59.683,337.607 
		74.624,334.903 89.589,329.84 104.554,345.792 119.494,353.141 134.459,254.862 149.424,337.961 164.365,344.333 179.33,359.105 
		194.295,360.779 209.235,352.518 224.2,337.328 239.165,331.856 254.13,355.919 	"/>
	<path style="opacity:0.11;" fill="#FF7F7F" d="M244.574,626.033H42.252c-10.487,0-18.989-8.502-18.989-18.989V495.219
		c0-10.487,8.502-18.989,18.989-18.989h202.322c10.487,0,18.989,8.502,18.989,18.989v111.826
		C263.563,617.532,255.062,626.033,244.574,626.033z"/>
	<g>
		<path fill="none" stroke="#000000" stroke-linejoin="round" d="M137.556,251.512c4.779-3.492,11.026-8.026,22.581-8.026
			c1.256,0,2.47-0.054,3.643,0"/>
		<g>
			<path d="M144.245,251.485c-0.011-0.22-0.199-0.39-0.42-0.379l-6.112,0.31l2.304-5.67c0.083-0.205-0.015-0.438-0.22-0.521
				c-0.204-0.083-0.439,0.017-0.521,0.22l-2.541,6.252c-0.051,0.127-0.035,0.271,0.045,0.382s0.21,0.175,0.346,0.168l6.74-0.341
				c0.079-0.004,0.151-0.031,0.211-0.073C144.185,251.755,144.252,251.626,144.245,251.485z"/>
		</g>
	</g>
	
		<line fill="none" stroke="#000000" stroke-width="0.75" stroke-linejoin="round" stroke-miterlimit="10" x1="97.762" y1="1076.917" x2="119.277" y2="1076.917"/>
	<rect style="opacity:0.2;" x="72.945" y="1534.489" fill="#CCCCCC" width="29.447" height="212.879"/>
	<path fill="none" stroke="#FFFFFF" stroke-width="1.07" stroke-linejoin="round" stroke-miterlimit="10" d="M72.948,1754.724"/>
	<path fill="none" stroke="#FFFFFF" stroke-width="1.07" stroke-linejoin="round" stroke-miterlimit="10" d="M87.893,1754.724"/>
	<path fill="none" stroke="#FFFFFF" stroke-width="1.07" stroke-linejoin="round" stroke-miterlimit="10" d="M102.863,1754.724"/>
	<path fill="none" stroke="#FFFFFF" stroke-width="1.07" stroke-linejoin="round" stroke-miterlimit="10" d="M117.832,1754.724"/>
	<path fill="none" stroke="#FFFFFF" stroke-width="1.07" stroke-linejoin="round" stroke-miterlimit="10" d="M132.777,1754.724"/>
	<path fill="none" stroke="#FFFFFF" stroke-width="1.07" stroke-linejoin="round" stroke-miterlimit="10" d="M147.747,1754.724"/>
	<polyline fill="none" stroke="#F8766D" stroke-width="2" stroke-linejoin="round" stroke-miterlimit="10" points="57.979,1673.858 
		72.948,1667.487 87.893,1663.086 102.863,1657.93 117.832,1664.5 132.777,1683.205 147.747,1671.008 162.716,1663.892 
		177.661,1660.172 192.631,1659.827 207.601,1659.827 222.546,1660.707 237.515,1661.587 252.485,1657.731 	"/>
	<rect style="opacity:0.11;" x="117.897" y="1533.754" fill="#FF7F7F" width="29.447" height="213.167"/>
	
		<line fill="none" stroke="#888888" stroke-width="0.5" stroke-linejoin="round" stroke-miterlimit="10" x1="47.332" y1="1747.777" x2="263.436" y2="1747.777"/>
	
		<line fill="none" stroke="#DDDDDD" stroke-miterlimit="10" stroke-dasharray="3" x1="261.635" y1="1552.656" x2="47.332" y2="1552.656"/>
	
		<line fill="none" stroke="#DDDDDD" stroke-miterlimit="10" stroke-dasharray="3" x1="261.635" y1="1617.884" x2="47.332" y2="1617.884"/>
	
		<line fill="none" stroke="#DDDDDD" stroke-miterlimit="10" stroke-dasharray="3" x1="261.635" y1="1683.307" x2="47.332" y2="1683.307"/>
	<g>
		<g>
			
				<line fill="none" stroke="#888888" stroke-width="0.5" stroke-linejoin="round" stroke-miterlimit="10" x1="56.393" y1="1747.927" x2="56.393" y2="1751.584"/>
			
				<line fill="none" stroke="#888888" stroke-width="0.5" stroke-linejoin="round" stroke-miterlimit="10" x1="71.295" y1="1747.899" x2="71.295" y2="1751.556"/>
			
				<line fill="none" stroke="#888888" stroke-width="0.5" stroke-linejoin="round" stroke-miterlimit="10" x1="86.269" y1="1747.871" x2="86.269" y2="1751.528"/>
			
				<line fill="none" stroke="#888888" stroke-width="0.5" stroke-linejoin="round" stroke-miterlimit="10" x1="101.272" y1="1747.843" x2="101.272" y2="1751.5"/>
		</g>
		<g>
			
				<line fill="none" stroke="#888888" stroke-width="0.5" stroke-linejoin="round" stroke-miterlimit="10" x1="175.852" y1="1747.927" x2="175.852" y2="1751.584"/>
			
				<line fill="none" stroke="#888888" stroke-width="0.5" stroke-linejoin="round" stroke-miterlimit="10" x1="190.755" y1="1747.899" x2="190.755" y2="1751.556"/>
			
				<line fill="none" stroke="#888888" stroke-width="0.5" stroke-linejoin="round" stroke-miterlimit="10" x1="205.728" y1="1747.871" x2="205.728" y2="1751.528"/>
			
				<line fill="none" stroke="#888888" stroke-width="0.5" stroke-linejoin="round" stroke-miterlimit="10" x1="220.731" y1="1747.843" x2="220.731" y2="1751.5"/>
		</g>
		<g>
			
				<line fill="none" stroke="#888888" stroke-width="0.5" stroke-linejoin="round" stroke-miterlimit="10" x1="235.591" y1="1747.796" x2="235.591" y2="1751.453"/>
			
				<line fill="none" stroke="#888888" stroke-width="0.5" stroke-linejoin="round" stroke-miterlimit="10" x1="250.493" y1="1747.768" x2="250.493" y2="1751.425"/>
		</g>
		<g>
			
				<line fill="none" stroke="#888888" stroke-width="0.5" stroke-linejoin="round" stroke-miterlimit="10" x1="116.157" y1="1747.777" x2="116.157" y2="1751.434"/>
			
				<line fill="none" stroke="#888888" stroke-width="0.5" stroke-linejoin="round" stroke-miterlimit="10" x1="131.06" y1="1747.749" x2="131.06" y2="1751.406"/>
			
				<line fill="none" stroke="#888888" stroke-width="0.5" stroke-linejoin="round" stroke-miterlimit="10" x1="146.033" y1="1747.721" x2="146.033" y2="1751.378"/>
			
				<line fill="none" stroke="#888888" stroke-width="0.5" stroke-linejoin="round" stroke-miterlimit="10" x1="161.036" y1="1747.693" x2="161.036" y2="1751.35"/>
		</g>
	</g>
</g>
<style>
#g-revenue-breakdown-300-img rect, #g-revenue-breakdown-300-img circle, #g-revenue-breakdown-300-img path, #g-revenue-breakdown-300-img line, #g-revenue-breakdown-300-img polyline { vector-effect: non-scaling-stroke; }
</style>
</svg>

